<?xml version="1.0" encoding="iso-8859-1"?>
<!-- Generator: Adobe Illustrator 19.0.0, SVG Export Plug-In . SVG Version: 6.00 Build 0)  -->
<svg xmlns="http://www.w3.org/2000/svg" xmlns:xlink="http://www.w3.org/1999/xlink" version="1.1" id="Layer_1" x="0px" y="0px" viewBox="0 0 512 512" style="enable-background:new 0 0 512 512;" xml:space="preserve">
<rect x="175.929" y="343" style="fill:#165DB2;" width="159.43" height="159"/>
<path style="fill:#FFB35E;" d="M176.504,343h158.855c27.239-22.746,44.573-56.956,44.573-95.218  c0-35.945-15.296-68.317-39.733-90.963c-0.672-0.623-1.336-1.252-1.992-1.888c-29.188-28.279-40.208-70.478-29.706-109.738  L317.914,10h-124l9.413,35.91c10.238,39.057-0.803,80.902-29.731,109.07c-0.683,0.665-1.374,1.323-2.074,1.973  c-24.354,22.64-39.591,54.954-39.591,90.829C131.932,286.044,149.266,320.254,176.504,343z"/>
<g>
	<polygon style="fill:#F29C0B;" points="373.518,286.929 347.138,305.89 316.717,284.022 286.3,305.884 255.88,284.016    225.572,305.878 195.151,284.01 164.735,305.873 138.346,286.903 134.311,233.994 164.732,255.862 195.149,234 225.57,255.868    255.877,234.005 286.298,255.873 316.715,234.011 347.135,255.879 377.552,234.017  "/>
	<polygon style="fill:#F29C0B;" points="326.232,141.75 302.784,124.894 279.34,141.746 255.892,124.89 232.531,141.741    209.083,124.886 185.638,141.737 209.081,86.338 232.529,103.194 255.89,86.342 279.338,103.198 302.782,86.347  "/>
</g>
<path d="M335.932,452.961c-5.522,0-10-4.477-10-10v-0.188c0-5.523,4.478-10,10-10s10,4.477,10,10v0.188  C345.932,448.484,341.454,452.961,335.932,452.961z"/>
<path d="M448.182,206.079c-5.522,0-10,4.477-10,10c0,16.165-13.15,29.315-29.315,29.315c-5.676,0-11.426-1.937-15.421-6.081  c-3.511-3.642-5.184-8.626-4.973-13.646c0.274-6.525,3.906-14.704,13.278-18.089c35.062-12.664,58.381-46.235,58.027-83.538  c-0.45-47.385-39.361-86.428-86.74-87.034c-0.372-0.005-0.738-0.007-1.109-0.007c-20.529,0-40.238,7.297-55.788,20.018  c0.535-3.089,1.2-6.172,2.02-9.239l9.414-35.193c0.804-3.002,0.165-6.208-1.728-8.673S321.022,0,317.914,0h-124  c-3.1,0-6.023,1.437-7.917,3.891s-2.542,5.647-1.756,8.645l9.413,35.91c0.717,2.734,1.305,5.481,1.794,8.234  c-15.77-12.747-35.746-19.951-56.486-19.674c-47.38,0.606-86.291,39.649-86.741,87.034c-0.354,37.302,22.966,70.874,58.027,83.538  c9.372,3.385,13.004,11.564,13.278,18.089c0.219,5.223-1.656,10.464-5.437,14.11c-3.979,3.836-9.5,5.617-14.958,5.617  c-16.164,0-29.314-13.15-29.314-29.315c0-5.523-4.478-10-10-10s-10,4.477-10,10c0,27.192,22.122,49.315,49.314,49.315  c6.764,0,13.407-1.509,19.44-4.577c3.211,33.075,18.564,63.738,43.359,86.221V502c0,5.523,4.478,10,10,10H335.93  c5.522,0,10-4.477,10-10v-22.429c0-5.523-4.478-10-10-10s-10,4.477-10,10V492H185.932V353h139.999v51.816c0,5.523,4.478,10,10,10  s10-4.477,10-10v-57.778c24.812-22.497,40.168-53.186,43.367-86.286c6.065,3.111,12.757,4.642,19.569,4.642  c27.192,0,49.315-22.123,49.315-49.315C458.182,210.556,453.704,206.079,448.182,206.079z M365.107,280.66l-17.969,12.915  l-24.584-17.672c-3.487-2.507-8.185-2.507-11.674,0l-24.579,17.667l-24.584-17.672c-3.492-2.511-8.197-2.506-11.688,0.009  l-24.467,17.65l-24.574-17.665c-3.487-2.507-8.186-2.508-11.673,0l-24.581,17.667l-17.989-12.931  c-2.781-9.26-4.385-18.922-4.733-28.781l16.883,12.137c3.487,2.507,8.185,2.507,11.674,0l24.579-17.667l24.584,17.672  c3.492,2.511,8.197,2.506,11.688-0.009l24.467-17.65l24.574,17.665c3.488,2.507,8.187,2.508,11.673,0l24.581-17.667L341.299,264  c1.744,1.254,3.79,1.88,5.837,1.88c2.046,0,4.093-0.627,5.837-1.88l16.877-12.131C369.499,261.731,367.892,271.397,365.107,280.66z   M301.33,115.003c-1.547,0.227-3.053,0.816-4.383,1.771L279.34,129.43l-17.611-12.66c-3.492-2.511-8.197-2.507-11.688,0.009  l-17.52,12.639l-17.602-12.652c-1.374-0.987-2.935-1.58-4.536-1.789c1.439-4.188,2.638-8.459,3.618-12.786l12.69,9.122  c3.492,2.511,8.197,2.507,11.688-0.009l17.52-12.639l17.602,12.652c1.744,1.254,3.79,1.88,5.837,1.88  c2.046,0,4.093-0.627,5.837-1.88l12.533-9.008C298.689,106.606,299.894,110.845,301.33,115.003z M178.336,164.272  c0.753-0.701,1.498-1.409,2.237-2.128c4.004-3.899,7.694-8.05,11.07-12.407l17.44-12.535l17.611,12.66  c3.492,2.511,8.197,2.507,11.688-0.009l17.52-12.639l17.602,12.652c3.487,2.507,8.185,2.507,11.674,0l17.607-12.656l17.289,12.428  c3.406,4.384,7.132,8.558,11.178,12.478c0.709,0.687,1.426,1.366,2.15,2.038c18.418,17.069,30.596,39.783,34.846,64.236  l-21.111,15.174l-24.584-17.672c-3.487-2.507-8.186-2.508-11.673,0l-24.581,17.667l-24.584-17.672  c-3.492-2.511-8.197-2.507-11.688,0.009l-24.467,17.65l-24.574-17.665c-3.487-2.507-8.185-2.507-11.674,0l-24.579,17.667  l-21.112-15.177C147.864,203.984,159.995,181.322,178.336,164.272z M372.781,57.003c36.595,0.468,66.649,30.625,66.996,67.226  c0.274,28.82-17.738,54.755-44.822,64.538c-5.634,2.035-10.594,5.226-14.657,9.251c-7.319-18.274-18.623-34.93-33.302-48.534  c-0.618-0.573-1.229-1.152-1.832-1.735c-16.771-16.248-27.044-37.692-29.803-60.462C328.063,68.253,349.767,56.733,372.781,57.003z   M304.888,20l-6.048,22.609c-3.299,12.333-4.633,24.88-4.132,37.226l-15.37,11.048l-17.611-12.66  c-3.492-2.511-8.197-2.507-11.688,0.009l-17.52,12.639l-15.547-11.175c0.468-12.055-0.819-24.293-3.973-36.321L206.873,20H304.888z   M117.043,188.767c-27.084-9.782-45.097-35.718-44.822-64.538c0.347-36.6,30.401-66.757,66.997-67.226  c0.287-0.003,0.57-0.005,0.857-0.005c22.489,0,43.707,11.327,56.289,29.885c-2.665,22.924-12.931,44.561-29.74,60.929  c-0.632,0.614-1.27,1.221-1.91,1.817c-14.577,13.55-25.815,30.121-33.11,48.295C127.559,193.943,122.633,190.786,117.043,188.767z   M331.647,333H180.216c-5.865-5.213-11.117-10.962-15.723-17.136c2.126,0.051,4.265-0.568,6.077-1.871l24.581-17.667l24.584,17.672  c3.492,2.511,8.197,2.506,11.688-0.009l24.467-17.65l24.574,17.665c3.488,2.507,8.186,2.507,11.674,0l24.579-17.667l24.584,17.672  c1.744,1.254,3.79,1.88,5.837,1.88c0.073,0,0.146-0.007,0.219-0.008C342.755,322.049,337.507,327.792,331.647,333z"/>
<g>
</g>
<g>
</g>
<g>
</g>
<g>
</g>
<g>
</g>
<g>
</g>
<g>
</g>
<g>
</g>
<g>
</g>
<g>
</g>
<g>
</g>
<g>
</g>
<g>
</g>
<g>
</g>
<g>
</g>
</svg>
