<?xml version="1.0" encoding="iso-8859-1"?>
<!-- Generator: Adobe Illustrator 19.0.0, SVG Export Plug-In . SVG Version: 6.00 Build 0)  -->
<svg xmlns="http://www.w3.org/2000/svg" xmlns:xlink="http://www.w3.org/1999/xlink" version="1.1" id="Layer_1" x="0px" y="0px" viewBox="0 0 512 512" style="enable-background:new 0 0 512 512;" xml:space="preserve">
<path style="fill:#EFEEEE;" d="M359.027,185.993l-57.795-24.081c-4.469-1.862-7.562-5.802-8.521-10.421v-18.646l2.669-1.531  c5.72-3.777,9.755-10.673,10.347-18.419v-9.917c6.014,0,10.935-4.921,10.935-10.935V74.563c0-6.014-4.921-10.935-10.935-10.935  V44.063c0.001-18.81-15.418-34.058-34.228-34.058h-30.749c-18.811,0-34.364,15.249-34.364,34.058v19.565  c-6.035,0-10.974,4.939-10.974,10.974v17.401c0,6.035,4.939,10.974,10.974,10.974v9.917c0.592,7.746,4.674,14.642,10.393,18.419  l2.861,1.636v18.436c-0.932,4.664-4.116,8.649-8.619,10.526l-57.795,24.081c-2.91,1.213-5.57,2.934-7.946,5.013  c30.567,5.783,43.684,32.616,43.684,64.864h134.068c0-32.321,13.224-59.201,43.893-64.901  C364.561,188.906,361.918,187.197,359.027,185.993z"/>
<rect x="132.937" y="255.87" style="fill:#165DB2;" width="246.125" height="246.125"/>
<rect x="186.575" y="309.508" style="fill:#41C0F0;" width="138.861" height="138.861"/>
<path d="M326.036,406.412c-5.525,0-10.005-4.479-10.005-10.005v-0.164c0-5.526,4.48-10.005,10.005-10.005  c5.525,0,10.005,4.479,10.005,10.005v0.164C336.041,401.933,331.561,406.412,326.036,406.412z"/>
<path d="M326.035,458.973h-140.07c-5.525,0-10.005-4.479-10.005-10.005V308.896c0-5.526,4.48-10.005,10.005-10.005h140.07  c5.525,0,10.005,4.479,10.005,10.005v54.117c0,5.526-4.48,10.005-10.005,10.005c-5.525,0-10.005-4.479-10.005-10.005v-44.111  h-120.06v120.061h120.06v-10.505c0-5.526,4.48-10.005,10.005-10.005c5.525,0,10.005,4.479,10.005,10.005v20.51  C336.04,454.494,331.56,458.973,326.035,458.973z"/>
<path d="M379.063,245.864h-45.526c1.801-17.816,9.343-40.251,35.219-45.06c3.773-0.701,6.813-3.499,7.823-7.201  c1.012-3.703-0.185-7.657-3.078-10.178c-3.27-2.849-6.844-5.093-10.627-6.668l-57.795-24.081c-1.102-0.458-1.936-1.348-2.363-2.493  v-11.822c7.425-5.722,12.231-14.794,12.988-24.705c0.02-0.253,0.029-0.508,0.029-0.762v-2.46  c6.51-3.556,10.936-10.466,10.936-18.391V74.563c0-7.925-4.425-14.837-10.936-18.391V44.063C315.732,19.767,295.889,0,271.498,0  H240.75c-24.464,0-44.369,19.767-44.369,44.063v12.103c-6.531,3.559-10.974,10.488-10.974,18.435v17.401  c0,7.947,4.441,14.877,10.974,18.435v2.455c0,0.254,0.01,0.509,0.029,0.762c0.763,9.98,5.662,19.124,13.227,24.852v11.601  c-0.428,1.155-1.314,2.088-2.462,2.567l-57.795,24.081c-3.811,1.587-7.406,3.848-10.687,6.718  c-2.881,2.521-4.071,6.465-3.065,10.159c1.007,3.694,4.032,6.489,7.794,7.202c25.737,4.868,33.245,27.254,35.041,45.028h-45.525  c-5.525,0-10.005,4.479-10.005,10.005v246.125c0,5.526,4.48,10.005,10.005,10.005h246.125c5.525,0,10.005-4.479,10.005-10.005  V255.869C389.068,250.344,384.588,245.864,379.063,245.864z M187.092,208.244c-4.63-7.475-10.56-13.588-17.58-18.197l45.36-18.901  c7.529-3.138,12.98-9.792,14.581-17.799c0.129-0.646,0.194-1.304,0.194-1.963v-18.436c0-3.59-1.923-6.905-5.04-8.686l-2.534-1.449  c-3.068-2.143-5.266-6.147-5.682-10.351v-9.486c0-5.526-4.48-10.005-10.005-10.005c-0.507,0-0.968-0.461-0.968-0.968v-17.4  c0-0.507,0.461-0.968,0.968-0.968c5.525,0,10.005-4.479,10.005-10.005V44.063c0-13.263,10.928-24.053,24.358-24.053h30.748  c13.358,0,24.224,10.79,24.224,24.053v19.565c0,5.526,4.48,10.005,10.005,10.005c0.486,0,0.93,0.443,0.93,0.93v17.478  c0,0.486-0.443,0.929-0.93,0.929c-5.525,0-10.005,4.479-10.005,10.005v9.489c-0.418,4.282-2.552,8.2-5.639,10.351l-2.352,1.349  c-3.109,1.783-5.027,5.094-5.027,8.678v18.646c0,0.683,0.07,1.366,0.209,2.035c1.651,7.947,7.061,14.535,14.469,17.622  l45.258,18.858c-16.741,11.012-27.077,30.494-29.203,55.86H198.56C197.342,231.355,193.438,218.49,187.092,208.244z M369.058,491.99  H142.942V265.875h226.115V491.99z"/>
<g>
</g>
<g>
</g>
<g>
</g>
<g>
</g>
<g>
</g>
<g>
</g>
<g>
</g>
<g>
</g>
<g>
</g>
<g>
</g>
<g>
</g>
<g>
</g>
<g>
</g>
<g>
</g>
<g>
</g>
</svg>
