<?xml version="1.0" encoding="iso-8859-1"?>
<!-- Generator: Adobe Illustrator 19.0.0, SVG Export Plug-In . SVG Version: 6.00 Build 0)  -->
<svg xmlns="http://www.w3.org/2000/svg" xmlns:xlink="http://www.w3.org/1999/xlink" version="1.1" id="Layer_1" x="0px" y="0px" viewBox="0 0 512.002 512.002" style="enable-background:new 0 0 512.002 512.002;" xml:space="preserve">
<rect x="108.001" y="86.68" style="fill:#F29C0B;" width="296" height="220"/>
<rect x="145.961" y="126.68" style="fill:#64C5F2;" width="220.07" height="140"/>
<polyline style="fill:#44AD00;" points="160.445,266.679 201.002,207.678 222.752,229.928 256.002,175.166 307.748,266.679 "/>
<circle style="fill:#F29C0B;" cx="314.031" cy="179.77" r="14"/>
<path d="M366.038,224.144c-5.522,0-10-4.477-10-10v-0.164c0-5.523,4.478-10,10-10s10,4.477,10,10v0.164  C376.038,219.667,371.56,224.144,366.038,224.144z"/>
<path d="M366.037,190.767c5.522,0,10-4.477,10-10v-54.089c0-5.523-4.478-10-10-10H146.038c-5.522,0-10,4.477-10,10v140  c0,5.523,4.478,10,10,10h219.999c5.522,0,10-4.477,10-10v-20.5c0-5.523-4.478-10-10-10s-10,4.477-10,10v10.5h-42.456l-48.875-86.434  c-1.747-3.09-5.001-5.022-8.55-5.077c-3.518-0.019-6.86,1.775-8.703,4.809l-26.561,43.745l-12.74-13.033  c-2.091-2.14-5.036-3.232-8.01-2.973c-2.979,0.256-5.688,1.833-7.383,4.298l-36.723,53.424v-118.76h199.999v44.089  C356.037,186.29,360.514,190.767,366.037,190.767z M202.353,223.366l13.247,13.552c2.16,2.21,5.224,3.296,8.291,2.945  c3.069-0.352,5.805-2.104,7.408-4.745l24.396-40.179l34.91,61.739h-111.15L202.353,223.366z"/>
<path d="M314.029,203.767c-13.233,0-24-10.767-24-24s10.767-24,24-24s24,10.767,24,24S327.262,203.767,314.029,203.767z   M314.029,175.767c-2.206,0-4,1.794-4,4s1.794,4,4,4s4-1.794,4-4S316.235,175.767,314.029,175.767z"/>
<path d="M404.002,76.678h-31.97c-0.127-0.095-0.246-0.196-0.379-0.286L261.617,1.726c-3.391-2.3-7.84-2.3-11.23,0L140.35,76.392  c-0.133,0.09-0.252,0.191-0.379,0.286h-31.97c-5.522,0-10,4.477-10,10v220c0,5.523,4.478,10,10,10h296c5.522,0,10-4.477,10-10v-220  C414.002,81.155,409.524,76.678,404.002,76.678z M256.002,22.085l80.453,54.593H175.548L256.002,22.085z M394.002,296.678h-276v-200  h276V296.678z"/>
<polygon style="fill:#F9694F;" points="400.596,502 400.596,373 370.596,373 370.596,502 141.408,502 141.408,373 111.408,373   111.408,502 "/>
<g>
	<circle style="fill:#F29C0B;" cx="126.411" cy="356.68" r="21"/>
	<circle style="fill:#F29C0B;" cx="385.601" cy="356.68" r="21"/>
</g>
<path d="M502.816,419.546c-34.678-2.834-67.269-17.732-92.221-42.062v-2.504c3.768-5.133,6-11.461,6-18.302  c0-17.093-13.906-31-31-31s-31,13.907-31,31c0,6.841,2.232,13.169,6,18.302v2.51c-28.141,27.475-65.125,42.559-104.594,42.559  s-76.452-15.083-104.594-42.559v-2.51c3.768-5.133,6-11.461,6-18.302c0-17.093-13.906-31-31-31s-31,13.907-31,31  c0,6.841,2.232,13.169,6,18.302v2.504c-24.952,24.33-57.542,39.229-92.221,42.062c-5.504,0.45-9.603,5.277-9.152,10.781  c0.427,5.228,4.802,9.186,9.956,9.186c0.272,0,0.548-0.011,0.825-0.034c33.138-2.708,64.591-15.123,90.592-35.464V502  c0,5.523,4.478,10,10,10s10-4.477,10-10V387.27c1.629,0.265,3.298,0.409,5,0.409c1.702,0,3.371-0.144,5-0.409V502  c0,5.523,4.478,10,10,10s10-4.477,10-10v-97.96c29.725,23.353,66.114,36.009,104.594,36.009s74.869-12.656,104.594-36.009V502  c0,5.523,4.478,10,10,10s10-4.477,10-10V387.27c1.629,0.265,3.298,0.409,5,0.409s3.371-0.144,5-0.409V502c0,5.523,4.478,10,10,10  s10-4.477,10-10v-97.985c26,20.341,57.454,32.757,90.592,35.464c0.277,0.022,0.552,0.034,0.825,0.034  c5.154,0,9.529-3.959,9.956-9.186C512.419,424.823,508.32,419.996,502.816,419.546z M115.408,356.679c0-6.065,4.935-11,11-11  s11,4.935,11,11s-4.935,11-11,11C120.342,367.679,115.408,362.744,115.408,356.679z M374.595,356.679c0-6.065,4.935-11,11-11  s11,4.935,11,11s-4.935,11-11,11S374.595,362.744,374.595,356.679z"/>
<g>
</g>
<g>
</g>
<g>
</g>
<g>
</g>
<g>
</g>
<g>
</g>
<g>
</g>
<g>
</g>
<g>
</g>
<g>
</g>
<g>
</g>
<g>
</g>
<g>
</g>
<g>
</g>
<g>
</g>
</svg>
