<?xml version="1.0" encoding="iso-8859-1"?>
<!-- Generator: Adobe Illustrator 19.0.0, SVG Export Plug-In . SVG Version: 6.00 Build 0)  -->
<svg xmlns="http://www.w3.org/2000/svg" xmlns:xlink="http://www.w3.org/1999/xlink" version="1.1" id="Layer_1" x="0px" y="0px" viewBox="0 0 512 512" style="enable-background:new 0 0 512 512;" xml:space="preserve">
<rect x="108" y="146" style="fill:#F29C0B;" width="296" height="220"/>
<rect x="145.96" y="186" style="fill:#64C5F2;" width="220.07" height="140"/>
<g>
	<rect x="10" y="177" style="fill:#44AD00;" width="66.998" height="158"/>
	<rect x="435" y="177" style="fill:#44AD00;" width="66.998" height="158"/>
	<polygon style="fill:#44AD00;" points="160.444,326 201,267 222.75,289.25 256,234.488 307.5,326  "/>
</g>
<path d="M404,376H108c-5.522,0-10-4.477-10-10V146c0-5.523,4.478-10,10-10h296c5.522,0,10,4.477,10,10v220  C414,371.523,409.522,376,404,376z M118,356h276V156H118V356z"/>
<path d="M366.036,283.466c-5.522,0-10-4.477-10-10v-0.164c0-5.523,4.478-10,10-10s10,4.477,10,10v0.164  C376.036,278.989,371.559,283.466,366.036,283.466z"/>
<circle style="fill:#F29C0B;" cx="314.03" cy="239.09" r="14"/>
<path d="M366.035,250.089c5.522,0,10-4.477,10-10V186c0-5.523-4.478-10-10-10H146.036c-5.522,0-10,4.477-10,10v140  c0,5.523,4.478,10,10,10h219.999c5.522,0,10-4.477,10-10v-20.5c0-5.523-4.478-10-10-10s-10,4.477-10,10V316h-42.688l-48.632-86.417  c-1.742-3.096-4.997-5.036-8.55-5.094c-0.055-0.001-0.11-0.001-0.166-0.001c-3.489,0-6.731,1.821-8.547,4.81l-26.561,43.745  l-12.74-13.033c-2.091-2.139-5.024-3.229-8.01-2.973c-2.979,0.256-5.688,1.833-7.383,4.298l-36.723,53.424V196h199.999v44.089  C356.035,245.612,360.513,250.089,366.035,250.089z M202.352,282.688l13.247,13.552c2.161,2.21,5.221,3.297,8.291,2.945  c3.069-0.352,5.805-2.104,7.408-4.745l24.374-40.145L290.397,316H179.453L202.352,282.688z"/>
<path d="M314.027,263.089c-13.233,0-24-10.767-24-24s10.767-24,24-24s24,10.767,24,24S327.261,263.089,314.027,263.089z   M314.027,235.089c-2.206,0-4,1.794-4,4s1.794,4,4,4s4-1.794,4-4S316.233,235.089,314.027,235.089z"/>
<path d="M435.002,257.698c-5.522,0-10-4.477-10-10v-0.164c0-5.523,4.478-10,10-10s10,4.477,10,10v0.164  C445.002,253.221,440.524,257.698,435.002,257.698z"/>
<path d="M502,345h-66.998c-5.522,0-10-4.477-10-10v-54.089c0-5.523,4.478-10,10-10s10,4.477,10,10V325H492V187h-46.998v28.5  c0,5.523-4.478,10-10,10s-10-4.477-10-10V177c0-5.523,4.478-10,10-10H502c5.522,0,10,4.477,10,10v158  C512,340.523,507.522,345,502,345z"/>
<path d="M77,274.466c-5.522,0-10-4.477-10-10v-0.164c0-5.523,4.478-10,10-10s10,4.477,10,10v0.164  C87,269.989,82.522,274.466,77,274.466z"/>
<path d="M76.998,345H10c-5.522,0-10-4.477-10-10V177c0-5.523,4.478-10,10-10h66.998c5.522,0,10,4.477,10,10v54.089  c0,5.523-4.478,10-10,10s-10-4.477-10-10V187H20v138h46.998v-28.5c0-5.523,4.478-10,10-10s10,4.477,10,10V335  C86.998,340.523,82.521,345,76.998,345z"/>
<g>
</g>
<g>
</g>
<g>
</g>
<g>
</g>
<g>
</g>
<g>
</g>
<g>
</g>
<g>
</g>
<g>
</g>
<g>
</g>
<g>
</g>
<g>
</g>
<g>
</g>
<g>
</g>
<g>
</g>
</svg>
