<?xml version="1.0" encoding="iso-8859-1"?>
<!-- Generator: Adobe Illustrator 19.0.0, SVG Export Plug-In . SVG Version: 6.00 Build 0)  -->
<svg xmlns="http://www.w3.org/2000/svg" xmlns:xlink="http://www.w3.org/1999/xlink" version="1.1" id="Layer_1" x="0px" y="0px" viewBox="0 0 512 512" style="enable-background:new 0 0 512 512;" xml:space="preserve">
<rect x="83.315" y="310.011" style="fill:#165DB2;" width="272.045" height="191.992"/>
<rect x="149.326" y="360.609" style="fill:#41C0F0;" width="140.023" height="100.747"/>
<rect x="149.326" y="271.004" style="fill:#1C237A;" width="140.023" height="38.964"/>
<path style="fill:#2E7500;" d="M197.899,72.434l147.337,85.065l89.845-11.498l30.996,17.896l-85.768,39.75l-35.452,8.302  l-50.452-30.132l32.949,76.167l-61.133-34.292l-56.386-96.73L45.925,32.329c0,0,30.888-30.387,71.182-6.54l25.652,14.81  L197.899,72.434z"/>
<path style="fill:#41C0F0;" d="M236.165,94.527c2.614-29.17-11.458-58.583-38.489-74.189s-59.54-13.087-83.495,3.762L236.165,94.527  z"/>
<path d="M471.078,155.236l-30.995-17.896c-1.896-1.095-4.097-1.536-6.271-1.259l-86.496,11.069L246.462,88.923  c0.461-31.531-16.24-61.344-43.786-77.247c-27.703-15.994-62.103-15.454-89.252,0.985c-20.528-9.039-38.435-6.287-50.42-1.95  C48.606,15.92,39.86,24.264,38.911,25.2c-2.227,2.19-3.303,5.296-2.907,8.394c0.396,3.099,2.215,5.835,4.921,7.397l161.609,93.305  l6.929,11.887v114.818h-60.137c-5.523,0-10.002,4.478-10.002,10.002v28.963H83.317c-5.523,0-10.002,4.478-10.002,10.002v192.032  c0,5.524,4.479,10.002,10.002,10.002h272.039c5.523,0,10.002-4.478,10.002-10.002V309.967c0-5.524-4.479-10.002-10.002-10.002  h-56.007v-28.963c0-5.524-4.479-10.002-10.002-10.002h-59.882v-80.502l28.115,48.232c0.898,1.541,2.192,2.813,3.748,3.687  l61.133,34.292c1.531,0.858,3.216,1.279,4.892,1.278c2.419,0,4.818-0.877,6.701-2.575c3.187-2.874,4.184-7.459,2.479-11.398  l-20.64-47.711l23.835,14.235c2.227,1.329,4.884,1.743,7.409,1.151l35.451-8.302c0.662-0.155,1.308-0.377,1.925-0.664l85.768-39.75  c3.388-1.569,5.618-4.897,5.786-8.626C476.236,160.615,474.312,157.103,471.078,155.236z M345.355,491.996H93.318V319.967h56.006  h140.022h56.007L345.355,491.996L345.355,491.996z M279.345,299.964H159.326v-18.961h120.019V299.964z M377.031,194.143  l-30.518,7.147l-46.981-28.059c-3.73-2.226-8.464-1.794-11.727,1.07c-3.263,2.863-4.306,7.504-2.581,11.488l21.19,48.982  l-32.924-18.469l-55.014-94.377c-0.877-1.504-2.132-2.753-3.641-3.625L64.719,31.631c10.632-5.128,27.565-8.912,47.295,2.765  c0.03,0.018,0.062,0.036,0.093,0.054l25.652,14.81c4.786,2.761,10.901,1.122,13.662-3.661c2.762-4.784,1.123-10.901-3.661-13.662  l-13.017-7.515c18.754-7.128,40.136-5.698,57.931,4.576C210.47,39.273,222.4,57.074,225.603,76.88L202.9,63.773  c-4.785-2.762-10.901-1.122-13.662,3.661c-2.762,4.784-1.123,10.901,3.661,13.662l147.337,85.065  c1.896,1.094,4.102,1.538,6.271,1.259l86.496-11.069l11.387,6.574L377.031,194.143z"/>
<path d="M174.239,47.225l-0.387-0.224c-4.783-2.765-10.9-1.13-13.665,3.652s-1.13,10.9,3.652,13.665l0.387,0.224  c1.576,0.912,3.299,1.345,4.997,1.345c3.455,0,6.814-1.791,8.668-4.997C180.656,56.109,179.02,49.99,174.239,47.225z"/>
<path d="M289.348,418.927c-5.523,0-10.002,4.478-10.002,10.002v0.095c0,5.524,4.479,9.955,10.002,9.955s10.002-4.525,10.002-10.049  S294.872,418.927,289.348,418.927z"/>
<path d="M149.325,349.337c-5.523,0-10.002,4.478-10.002,10.002v102.017c0,5.524,4.479,10.002,10.002,10.002h140.022  c5.523,0,10.002-4.478,10.002-10.002v-8.952c0-5.524-4.479-10.002-10.002-10.002c-5.169,0-9.423,3.921-9.947,8.951H159.326v-82.014  h120.019v35.973c0,5.524,4.479,10.002,10.002,10.002s10.002-4.478,10.002-10.002v-45.975c0-5.524-4.479-10.002-10.002-10.002  H149.325z"/>
<g>
</g>
<g>
</g>
<g>
</g>
<g>
</g>
<g>
</g>
<g>
</g>
<g>
</g>
<g>
</g>
<g>
</g>
<g>
</g>
<g>
</g>
<g>
</g>
<g>
</g>
<g>
</g>
<g>
</g>
</svg>
