<?xml version="1.0" encoding="iso-8859-1"?>
<!-- Generator: Adobe Illustrator 19.0.0, SVG Export Plug-In . SVG Version: 6.00 Build 0)  -->
<svg xmlns="http://www.w3.org/2000/svg" xmlns:xlink="http://www.w3.org/1999/xlink" version="1.1" id="Layer_1" x="0px" y="0px" viewBox="0 0 512 512" style="enable-background:new 0 0 512 512;" xml:space="preserve">
<polygon style="fill:#FAB617;" points="501.998,180.867 462.835,177.3 459.271,138.131 420.108,134.565 416.545,95.395   416.621,95.472 377.459,91.905 373.894,52.736 334.732,49.17 331.167,10 10.002,331.133 49.164,334.7 52.729,373.869   91.891,377.435 95.456,416.605 95.379,416.528 134.54,420.095 138.105,459.265 177.268,462.831 180.832,502 "/>
<path style="fill:#F9694F;" d="M414.142,222.039c-14.91-14.91-14.91-39.083,0-53.991l-70.189-70.189  c-14.91,14.91-39.083,14.91-53.991,0L97.859,289.961c14.91,14.91,14.91,39.083,0,53.991l70.189,70.189  c14.91-14.91,39.083-14.91,53.991,0l70.508-70.508L414.142,222.039z"/>
<path d="M180.831,512c-1.141,0-2.292-0.196-3.402-0.598c-3.648-1.321-6.204-4.632-6.555-8.497l-2.81-30.873l-30.865-2.811  c-4.807-0.438-8.615-4.246-9.052-9.053l-2.81-30.873L95.73,426.6c-2.691,0.07-5.361-0.941-7.345-2.925l-0.077-0.077  c-1.984-1.984-2.999-4.656-2.925-7.345l-2.695-29.616l-30.866-2.811c-4.807-0.438-8.615-4.246-9.052-9.053l-2.81-30.873  L9.095,341.09c-3.864-0.352-7.176-2.907-8.497-6.556c-1.32-3.648-0.411-7.731,2.333-10.475L324.096,2.929  c2.744-2.744,6.828-3.652,10.475-2.332c3.648,1.321,6.204,4.632,6.555,8.497l2.81,30.873l30.865,2.811  c4.807,0.438,8.615,4.246,9.052,9.053l2.81,30.873l29.608,2.696c2.679-0.08,5.36,0.941,7.345,2.925l0.077,0.077  c1.984,1.984,2.999,4.656,2.925,7.345l2.695,29.616l30.866,2.811c4.807,0.438,8.615,4.246,9.052,9.053l2.81,30.873l30.865,2.811  c3.864,0.352,7.176,2.907,8.497,6.556c1.32,3.648,0.411,7.731-2.333,10.475L187.903,509.071C185.995,510.98,183.438,512,180.831,512  z M147.309,450.062l30.865,2.811c4.807,0.438,8.615,4.246,9.052,9.053l1.63,17.912l290.975-290.946l-17.902-1.63  c-4.807-0.438-8.615-4.246-9.052-9.053l-2.81-30.873l-30.866-2.811c-4.807-0.438-8.615-4.246-9.052-9.053l-2.803-30.803  l-30.795-2.804c-4.807-0.438-8.615-4.246-9.052-9.053l-2.81-30.873l-30.865-2.811c-4.807-0.438-8.615-4.246-9.052-9.053  l-1.63-17.912L32.168,323.11l17.902,1.63c4.807,0.438,8.615,4.246,9.052,9.053l2.81,30.873l30.866,2.811  c4.807,0.438,8.615,4.246,9.052,9.053l2.803,30.803l30.795,2.804c4.807,0.438,8.615,4.246,9.052,9.053L147.309,450.062z"/>
<path d="M222.039,424.142c-2.652,0-5.196-1.054-7.071-2.929c-5.322-5.322-12.398-8.253-19.925-8.253  c-7.527,0-14.603,2.931-19.925,8.253c-1.875,1.875-4.419,2.929-7.071,2.929s-5.196-1.054-7.071-2.929l-70.189-70.189  c-1.875-1.875-2.929-4.419-2.929-7.071c0-2.652,1.054-5.196,2.929-7.071c5.322-5.322,8.253-12.398,8.253-19.925  c0-7.526-2.931-14.603-8.253-19.925c-1.875-1.875-2.929-4.419-2.929-7.071s1.054-5.196,2.929-7.071L282.889,90.787  c1.875-1.875,4.419-2.929,7.071-2.929c2.652,0,5.196,1.054,7.071,2.929c5.322,5.322,12.398,8.253,19.925,8.253  s14.603-2.931,19.925-8.253c1.875-1.875,4.419-2.929,7.071-2.929s5.196,1.054,7.071,2.929l70.189,70.189  c1.875,1.875,2.929,4.419,2.929,7.071s-1.054,5.196-2.929,7.071c-5.322,5.322-8.253,12.398-8.253,19.925  c0,7.526,2.931,14.603,8.253,19.925c1.875,1.875,2.929,4.419,2.929,7.071c0,2.652-1.054,5.196-2.929,7.071l-79.244,79.244  c-3.905,3.905-10.237,3.905-14.143,0c-3.905-3.905-3.905-10.237,0-14.143l72.903-72.903c-5.058-7.747-7.771-16.798-7.771-26.266  s2.713-18.52,7.771-26.266l-57.508-57.508c-7.746,5.058-16.797,7.771-26.266,7.771c-9.468,0-18.519-2.713-26.266-7.771  L111.27,290.691c5.058,7.747,7.771,16.798,7.771,26.266s-2.713,18.52-7.771,26.266l57.508,57.508  c7.746-5.058,16.797-7.771,26.266-7.771c9.468,0,18.519,2.713,26.266,7.771l64.167-64.167c3.905-3.905,10.237-3.905,14.143,0  c3.905,3.905,3.905,10.237,0,14.142l-70.508,70.508C227.235,423.088,224.691,424.142,222.039,424.142z"/>
<path d="M314.15,332.04c-2.64,0-5.22-1.07-7.08-2.93c-1.86-1.86-2.92-4.44-2.92-7.07c0-2.64,1.06-5.21,2.92-7.07  c1.87-1.87,4.44-2.93,7.08-2.93c2.63,0,5.2,1.06,7.07,2.93c1.86,1.86,2.93,4.44,2.93,7.07c0,2.63-1.07,5.21-2.93,7.07  C319.359,330.97,316.779,332.04,314.15,332.04z"/>
<path d="M216.297,338.501c-2.559,0-5.119-0.976-7.071-2.929l-31.751-31.751c-3.905-3.905-3.905-10.237,0-14.143  c3.905-3.905,10.237-3.905,14.143,0l31.751,31.751c3.905,3.905,3.905,10.237,0,14.143  C221.416,337.525,218.856,338.501,216.297,338.501z"/>
<path d="M192.356,352.442l-24.68-24.679l5.481-5.481c3.905-3.905,3.906-10.237,0-14.142c-3.905-3.906-10.237-3.905-14.142,0  l-24.367,24.367c-3.905,3.905-3.906,10.237,0,14.142c1.953,1.953,4.512,2.929,7.071,2.929s5.119-0.977,7.071-2.929l4.744-4.743  l24.68,24.68c1.953,1.953,4.512,2.929,7.071,2.929s5.119-0.977,7.071-2.929C196.262,362.679,196.262,356.347,192.356,352.442z"/>
<path d="M365.877,178.921l-24.68-24.68l5.482-5.482c3.905-3.905,3.905-10.237,0-14.142c-3.905-3.905-10.237-3.905-14.142,0  l-12.545,12.545c-0.003,0.002-0.005,0.005-0.008,0.007s-0.004,0.005-0.007,0.008l-11.807,11.807c-3.905,3.905-3.905,10.237,0,14.142  c1.953,1.953,4.512,2.929,7.071,2.929c2.559,0,5.119-0.977,7.071-2.929l4.743-4.743l24.68,24.68  c1.953,1.953,4.512,2.929,7.071,2.929c2.559,0,5.119-0.976,7.071-2.929C369.782,189.158,369.782,182.826,365.877,178.921z"/>
<path d="M237.128,310.981c-19.333,0-35.062-15.729-35.062-35.062c0-19.333,15.729-35.062,35.062-35.062c5.523,0,10,4.477,10,10  s-4.477,10-10,10c-8.305,0-15.062,6.757-15.062,15.062c0,8.305,6.756,15.062,15.062,15.062c8.306,0,15.062-6.757,15.062-15.062  c0-5.523,4.477-10,10-10c5.523,0,10,4.477,10,10C272.19,295.252,256.461,310.981,237.128,310.981z"/>
<path d="M299.17,235.688l-21.338-0.127l0.632-22.45c0.155-5.521-4.194-10.122-9.715-10.277c-5.515-0.135-10.122,4.194-10.277,9.715  l-0.268,9.517c-3.929-3.4-9.871-3.243-13.602,0.488c-3.905,3.905-3.905,10.237,0,14.143l31.751,31.751  c1.953,1.953,4.512,2.929,7.071,2.929c2.559,0,5.119-0.976,7.071-2.929c3.486-3.486,3.851-8.902,1.113-12.803l7.443,0.044  c0.021,0,0.04,0,0.061,0c5.494,0,9.966-4.438,9.999-9.94C309.143,240.225,304.693,235.721,299.17,235.688z"/>
<path d="M336.5,208.299c-3.905-3.905-10.237-3.905-14.142,0l-4.251,4.251l-1.733-1.733l4.251-4.251  c3.905-3.905,3.905-10.237,0-14.143c-3.905-3.905-10.237-3.905-14.143,0l-4.251,4.251l-1.733-1.733l4.251-4.25  c3.905-3.905,3.906-10.237,0-14.142c-3.906-3.906-10.237-3.905-14.142,0l-11.322,11.322c-1.875,1.875-2.929,4.419-2.929,7.071  c0,2.652,1.054,5.196,2.929,7.071l31.751,31.751c1.953,1.953,4.512,2.929,7.071,2.929s5.119-0.977,7.071-2.929l11.322-11.322  C340.405,218.536,340.405,212.204,336.5,208.299z"/>
<g>
</g>
<g>
</g>
<g>
</g>
<g>
</g>
<g>
</g>
<g>
</g>
<g>
</g>
<g>
</g>
<g>
</g>
<g>
</g>
<g>
</g>
<g>
</g>
<g>
</g>
<g>
</g>
<g>
</g>
</svg>
