<?xml version="1.0" encoding="iso-8859-1"?>
<!-- Generator: Adobe Illustrator 19.0.0, SVG Export Plug-In . SVG Version: 6.00 Build 0)  -->
<svg xmlns="http://www.w3.org/2000/svg" xmlns:xlink="http://www.w3.org/1999/xlink" version="1.1" id="Layer_1" x="0px" y="0px" viewBox="0 0 512 512" style="enable-background:new 0 0 512 512;" xml:space="preserve">
<polygon style="fill:#D1D3D4;" points="501.999,76.821 501.96,10.039 435.178,10 140.773,304.405 207.594,371.226 "/>
<g>
	<path style="fill:#FFB35E;" d="M127.835,337.138c-6.958,6.958-18.24,6.958-25.198,0c-8.698-8.698-8.698-22.8,0-31.498   c10.872-10.872,28.5-10.872,39.373,0l64.351,64.351c10.872,10.872,10.872,28.5,0,39.373c-8.698,8.698-22.8,8.698-31.498,0   c-6.958-6.958-6.958-18.24,0-25.198L127.835,337.138z"/>
	<circle style="fill:#FFB35E;" cx="44.341" cy="467.659" r="34.361"/>
</g>
<polyline style="fill:#F29C0B;" points="80.348,467.981 169.512,378.817 133.183,342.487 44.018,431.652 "/>
<path d="M314.185,164.093l-0.136,0.136c-3.905,3.905-3.905,10.237,0,14.144c1.953,1.953,4.512,2.929,7.071,2.929  s5.118-0.976,7.071-2.929l0.136-0.136c3.905-3.905,3.905-10.237,0-14.144C324.423,160.188,318.092,160.188,314.185,164.093z"/>
<path d="M291.91,186.371l-91.78,91.78c-3.905,3.905-3.905,10.237,0,14.144c1.953,1.953,4.512,2.929,7.071,2.929  s5.118-0.976,7.071-2.929l91.78-91.78c3.905-3.905,3.905-10.237,0-14.144C302.147,182.465,295.817,182.465,291.91,186.371z"/>
<path d="M511.999,76.815l-0.039-66.782c-0.003-5.518-4.476-9.991-9.994-9.994L435.183,0h-0.006c-2.652,0-5.195,1.054-7.071,2.929  l-288.659,288.66c-14.203-7.194-32.027-4.875-43.883,6.98c-12.583,12.584-12.583,33.057,0,45.641  c4.021,4.021,8.979,6.535,14.178,7.575l-72.029,72.029c-9.06,1.358-17.779,5.512-24.74,12.474c-17.297,17.297-17.297,45.442,0,62.74  C21.621,507.676,32.983,512,44.342,512c11.36,0,22.722-4.324,31.37-12.973l0,0c6.96-6.96,11.114-15.679,12.474-24.74l72.029-72.029  c1.04,5.197,3.554,10.156,7.575,14.178c6.291,6.291,14.556,9.437,22.82,9.437s16.529-3.146,22.82-9.437  c11.854-11.854,14.175-29.679,6.979-43.882L509.07,83.892C510.947,82.015,512.001,79.469,511.999,76.815z M75.712,436.287  c-3.904-3.904-8.365-6.918-13.126-9.06l70.596-70.597l22.187,22.187l-70.596,70.597C82.631,444.652,79.617,440.192,75.712,436.287z   M61.569,484.885L61.569,484.885c-9.498,9.499-24.953,9.499-34.453,0c-9.499-9.499-9.499-24.956,0-34.454  c4.75-4.75,10.987-7.124,17.228-7.124c6.237,0,12.478,2.375,17.227,7.124C71.068,459.929,71.068,475.385,61.569,484.885z   M199.288,402.292c-4.785,4.785-12.572,4.784-17.355,0c-3.048-3.048-3.048-8.008,0-11.056c3.905-3.905,3.905-10.237,0-14.144  l-5.343-5.343c-0.001-0.002-0.003-0.003-0.004-0.005l-36.329-36.329c-0.001-0.002-0.003-0.003-0.005-0.005l-5.344-5.344  c-1.953-1.953-4.512-2.929-7.071-2.929c-2.559,0-5.118,0.976-7.071,2.929c-3.047,3.049-8.008,3.047-11.055,0  c-4.784-4.785-4.784-12.571,0-17.356c6.951-6.951,18.263-6.955,25.22-0.01l43.044,43.044l21.316,21.317  C206.244,384.018,206.244,395.336,199.288,402.292z M207.594,357.083l-52.678-52.678L439.318,20.003l52.648,0.031l0.031,52.647  L207.594,357.083z"/>
<g>
</g>
<g>
</g>
<g>
</g>
<g>
</g>
<g>
</g>
<g>
</g>
<g>
</g>
<g>
</g>
<g>
</g>
<g>
</g>
<g>
</g>
<g>
</g>
<g>
</g>
<g>
</g>
<g>
</g>
</svg>
