<?xml version="1.0" encoding="iso-8859-1"?>
<!-- Generator: Adobe Illustrator 19.0.0, SVG Export Plug-In . SVG Version: 6.00 Build 0)  -->
<svg xmlns="http://www.w3.org/2000/svg" xmlns:xlink="http://www.w3.org/1999/xlink" version="1.1" id="Layer_1" x="0px" y="0px" viewBox="0 0 512 512" style="enable-background:new 0 0 512 512;" xml:space="preserve">
<rect x="176.9" y="10.999" style="fill:#44AD00;" width="99.994" height="65.056"/>
<rect x="129.953" y="76.055" style="fill:#2E7500;" width="181.989" height="38.971"/>
<g>
	<rect x="380.887" y="10.029" style="fill:#44AD00;" width="58.984" height="47.997"/>
	<rect x="276.894" y="22.029" style="fill:#44AD00;" width="103.993" height="23.998"/>
	<path style="fill:#44AD00;" d="M381.658,199.012l-40.769,83.987H113.602l-41.469-83.987l41.469-83.987h227.287L381.658,199.012z"/>
</g>
<path style="fill:#2E7500;" d="M381.658,199.012l-40.769,83.987H113.602l-41.469-83.987L381.658,199.012L381.658,199.012z"/>
<rect x="90.906" y="283.002" style="fill:#165DB2;" width="271.983" height="219.006"/>
<rect x="156.901" y="333.359" style="fill:#41C0F0;" width="139.991" height="129.642"/>
<path d="M296.892,411.345c-5.522,0-9.999,4.477-9.999,9.999v0.122c0,5.523,4.478,9.999,9.999,9.999s9.999-4.477,9.999-9.999v-0.122  C306.891,415.822,302.413,411.345,296.892,411.345z"/>
<path d="M296.891,441.504c-5.522,0-9.999,4.477-9.999,9.999v1.5H166.9V341.945h119.991v49.062c0,5.523,4.478,9.999,9.999,9.999  s9.999-4.477,9.999-9.999v-59.061c0-5.523-4.478-9.999-9.999-9.999H156.9c-5.522,0-9.999,4.477-9.999,9.999v131.057  c0,5.523,4.478,9.999,9.999,9.999h139.99c5.522,0,9.999-4.477,9.999-9.999v-11.499C306.89,445.981,302.412,441.504,296.891,441.504z  "/>
<path d="M227.454,66.054h-0.13c-5.522,0-9.999,4.477-9.999,9.999s4.478,9.999,9.999,9.999h0.13c5.522,0,9.999-4.477,9.999-9.999  S232.977,66.054,227.454,66.054z"/>
<path d="M439.87,0.032h-58.983c-5.522,0-9.999,4.477-9.999,9.999v2h-83.995V9.999c0-5.523-4.478-9.999-9.999-9.999h-99.994  c-5.522,0-9.999,4.477-9.999,9.999v56.054h-36.947c-5.522,0-9.999,4.477-9.999,9.999v28.972h-6.353c-3.806,0-7.281,2.16-8.966,5.573  l-41.469,83.987c-1.378,2.791-1.378,6.064,0,8.853l34.342,69.553h-6.602c-5.522,0-9.999,4.477-9.999,9.999v219.01  c0,5.523,4.478,9.999,9.999,9.999h271.977c5.522,0,9.999-4.477,9.999-9.999V282.99c0-5.523-4.478-9.999-9.999-9.999h-6.023  l33.792-69.613c1.339-2.758,1.339-5.977,0-8.733l-40.769-83.987c-1.673-3.445-5.166-5.633-8.995-5.633h-18.946V76.053  c0-5.523-4.478-9.999-9.999-9.999h-25.05V56.028h83.995v2c0,5.523,4.478,9.999,9.999,9.999h58.983c5.522,0,9.999-4.477,9.999-9.999  V10.031C449.869,4.509,445.391,0.032,439.87,0.032z M352.885,492.001H100.906V292.99h12.585c0.037,0,239.393,0,239.393,0v199.012  H352.885z M119.813,272.991l-31.591-63.98h277.467l-31.058,63.98H119.813z M365.688,189.011H88.222l31.595-63.988h10.137h181.989  h22.686L365.688,189.011z M258.573,66.054c-5.522,0-9.999,4.477-9.999,9.999s4.478,9.999,9.999,9.999h43.369v18.973h-161.99V86.053  h55.266c5.522,0,9.999-4.477,9.999-9.999s-4.478-9.999-9.999-9.999h-8.319V20.999h79.995v45.055H258.573z M286.892,36.03v-4h83.995  v4H286.892z M429.87,48.029h-38.985v-2V22.031v-2h38.985V48.029z"/>
<path d="M256.844,212.409c-15.989,0-28.998,13.008-28.998,28.998s13.009,28.998,28.998,28.998c15.989,0,28.998-13.008,28.998-28.998  S272.833,212.409,256.844,212.409z M256.844,250.406c-4.963,0-8.999-4.038-8.999-8.999c0-4.962,4.037-8.999,8.999-8.999  c4.963,0,8.999,4.038,8.999,8.999C265.844,246.369,261.807,250.406,256.844,250.406z"/>
<path d="M196.947,212.409c-15.989,0-28.998,13.008-28.998,28.998s13.009,28.998,28.998,28.998s28.998-13.008,28.998-28.998  S212.937,212.409,196.947,212.409z M196.947,250.406c-4.963,0-8.999-4.038-8.999-8.999c0-4.962,4.037-8.999,8.999-8.999  s8.999,4.038,8.999,8.999C205.946,246.369,201.91,250.406,196.947,250.406z"/>
<path d="M316.741,212.409c-15.989,0-28.998,13.008-28.998,28.998s13.009,28.998,28.998,28.998c15.989,0,28.998-13.008,28.998-28.998  S332.73,212.409,316.741,212.409z M316.741,250.406c-4.963,0-8.999-4.038-8.999-8.999c0-4.962,4.037-8.999,8.999-8.999  c4.963,0,8.999,4.038,8.999,8.999C325.741,246.369,321.704,250.406,316.741,250.406z"/>
<path d="M137.05,212.409c-15.989,0-28.998,13.008-28.998,28.998s13.009,28.998,28.998,28.998s28.998-13.008,28.998-28.998  S153.039,212.409,137.05,212.409z M137.05,250.406c-4.963,0-8.999-4.038-8.999-8.999c0-4.962,4.037-8.999,8.999-8.999  c4.963,0,8.999,4.038,8.999,8.999C146.049,246.369,142.012,250.406,137.05,250.406z"/>
<g>
</g>
<g>
</g>
<g>
</g>
<g>
</g>
<g>
</g>
<g>
</g>
<g>
</g>
<g>
</g>
<g>
</g>
<g>
</g>
<g>
</g>
<g>
</g>
<g>
</g>
<g>
</g>
<g>
</g>
</svg>
