<?xml version="1.0" encoding="iso-8859-1"?>
<!-- Generator: Adobe Illustrator 19.0.0, SVG Export Plug-In . SVG Version: 6.00 Build 0)  -->
<svg xmlns="http://www.w3.org/2000/svg" xmlns:xlink="http://www.w3.org/1999/xlink" version="1.1" id="Layer_1" x="0px" y="0px" viewBox="0 0 512 512" style="enable-background:new 0 0 512 512;" xml:space="preserve">
<g>
	<rect x="362" y="461.67" style="fill:#F29C0B;" width="84" height="40.33"/>
	<rect x="362" y="183" style="fill:#F29C0B;" width="84" height="30"/>
	<rect x="66" y="461.67" style="fill:#F29C0B;" width="84" height="40.33"/>
	<rect x="66" y="183" style="fill:#F29C0B;" width="84" height="30"/>
	<path style="fill:#F29C0B;" d="M379,183c0-67.822-55.178-123-123-123s-123,55.178-123,123H83c0-95.393,77.607-173,173-173   s173,77.607,173,173H379z"/>
</g>
<g>
	<polygon style="fill:#FFB35E;" points="374.001,408.185 374.001,461.667 434,461.667 434,213 374.001,213 374.001,346.269  "/>
	<polygon style="fill:#FFB35E;" points="78.001,408.185 78.001,461.667 138,461.667 138,213 78.001,213 78.001,346.269  "/>
</g>
<path d="M456,213v-30c0-5.523-4.478-10-10-10h-7.277C433.513,76.726,353.551,0,256,0S78.487,76.726,73.277,173H66  c-5.522,0-10,4.477-10,10v30c0,5.523,4.478,10,10,10h2.001v123.269c0,5.523,4.478,10,10,10s10-4.477,10-10V223H128v228.667H88.001  v-43.482c0-5.523-4.478-10-10-10s-10,4.477-10,10v43.482H66c-5.522,0-10,4.477-10,10V502c0,5.523,4.478,10,10,10h84  c5.522,0,10-4.477,10-10v-40.333c0-5.523-4.478-10-10-10h-2V223h2c5.522,0,10-4.477,10-10v-30c0-5.523-4.478-10-10-10h-6.552  C148.527,115.358,197.062,70,256,70s107.473,45.358,112.552,103H362c-5.522,0-10,4.477-10,10v30c0,5.523,4.478,10,10,10h2v228.667  h-2c-5.522,0-10,4.477-10,10V502c0,5.523,4.478,10,10,10h84c5.522,0,10-4.477,10-10v-40.333c0-5.523-4.478-10-10-10h-2.001v-123.27  c0-5.523-4.478-10-10-10s-10,4.477-10,10v123.27H384V223h39.999v43.482c0,5.523,4.478,10,10,10s10-4.477,10-10V223H446  C451.523,223,456,218.523,456,213z M140,492H76v-20.333h2.001H138h2V492z M433.999,471.667H436V492h-64v-20.333h2H433.999z M76,203  v-10h64v10H76z M256,50c-69.975,0-127.501,54.313-132.628,123H93.303C98.487,87.76,169.479,20,256,20s157.514,67.76,162.697,153  h-30.069C383.501,104.313,325.975,50,256,50z M372,203v-10h64v10H372z"/>
<path d="M434,287.858c-5.522,0-10,4.477-10,10v0.127c0,5.523,4.478,10,10,10s10-4.477,10-10v-0.127  C444,292.335,439.523,287.858,434,287.858z"/>
<path d="M78,386.808c5.522,0,10-4.477,10-10v-0.127c0-5.523-4.478-10-10-10s-10,4.477-10,10v0.127  C68,382.331,72.478,386.808,78,386.808z"/>
<g>
</g>
<g>
</g>
<g>
</g>
<g>
</g>
<g>
</g>
<g>
</g>
<g>
</g>
<g>
</g>
<g>
</g>
<g>
</g>
<g>
</g>
<g>
</g>
<g>
</g>
<g>
</g>
<g>
</g>
</svg>
