<?xml version="1.0" encoding="iso-8859-1"?>
<!-- Generator: Adobe Illustrator 19.0.0, SVG Export Plug-In . SVG Version: 6.00 Build 0)  -->
<svg xmlns="http://www.w3.org/2000/svg" xmlns:xlink="http://www.w3.org/1999/xlink" version="1.1" id="Layer_1" x="0px" y="0px" viewBox="0 0 512 512" style="enable-background:new 0 0 512 512;" xml:space="preserve">
<g>
	<circle style="fill:#EFEEEE;" cx="109.5" cy="41.15" r="31.15"/>
	<path style="fill:#EFEEEE;" d="M433.358,124.834c-2.667-26.834-23.933-38.85-43.782-38.85s-38.773,18.267-38.773,38.117l0,0l0,0   c-6.811,11.408-11.969,27.734-6.403,48.177c38.958,25.722,68.314-12.969,68.314-12.969l-0.522-0.297   C428.65,156.87,435.162,142.979,433.358,124.834z"/>
</g>
<path style="fill:#D1D3D4;" d="M313.082,342.767l-43.932-71.191l15.688-28.435l51.641-13.074v63.408l-25.494,56.217l-20.264,11.766  l-0.947,12.075c-0.657,8.371,8.797,13.667,15.593,8.735l23.268-16.888l35.408-62.145l6.428-82.974l-11.757-40.442l-16.675-46.377  l-63.203-36.041c-2.096-1.327-4.309-2.459-6.611-3.382L140.374,41.151v20.264l108.731,54.904  c11.648,5.882,14.376,21.306,5.451,30.826l-11.433,12.195c-6.578,7.017-12.046,14.997-16.216,23.664l-18.55,38.564l-9.624,19.96  c-12.419,25.755-2.789,56.729,22.044,70.902l0,0l34.002,37.176c8.105,8.862,6.952,22.747-2.504,30.15l-66.797,52.299l-24.186,6.537  L164.56,502h13.074l22.879-52.295L275.357,407l-0.324,95h62.754l-35.953-25.494l-1.606-34.251  c-0.236-5.026,0.31-10.059,1.619-14.918l13.095-52.02"/>
<path d="M402.521,491.999h-0.192c-5.522,0-10,4.477-10,10s4.478,10,10,10h0.192c5.522,0,10-4.477,10-10  S408.044,491.999,402.521,491.999z"/>
<path d="M443.309,123.845c-1.505-15.132-8.157-27.71-19.239-36.376c-9.471-7.406-21.721-11.484-34.494-11.484  c-24.571,0-47.02,21.251-48.667,45.301L283.98,88.822c-2.544-1.593-5.245-2.967-8.032-4.085L150.063,34.262  C146.775,14.841,129.843,0,109.5,0C86.808,0,68.348,18.46,68.348,41.151s18.46,41.151,41.151,41.151  c10.843,0,20.713-4.222,28.071-11.1l107.026,54.043c2.713,1.37,4.572,3.872,5.102,6.864c0.528,2.992-0.359,5.98-2.438,8.197  l-11.432,12.195c-7.284,7.77-13.317,16.574-17.933,26.169l-28.17,58.515c-14.401,29.867-3.542,66.032,24.687,83.103l32.988,36.068  c2.019,2.207,2.994,5.064,2.747,8.044c-0.248,2.981-1.682,5.639-4.037,7.483l-65.199,51.047l-22.229,6.008  c-4.547,1.229-7.62,5.465-7.377,10.168L154.032,492h-37.688c-5.522,0-10,4.477-10,10s4.478,10,10,10h255.479c5.522,0,10-4.477,10-10  s-4.478-10-10-10h-30.851l-29.377-20.832l-1.377-29.383c-0.188-3.998,0.244-7.983,1.285-11.848c0.014-0.053,0.027-0.106,0.041-0.159  l12.209-48.5l10.755-7.806c1.151-0.835,2.11-1.907,2.814-3.143l35.408-62.145c0.73-1.281,1.168-2.708,1.281-4.178l6.428-82.974  c0.094-1.201-0.031-2.408-0.367-3.564l-7.66-26.35c10-0.199,18.673-3.268,25.428-6.841c10.07-5.326,17.285-12.538,20.675-16.343  c7.553-2.021,12.569-5.938,15.7-9.395C441.609,150.377,444.754,138.379,443.309,123.845z M109.5,62.302  c-11.663,0-21.151-9.488-21.151-21.151S97.837,20,109.5,20c11.028,0,20.099,8.486,21.056,19.269  c-0.243,1.26-0.231,2.528,0.001,3.745C129.609,53.806,120.534,62.302,109.5,62.302z M265.067,492h-72.144l15.423-35.251  l56.952-32.496L265.067,492z M354.247,300.229l-33.231,58.324L299.77,373.97l0.51-6.5l15.728-9.131  c1.799-1.044,3.227-2.624,4.086-4.518l25.494-56.217c0.588-1.297,0.893-2.706,0.893-4.13v-63.407c0-3.084-1.424-5.997-3.857-7.891  s-5.606-2.558-8.597-1.803l-51.642,13.074c-2.684,0.679-4.965,2.44-6.302,4.864l-15.688,28.435  c-1.743,3.159-1.649,7.012,0.246,10.083l41.13,66.652l-16.07,9.331c-2.841,1.65-4.69,4.59-4.948,7.866l-0.947,12.076  c-0.611,7.808,3.253,15.036,10.085,18.863c3.065,1.717,6.402,2.567,9.723,2.567c0.091,0,0.182-0.01,0.273-0.011l-7.717,30.651  c-1.563,5.841-2.213,11.864-1.929,17.903l1.605,34.25c0.145,3.073,1.695,5.909,4.205,7.689L306.397,492h-21.33l0.29-84.966  c0.012-3.57-1.88-6.875-4.963-8.673c-3.086-1.798-6.894-1.815-9.993-0.047l-74.844,42.705c-1.868,1.066-3.343,2.707-4.205,4.677  l-17.606,40.241l-2.052-39.798l16.394-4.431c1.292-0.35,2.501-0.955,3.556-1.78l66.797-52.298  c6.692-5.24,10.935-13.104,11.639-21.575c0.703-8.471-2.184-16.927-7.921-23.198l-34.002-37.176  c-0.702-0.768-1.519-1.42-2.422-1.936c-20.184-11.52-28.087-36.941-17.993-57.874l28.178-58.533  c3.731-7.758,8.61-14.877,14.5-21.159l11.433-12.195c6.429-6.858,9.178-16.101,7.541-25.358c-1.638-9.257-7.389-16.997-15.78-21.233  l-96.768-48.864L268.504,103.3c1.732,0.695,3.409,1.553,4.985,2.551c0.13,0.082,0.262,0.161,0.395,0.237l59.837,34.122  c-2.488,11.197-2.178,22.913,1.03,34.695c0.639,2.346,2.109,4.378,4.139,5.718c3.895,2.572,7.71,4.585,11.43,6.141l10.042,34.539  L354.247,300.229z M312.332,322.51l-31.604-51.217l10.771-19.523l34.981-8.856v48.398L312.332,322.51z M353.158,165.922  c-2.238-10.915-1.101-21.369,3.36-31.196c7.136,0.542,17.928,0.843,27.557-0.991c2.989,9.82,8.69,20.335,12.822,27.253  c-2.49,2.021-5.492,4.123-8.93,5.885C376.308,172.847,364.887,172.544,353.158,165.922z M419.391,145.116  c-1.616,1.785-3.754,2.989-6.471,3.633c-6.386-11.164-11.307-22.911-10.896-26.426c0.793-3.961-0.876-8.01-4.229-10.263  c-1.686-1.133-3.631-1.699-5.576-1.699c-1.924,0-3.849,0.554-5.523,1.664c-4.064,2.693-14.517,3.339-24.015,2.995  c4.334-10.508,15.532-19.035,26.895-19.035c14.238,0,31.642,7.815,33.831,29.838C424.265,134.458,422.839,141.309,419.391,145.116z"/>
<g>
</g>
<g>
</g>
<g>
</g>
<g>
</g>
<g>
</g>
<g>
</g>
<g>
</g>
<g>
</g>
<g>
</g>
<g>
</g>
<g>
</g>
<g>
</g>
<g>
</g>
<g>
</g>
<g>
</g>
</svg>
