<?xml version="1.0" encoding="iso-8859-1"?>
<!-- Generator: Adobe Illustrator 19.0.0, SVG Export Plug-In . SVG Version: 6.00 Build 0)  -->
<svg xmlns="http://www.w3.org/2000/svg" xmlns:xlink="http://www.w3.org/1999/xlink" version="1.1" id="Layer_1" x="0px" y="0px" viewBox="0 0 512 512" style="enable-background:new 0 0 512 512;" xml:space="preserve">
<path style="fill:#AB6322;" d="M37.205,483.214L37.205,483.214c-25.028-25.028-25.028-65.606,0-90.634l196.389-196.389  l90.634,90.634L127.839,483.214C102.811,508.243,62.233,508.243,37.205,483.214z"/>
<path style="fill:#826F96;" d="M362.191,324.785L188.579,151.172c-25.071-25.071-25.071-65.721,0-90.792l31.598-31.598  c25.071-25.071,65.721-25.071,90.792,0l173.612,173.612c6.799,6.799,10.004,16.4,8.65,25.92l-12.241,86.101  c-0.5,3.516-3.262,6.28-6.779,6.779l-86.101,12.241C378.592,334.788,368.991,331.584,362.191,324.785z"/>
<polygon style="fill:#1C237A;" points="314.883,34.015 314.883,274.28 353.476,313.197 353.476,71.278 "/>
<rect x="171.262" y="264.761" transform="matrix(-0.7071 -0.7071 0.7071 -0.7071 200.6641 652.5723)" style="fill:#D98325;" width="128.444" height="39.932"/>
<path d="M491.662,195.313L360.649,64.3c-0.064-0.066-0.128-0.13-0.194-0.194l-42.404-42.404c-28.937-28.936-76.019-28.935-104.954,0  L181.498,53.3c-28.936,28.936-28.936,76.018,0,104.954l37.937,37.937L30.124,385.501c-28.892,28.892-28.892,75.903,0,104.794  C44.121,504.291,62.729,512,82.522,512s38.402-7.708,52.398-21.704l189.31-189.311l30.88,30.88  c7.635,7.635,18.081,11.881,28.766,11.881c1.878,0,3.765-0.131,5.645-0.399l86.101-12.241c7.879-1.121,14.163-7.406,15.283-15.284  l12.241-86.101C504.933,217.155,500.64,204.29,491.662,195.313z M120.757,476.134c-10.213,10.214-23.793,15.838-38.236,15.838  s-28.022-5.625-38.235-15.838l0,0c-21.083-21.084-21.083-55.389,0-76.473l131.867-131.867l76.472,76.472L120.757,476.134z   M266.787,330.105l-76.472-76.472l14.075-14.075l43.192,43.191c1.956,1.956,4.518,2.933,7.081,2.933s5.126-0.978,7.081-2.933  c3.91-3.91,3.91-10.251,0-14.161l-43.191-43.191l15.042-15.042l76.473,76.472L266.787,330.105z M353.476,149.429  c-5.531,0-10.014,4.483-10.014,10.014v6.68h-18.565V56.87l18.565,18.565v18.779c0,5.531,4.483,10.014,10.014,10.014  c5.132,0,9.357-3.863,9.939-8.839l70.735,70.735h-70.66v-6.68C363.489,153.912,359.006,149.429,353.476,149.429z M237.719,186.15  h67.151v67.151L237.719,186.15z M324.896,273.328V186.15h18.565v105.744L324.896,273.328z M195.66,67.461l31.599-31.598  c10.563-10.563,24.439-15.846,38.315-15.846c13.876,0,27.752,5.281,38.315,15.846l0.98,0.98v129.281h-87.178l-22.031-22.031  C174.533,122.965,174.533,88.589,195.66,67.461z M483.318,226.905l-12.025,84.591l-84.591,12.025  c-6.364,0.906-12.883-1.27-17.43-5.817l-5.783-5.783V186.15h90.239c0.144,0,0.284-0.016,0.427-0.021l23.346,23.346  C482.048,214.022,484.223,220.538,483.318,226.905z"/>
<path d="M363.49,126.13c0-5.531-4.483-10.014-10.014-10.014s-10.014,4.483-10.014,10.014v0.167c0,5.531,4.483,10.014,10.014,10.014  s10.014-4.483,10.014-10.014V126.13z"/>
<path d="M266.879,302.054c1.863,1.863,4.446,2.924,7.08,2.924c2.644,0,5.217-1.061,7.08-2.924c1.873-1.873,2.934-4.446,2.934-7.09  c0-2.634-1.061-5.207-2.934-7.08c-1.863-1.863-4.436-2.934-7.08-2.934c-2.634,0-5.217,1.071-7.08,2.934  c-1.863,1.873-2.934,4.446-2.934,7.08C263.945,297.608,265.017,300.181,266.879,302.054z"/>
<g>
</g>
<g>
</g>
<g>
</g>
<g>
</g>
<g>
</g>
<g>
</g>
<g>
</g>
<g>
</g>
<g>
</g>
<g>
</g>
<g>
</g>
<g>
</g>
<g>
</g>
<g>
</g>
<g>
</g>
</svg>
