<?xml version="1.0" encoding="iso-8859-1"?>
<!-- Generator: Adobe Illustrator 19.0.0, SVG Export Plug-In . SVG Version: 6.00 Build 0)  -->
<svg xmlns="http://www.w3.org/2000/svg" xmlns:xlink="http://www.w3.org/1999/xlink" version="1.1" id="Layer_1" x="0px" y="0px" viewBox="0 0 512.001 512.001" style="enable-background:new 0 0 512.001 512.001;" xml:space="preserve">
<polygon style="fill:#FFFFFF;" points="294.279,312.398 294.279,336.054 255.989,505.027 215.28,336.054 215.28,312.398 "/>
<path style="fill:#165DB2;" d="M296.283,315.667v9.982c0,7.4,4.969,14.075,12.597,16.92l92.611,30.488  c17.263,6.44,28.509,23.95,28.509,40.696V502H82v-88.246c0-16.747,11.245-34.255,28.509-40.696l92.588-30.488  c7.628-2.847,12.597-9.521,12.597-16.92v-9.982"/>
<path style="fill:#FFD0A3;" d="M154.455,128v128.596c1.217,14.613,8.976,27.624,20.725,34.749l61.095,32.076  c12.268,7.441,27.184,7.441,39.452,0l60.912-32.076c11.749-7.125,19.69-20.136,20.907-34.749V128H154.455z"/>
<g>
	<path style="fill:#64C5F2;" d="M350.674,233.975h-73.723c-4.418,0-8-3.582-8-8v-38.433c0-4.418,3.582-8,8-8h73.723   c4.418,0,8,3.582,8,8v38.433C358.674,230.394,355.092,233.975,350.674,233.975z"/>
	<path style="fill:#64C5F2;" d="M235.048,233.975h-73.723c-4.418,0-8-3.582-8-8v-38.433c0-4.418,3.582-8,8-8h73.723   c4.418,0,8,3.582,8,8v38.433C243.048,230.394,239.466,233.975,235.048,233.975z"/>
</g>
<g>
	<polygon style="fill:#826F96;" points="174.003,353.409 203.835,398.669 190.324,423.615 249.678,502 215.694,325.649  "/>
	<polygon style="fill:#826F96;" points="337.996,353.409 308.165,398.669 321.676,423.615 262.321,502 296.283,325.649  "/>
</g>
<path style="fill:#591700;" d="M388.066,10c0,0-15.571,19.464-37.371,19.464h-142.46c-46.558,0-84.301,37.743-84.301,84.301v67.913  c0,16.467,14.055,30.234,30.522,30.234v-0.294c0,0-0.007-31.533-0.007-78.783c10.507,6.942,22.515,10.69,36.052,10.69h95.769  c56.22,0,101.795-45.575,101.795-101.795V10H388.066z"/>
<polygon style="fill:#0092E0;" points="227.145,385.069 256,360.548 284.84,385.069 294.279,336.054 256,360.548 217.699,336.054   "/>
<path style="fill:#591700;" d="M349.256,128v47.646l8.871,35.972l0,0c16.467,0,29.939-13.473,29.939-29.939V41.73L349.256,128z"/>
<path d="M404.986,363.689c-0.122-0.045-0.245-0.089-0.369-0.129l-92.398-30.418c-3.612-1.405-5.937-4.331-5.937-7.492v-0.101  c0-0.014,0-0.027,0-0.041v-6.875l35.015-18.438c0.179-0.094,0.354-0.193,0.526-0.298c14.607-8.858,24.21-24.735,25.687-42.47  c0.023-0.276,0.035-0.553,0.035-0.83v-36.11c17.491-4.246,30.521-20.029,30.521-38.807V41.73V10.001c0-4.247-2.683-8.031-6.69-9.437  c-4.008-1.405-8.465-0.126-11.119,3.189c-0.126,0.157-13.031,15.711-29.562,15.711h-142.46c-51.998,0-94.301,42.303-94.301,94.301  v67.913c0,18.397,13.204,34.385,30.521,38.938v35.979c0,0.277,0.012,0.554,0.035,0.83c1.482,17.807,11.017,33.684,25.505,42.47  c0.176,0.107,0.355,0.208,0.537,0.304l35.163,18.461v6.845c0,0.016,0,0.032,0,0.049v0.095c0,3.161-2.325,6.087-5.938,7.492  l-92.375,30.418c-0.124,0.041-0.247,0.084-0.368,0.129C86.398,371.38,72,391.968,72,413.753V502c0,5.523,4.477,10,10,10h167.665  c0.006,0,0.011,0.001,0.017,0.001s0.012-0.001,0.019-0.001h12.598c0.006,0,0.012,0.001,0.019,0.001c0.006,0,0.011-0.001,0.017-0.001  H430c5.523,0,10-4.477,10-10v-88.247C440,391.967,425.601,371.379,404.986,363.689z M323.132,357.79l-23.317,35.376  c-2.029,3.079-2.199,7.024-0.443,10.266l10.443,19.282l-29.558,39.036l14.402-74.785c0-0.002,0.001-0.003,0.001-0.005l7.062-36.671  c1.171,0.614,2.387,1.174,3.663,1.65c0.122,0.045,0.245,0.089,0.368,0.129L323.132,357.79z M278.261,366.349l-5.485-4.663  l7.28-4.659L278.261,366.349z M273.917,388.908l-17.918,93.044l-17.93-93.043l17.93-15.237L273.917,388.908z M285.271,329.946  l-29.273,18.731l-29.293-18.733l-0.054-0.28l4.717,2.476c7.612,4.548,16.122,6.821,24.632,6.821c8.513,0,17.024-2.275,24.638-6.825  l4.686-2.468L285.271,329.946z M239.218,361.686l-5.496,4.67l-1.799-9.335L239.218,361.686z M164.455,211.922  c0-0.003,0-21.685,0-21.685h68.735v36.237h-68.735V211.922z M249.636,177.544c-3.283-4.423-8.527-7.307-14.446-7.307h-70.74  c0-6.465-0.001-13.557-0.001-21.211c8.193,2.991,16.905,4.499,26.052,4.499h95.769c19.159,0,37.207-4.847,52.985-13.376v30.088  h-62.446c-5.919,0-11.164,2.884-14.446,7.307c-2.022-0.589-4.156-0.91-6.365-0.91C253.79,176.634,251.657,176.956,249.636,177.544z   M278.809,190.237h68.735v36.237h-68.735V190.237z M378.066,181.679c0,7.589-4.264,14.199-10.521,17.567v-7.884  c0-0.007-0.001-0.013-0.001-0.019v-3.105c0-6.348-3.311-11.926-8.289-15.132v-45.105c0-0.527-0.053-1.04-0.131-1.544  c7.16-6.165,13.529-13.223,18.941-20.994v76.216H378.066z M133.934,181.679v-67.913c0-40.97,33.331-74.301,74.301-74.301h142.46  c10.676,0,20.005-3.669,27.371-8.092V41.73c0,50.616-41.179,91.795-91.795,91.795h-95.769c-11.193,0-21.468-3.039-30.54-9.033  c-3.071-2.029-7.008-2.207-10.25-0.464c-3.241,1.744-5.263,5.126-5.263,8.807c0,29.544,0.002,52.942,0.005,66.331  C138.279,195.59,133.934,188.934,133.934,181.679z M164.454,256.157v-9.682h70.736c9.925,0,18-8.075,18-18v-29.029  c0-1.55,1.259-2.811,2.807-2.811c1.55,0,2.812,1.261,2.812,2.811v29.029c0,9.925,8.075,18,18,18h70.736v9.682  c-1.042,11.116-6.94,20.976-15.852,26.491l-60.626,31.925c-0.179,0.094-0.354,0.193-0.527,0.298c-9.104,5.521-19.975,5.522-29.081,0  c-0.176-0.107-0.355-0.208-0.537-0.304l-60.802-31.922C171.329,277.198,165.5,267.339,164.454,256.157z M206.225,352.068  c0.124-0.041,0.247-0.084,0.369-0.13c1.276-0.476,2.492-1.036,3.665-1.651l7.099,36.837c0.001,0.003,0.001,0.006,0.002,0.01  l14.377,74.606l-29.551-39.026l10.443-19.282c1.756-3.242,1.585-7.187-0.443-10.266l-23.32-35.381L206.225,352.068z M92,413.754  c0-13.336,9.173-26.454,21.837-31.264l55.345-18.225l23.008,34.907l-10.659,19.68c-1.868,3.449-1.547,7.672,0.821,10.799  L229.563,492H92V413.754z M420,492.001H282.437l42.29-55.85c-0.942,1.981-1.235,4.271-0.716,6.532  c1.044,4.542,5.086,7.76,9.746,7.76h1.365v12.856c-4.023,1.294-6.937,5.064-6.937,9.518c0,5.523,4.477,10,10,10h62.881  c5.523,0,10-4.477,10-10c0-4.435-2.889-8.189-6.885-9.499v-12.875h1.365c4.66,0,8.702-3.219,9.746-7.76  c1.043-4.542-1.188-9.202-5.38-11.236l-35.895-17.419c-2.757-1.338-5.976-1.338-8.732,0l-35.895,17.419  c-0.819,0.397-1.561,0.898-2.22,1.476l2.476-3.27c2.368-3.127,2.689-7.35,0.821-10.799l-10.659-19.68l23.005-34.904l55.35,18.221  c12.663,4.811,21.834,17.928,21.834,31.263v78.247H420z M384.182,462.816h-4.529v-12.374h4.529V462.816z M359.653,462.816h-4.53  v-12.374h4.53V462.816z"/>
<g>
</g>
<g>
</g>
<g>
</g>
<g>
</g>
<g>
</g>
<g>
</g>
<g>
</g>
<g>
</g>
<g>
</g>
<g>
</g>
<g>
</g>
<g>
</g>
<g>
</g>
<g>
</g>
<g>
</g>
</svg>
