<?xml version="1.0" encoding="iso-8859-1"?>
<!-- Generator: Adobe Illustrator 19.0.0, SVG Export Plug-In . SVG Version: 6.00 Build 0)  -->
<svg xmlns="http://www.w3.org/2000/svg" xmlns:xlink="http://www.w3.org/1999/xlink" version="1.1" id="Layer_1" x="0px" y="0px" viewBox="0 0 512 512" style="enable-background:new 0 0 512 512;" xml:space="preserve">
<path style="fill:#E23225;" d="M334.627,345.409c0,0,73.801-48.664,73.801-152.276C408.428,93.458,345.947,10,256.141,10h-0.2  c-89.806,0-152.288,83.458-152.288,183.133c0,103.612,73.801,152.276,73.801,152.276H334.627z"/>
<path style="fill:#165DB2;" d="M294.662,303.5v22.149c0,7.4,4.769,14.075,12.09,16.92l88.885,30.488  c16.568,6.44,27.362,23.95,27.362,40.696V502H89v-88.246c0-16.747,10.792-34.255,27.362-40.696l88.863-30.488  c7.321-2.847,12.09-9.521,12.09-16.92V303.5"/>
<polygon style="fill:#FFFFFF;" points="297.208,334.673 256.127,496.026 214.949,333.026 214.949,306.026 256,317.738   297.208,306.026 "/>
<g>
	<polygon style="fill:#826F96;" points="338.355,353.409 300.204,390.333 308.894,409.24 256,491.488 297.208,334.673  "/>
	<polygon style="fill:#826F96;" points="173.772,353.409 211.923,390.333 203.233,409.24 256.127,491.488 214.918,334.673  "/>
</g>
<path style="fill:#FFD0A3;" d="M358.285,162.156c-27.814-14.532-52.173-34.802-71.518-59.244  c-36.498,30.263-82.427,49.038-133.054,50.798v94.21c1.225,14.091,9.041,26.637,20.876,33.507l61.542,30.929  c12.358,7.175,27.383,7.175,39.741,0l61.357-30.929c11.835-6.871,19.834-19.416,21.059-33.507v-85.764H358.285z"/>
<g>
	<path style="fill:#64C5F2;" d="M350.674,227.975h-73.723c-4.418,0-8-3.582-8-8v-38.433c0-4.418,3.582-8,8-8h73.723   c4.418,0,8,3.582,8,8v38.433C358.674,224.393,355.093,227.975,350.674,227.975z"/>
	<path style="fill:#64C5F2;" d="M235.048,227.975h-73.723c-4.418,0-8-3.582-8-8v-38.433c0-4.418,3.582-8,8-8h73.723   c4.418,0,8,3.582,8,8v38.433C243.048,224.393,239.467,227.975,235.048,227.975z"/>
</g>
<path d="M399.261,363.736c-0.125-0.048-0.251-0.095-0.378-0.138l-49.489-16.975c7.603-6.421,18.906-17.211,30.194-32.577  c17.719-24.122,38.841-64.68,38.841-120.913c0-51.433-15.867-99.455-44.679-135.218C343.662,20.568,301.895,0,256.141,0h-0.2  c-45.754,0-87.521,20.568-117.608,57.915c-28.812,35.763-44.68,83.785-44.68,135.218c0,56.232,21.122,96.791,38.841,120.913  c11.275,15.349,22.564,26.131,30.167,32.555l-49.544,16.998c-0.127,0.044-0.253,0.09-0.378,0.139  C92.874,371.459,79,392.027,79,413.753V502c0,5.523,4.477,10,10,10h334c5.523,0,10-4.477,10-10v-88.247  C433,392.026,419.126,371.458,399.261,363.736z M256.063,451.9l-30.59-116.409c1.191-3.089,1.843-6.406,1.843-9.843v-6.53  l4.07,2.045c7.607,4.352,16.111,6.527,24.615,6.527c8.506,0,17.012-2.176,24.62-6.53l4.041-2.037v6.524  c0,3.523,0.679,6.925,1.929,10.08L256.063,451.9z M278.952,183.542h69.336v34.433h-69.336V183.542z M276.952,163.542  c-5.847,0-11.036,2.815-14.326,7.147c-2.1-0.619-4.324-0.956-6.628-0.956c-2.302,0-4.525,0.336-6.624,0.955  c-3.29-4.332-8.479-7.146-14.326-7.146h-71.336v-0.372c44.333-3.371,86.016-19.252,121.602-46.334  c15.805,18.267,34.57,34.145,55.145,46.706L276.952,163.542L276.952,163.542z M163.712,183.542h69.336v34.433h-69.336V183.542z   M163.712,237.975h71.336c9.925,0,18-8.075,18-18v-27.841c0-1.301,1.351-2.4,2.949-2.4c1.601,0,2.954,1.099,2.954,2.4v27.841  c0,9.925,8.075,18,18,18h71.336v9.483c-1.043,10.537-6.937,19.908-15.843,25.182l-61.075,30.788  c-0.176,0.089-0.349,0.183-0.52,0.282c-9.299,5.399-20.4,5.398-29.699,0c-0.174-0.101-0.351-0.197-0.53-0.287l-61.253-30.785  c-8.785-5.208-14.609-14.578-15.655-25.179L163.712,237.975L163.712,237.975z M208.471,352.028c0.127-0.044,0.253-0.09,0.379-0.139  c0.078-0.03,0.15-0.067,0.227-0.098l7.708,29.331l-24.37-23.586L208.471,352.028z M220.56,395.487l9.868,37.553l-15.821-24.601  L220.56,395.487z M291.567,395.487l5.953,12.952l-15.821,24.601L291.567,395.487z M295.341,381.122l7.693-29.273  c0.032,0.013,0.063,0.028,0.095,0.041c0.125,0.048,0.251,0.095,0.378,0.138l16.165,5.545L295.341,381.122z M182.978,337.073  c-0.174-0.116-17.665-11.907-34.858-35.542c-22.871-31.439-34.467-67.91-34.467-108.398C113.653,94.431,174.824,20,255.941,20h0.2  c81.117,0,142.288,74.431,142.288,173.133c0,40.488-11.596,76.958-34.467,108.398c-17.129,23.547-34.553,35.338-34.855,35.541  c-0.807,0.534-1.505,1.17-2.101,1.872l-16.787-5.758c-3.381-1.377-5.556-4.319-5.556-7.537v-16.606l37.067-18.685  c0.176-0.089,0.349-0.183,0.519-0.281c14.779-8.579,24.499-24.015,26.001-41.289c0.025-0.289,0.038-0.578,0.038-0.867v-85.764  c0-3.945-2.284-7.356-5.602-8.983c-26.144-13.701-49.681-33.223-68.078-56.466c-1.67-2.11-4.121-3.458-6.798-3.739  c-2.671-0.279-5.354,0.53-7.426,2.247c-36.306,30.104-80.229,46.875-127.019,48.502c-5.384,0.188-9.652,4.606-9.652,9.994v94.209  c0,0.289,0.013,0.578,0.038,0.867c1.508,17.344,11.16,32.779,25.818,41.289c0.174,0.101,0.351,0.196,0.53,0.287l37.218,18.705  v16.581c0,3.218-2.175,6.161-5.558,7.538l-16.711,5.733C184.458,338.228,183.771,337.601,182.978,337.073z M99,413.753  c0-13.389,8.741-26.522,20.812-31.308l51.372-17.625l28.694,27.772l-5.732,12.471c-1.425,3.101-1.17,6.715,0.676,9.585L244.567,492  H99V413.753z M413,492H267.56l49.744-77.351c1.846-2.871,2.101-6.484,0.676-9.585l-5.732-12.471l28.658-27.737l51.281,17.59  C404.257,387.23,413,400.364,413,413.754L413,492L413,492z"/>
<path d="M159.447,115.514c1.626,0.993,3.424,1.465,5.199,1.465c3.371,0,6.662-1.705,8.546-4.792  c13.643-22.359,32.641-37.914,54.94-44.983c5.265-1.669,8.18-7.29,6.51-12.554c-1.668-5.265-7.291-8.182-12.554-6.51  c-26.965,8.548-49.776,27.093-65.968,53.63C153.243,106.483,154.732,112.637,159.447,115.514z"/>
<path d="M255.966,62.963h0.149c5.523,0,10-4.477,10-10s-4.477-10-10-10h-0.149c-5.523,0-10,4.477-10,10  S250.443,62.963,255.966,62.963z"/>
<path d="M398.548,431.446l-35.895-17.419c-2.757-1.338-5.976-1.338-8.732,0l-35.895,17.419c-4.192,2.035-6.424,6.695-5.38,11.236  c1.044,4.542,5.086,7.76,9.746,7.76h1.365v12.856c-4.023,1.294-6.937,5.064-6.937,9.518c0,5.523,4.477,10,10,10h62.881  c5.523,0,10-4.477,10-10c0-4.435-2.889-8.189-6.885-9.499v-12.875h1.365c4.66,0,8.702-3.219,9.746-7.76  C404.972,438.141,402.74,433.48,398.548,431.446z M348.288,450.442v12.374h-4.53v-12.374H348.288z M372.817,462.816h-4.529v-12.374  h4.529V462.816z"/>
<g>
</g>
<g>
</g>
<g>
</g>
<g>
</g>
<g>
</g>
<g>
</g>
<g>
</g>
<g>
</g>
<g>
</g>
<g>
</g>
<g>
</g>
<g>
</g>
<g>
</g>
<g>
</g>
<g>
</g>
</svg>
