<?xml version="1.0" encoding="iso-8859-1"?>
<!-- Generator: Adobe Illustrator 19.0.0, SVG Export Plug-In . SVG Version: 6.00 Build 0)  -->
<svg xmlns="http://www.w3.org/2000/svg" xmlns:xlink="http://www.w3.org/1999/xlink" version="1.1" id="Layer_1" x="0px" y="0px" viewBox="0 0 512 512" style="enable-background:new 0 0 512 512;" xml:space="preserve">
<rect x="96" y="310.04" style="fill:#165DB2;" width="319.99" height="191.96"/>
<rect x="166" y="381" style="fill:#41C0F0;" width="180" height="60"/>
<rect x="96" y="10" style="fill:#FFFFFF;" width="320" height="300.04"/>
<rect x="186" y="256.13" style="fill:#1C237A;" width="140" height="53.915"/>
<path style="fill:#D1D3D4;" d="M255.999,75.168L255.999,75.168c-45.287,0-82,36.713-82,82V183c0,16.342,13.248,29.589,29.589,29.589  h8.409v26.079c0,9.642,7.816,17.458,17.458,17.458h53.086c9.642,0,17.458-7.816,17.458-17.458V212.59h8.409  c16.342,0,29.589-13.248,29.589-29.589v-25.832C337.999,111.881,301.287,75.168,255.999,75.168z"/>
<g>
	<circle style="fill:#808285;" cx="220.5" cy="160.42" r="19"/>
	<circle style="fill:#808285;" cx="291.5" cy="160.42" r="19"/>
</g>
<path d="M416,56.517c-5.523,0-10,4.477-10,10v0.352c0,5.523,4.477,10,10,10s10-4.477,10-10v-0.352  C426,60.994,421.523,56.517,416,56.517z"/>
<path d="M415.998,87c-5.523,0-10,4.477-10,10v203.042H336v-43.915c0-5.523-4.477-10-10-10h-17.038  c0.671-2.374,1.038-4.873,1.038-7.458v-16.111c21.095-0.838,37.999-18.261,37.999-39.557v-25.832c0-50.729-41.271-92-92-92  s-92,41.271-92,92V183c0,21.296,16.904,38.719,37.999,39.557v16.111c0,2.585,0.367,5.085,1.038,7.458h-17.035  c-5.523,0-10,4.477-10,10v43.914h-70L106,20h299.997v16.688c0,5.523,4.478,10,10,10c5.523,0,10-4.478,10-10V10  c0-5.523-4.477-10-10-10H96c-2.652,0-5.196,1.054-7.071,2.929S86,7.348,86,10l0.001,300.042c0,0.02,0.003,0.039,0.003,0.058V502  c0,5.523,4.477,10,10,10h319.994c5.523,0,10-4.477,10-10V310.052c0-0.003,0-0.006,0-0.01V97C425.998,91.478,421.521,87,415.998,87z   M221.998,238.669v-26.08c0-5.523-4.477-10-10-10h-8.409C192.787,202.589,184,193.801,184,183v-25.832c0-39.701,32.299-72,72-72  s72,32.299,72,72V183c0,10.801-8.788,19.589-19.589,19.589h-8.409c-5.523,0-10,4.477-10,10v26.08c0,4.113-3.346,7.458-7.458,7.458  h-2.542v-21.794c0-5.523-4.477-10-10-10s-10,4.477-10,10v21.794h-8v-21.794c0-5.523-4.477-10-10-10s-10,4.477-10,10v21.794h-2.544  C225.344,246.127,221.998,242.782,221.998,238.669z M196.001,266.127h120v33.915h-120V266.127z M106.004,492V320.042h299.994V492  H106.004z"/>
<path d="M273.895,391h0.211c5.523,0,10-4.477,10-10s-4.477-10-10-10h-0.211c-5.523,0-10,4.477-10,10S268.372,391,273.895,391z"/>
<path d="M346.001,371h-39.492c-5.523,0-10,4.477-10,10s4.477,10,10,10h29.492v40h-160v-40h63c5.523,0,10-4.477,10-10  s-4.477-10-10-10h-73c-5.523,0-10,4.477-10,10v60c0,5.523,4.477,10,10,10h180c5.523,0,10-4.477,10-10v-60  C356.001,375.478,351.524,371,346.001,371z"/>
<path d="M249.498,160.417c0-15.991-13.009-29-29-29s-29,13.009-29,29s13.009,29,29,29S249.498,176.408,249.498,160.417z   M220.498,169.417c-4.962,0-9-4.038-9-9s4.038-9,9-9s9,4.038,9,9S225.461,169.417,220.498,169.417z"/>
<path d="M291.503,189.417c15.991,0,29-13.009,29-29s-13.009-29-29-29s-29,13.009-29,29S275.512,189.417,291.503,189.417z   M291.503,151.417c4.962,0,9,4.038,9,9s-4.038,9-9,9s-9-4.038-9-9S286.541,151.417,291.503,151.417z"/>
<g>
</g>
<g>
</g>
<g>
</g>
<g>
</g>
<g>
</g>
<g>
</g>
<g>
</g>
<g>
</g>
<g>
</g>
<g>
</g>
<g>
</g>
<g>
</g>
<g>
</g>
<g>
</g>
<g>
</g>
</svg>
