<?xml version="1.0" encoding="iso-8859-1"?>
<!-- Generator: Adobe Illustrator 19.0.0, SVG Export Plug-In . SVG Version: 6.00 Build 0)  -->
<svg xmlns="http://www.w3.org/2000/svg" xmlns:xlink="http://www.w3.org/1999/xlink" version="1.1" id="Layer_1" x="0px" y="0px" viewBox="0 0 512 512" style="enable-background:new 0 0 512 512;" xml:space="preserve">
<rect x="10" y="67" style="fill:#EFEEEE;" width="492" height="64"/>
<g>
	<rect x="31.397" y="131" style="fill:#826F96;" width="96" height="36"/>
	<rect x="381.59" y="131" style="fill:#826F96;" width="96" height="36"/>
	<rect x="208.13" y="131" style="fill:#826F96;" width="96" height="36"/>
</g>
<rect x="10" y="313" style="fill:#165DB2;" width="140" height="132"/>
<rect x="40" y="343" style="fill:#41C0F0;" width="80" height="72"/>
<rect x="186" y="313" style="fill:#165DB2;" width="140" height="132"/>
<rect x="216" y="343" style="fill:#97CD44;" width="80" height="72"/>
<rect x="362" y="313" style="fill:#165DB2;" width="140" height="132"/>
<rect x="392" y="343" style="fill:#F277AF;" width="80" height="72"/>
<path d="M502,57H153.674c-5.523,0-10,4.477-10,10s4.477,10,10,10H492v44h-14.412h-96h-77.461h-96h-80.73h-96H20V77h57.809  c5.523,0,10-4.477,10-10s-4.477-10-10-10H10C4.477,57,0,61.477,0,67v64c0,5.523,4.477,10,10,10h11.397v26c0,5.523,4.477,10,10,10  H47.07l-22.413,56.636c-2.032,5.135,0.483,10.946,5.619,12.978c5.135,2.033,10.946-0.483,12.978-5.619L68.579,177h21.636  l26.083,65.912c1.554,3.928,5.319,6.323,9.301,6.323c1.224,0,2.469-0.226,3.677-0.704c5.135-2.032,7.651-7.843,5.619-12.978  L111.724,177h15.673c5.523,0,10-4.477,10-10v-26h60.73v26c0,5.523,4.477,10,10,10H223.8l-22.413,56.636  c-2.032,5.135,0.483,10.946,5.619,12.978c5.137,2.033,10.946-0.483,12.978-5.619L245.31,177h21.635l26.083,65.912  c1.554,3.928,5.319,6.323,9.301,6.323c1.224,0,2.469-0.226,3.677-0.704c5.135-2.032,7.651-7.843,5.619-12.978L288.454,177h15.673  c5.523,0,10-4.477,10-10v-26h57.461v26c0,5.523,4.477,10,10,10h15.673l-22.413,56.636c-2.032,5.135,0.483,10.946,5.619,12.978  c5.136,2.033,10.946-0.483,12.978-5.619L418.771,177h21.635l26.083,65.912c1.554,3.928,5.319,6.323,9.301,6.323  c1.224,0,2.469-0.226,3.677-0.704c5.135-2.032,7.651-7.843,5.619-12.978L461.915,177h15.673c5.523,0,10-4.477,10-10v-26H502  c5.523,0,10-4.477,10-10V67C512,61.477,507.523,57,502,57z M117.397,157H97.012h-35.23H41.397v-16h76V157z M294.127,157h-20.385  h-35.23h-20.385v-16h76V157z M467.588,157h-20.385h-35.23h-20.385v-16h76L467.588,157L467.588,157z"/>
<path d="M114.157,77h0.1c5.523,0,9.95-4.477,9.95-10s-4.527-10-10.05-10s-10,4.477-10,10S108.634,77,114.157,77z"/>
<path d="M135.399,274.003c1.209,0,2.44-0.221,3.634-0.688c5.145-2.009,7.687-7.808,5.679-12.952l-0.028-0.071  c-2.008-5.144-7.792-7.65-12.938-5.643c-5.145,2.009-7.673,7.843-5.665,12.988C127.624,271.587,131.4,274.003,135.399,274.003z"/>
<path d="M23.387,273.972c4.001,0,7.788-2.424,9.338-6.37c2.02-5.141-0.511-10.945-5.651-12.964  c-5.138-2.019-10.944,0.51-12.964,5.651l-0.021,0.055c-2.02,5.141,0.521,10.917,5.662,12.937  C20.945,273.75,22.176,273.972,23.387,273.972z"/>
<path d="M312.13,274.002c1.229,0,2.478-0.228,3.689-0.709c5.133-2.039,7.641-7.853,5.602-12.985l-0.028-0.071  c-2.039-5.133-7.837-7.605-12.971-5.566c-5.133,2.039-7.626,7.888-5.587,13.021C304.392,271.613,308.153,274.002,312.13,274.002z"/>
<path d="M200.117,273.972c4.001,0,7.788-2.424,9.338-6.37c2.02-5.141-0.511-10.945-5.651-12.964  c-5.139-2.019-10.945,0.51-12.964,5.651l-0.021,0.055c-2.02,5.141,0.521,10.917,5.662,12.937  C197.675,273.75,198.906,273.972,200.117,273.972z"/>
<path d="M485.592,274.002c1.229,0,2.478-0.228,3.689-0.709c5.133-2.039,7.641-7.853,5.602-12.985l-0.028-0.071  c-2.039-5.133-7.837-7.605-12.971-5.566c-5.133,2.039-7.626,7.888-5.587,13.021C477.853,271.613,481.614,274.002,485.592,274.002z"/>
<path d="M373.579,273.972c4.001,0,7.788-2.424,9.338-6.37c2.02-5.141-0.511-10.945-5.651-12.964  c-5.139-2.019-10.945,0.51-12.964,5.651l-0.021,0.055c-2.02,5.141,0.521,10.917,5.662,12.937  C371.137,273.75,372.367,273.972,373.579,273.972z"/>
<path d="M150,303H10c-5.523,0-10,4.477-10,10v132c0,5.523,4.477,10,10,10h140c5.523,0,10-4.477,10-10V313  C160,307.477,155.523,303,150,303z M20,337.109l10,10v63.781l-10,10V337.109z M50,405v-52h60v52H50z M115.876,333H44.124l-10-10  h91.752L115.876,333z M44.124,425h71.752l10,10H34.124L44.124,425z M130,410.891V347.11l10-10v83.781L130,410.891z"/>
<path d="M326,303H186c-5.523,0-10,4.477-10,10v132c0,5.523,4.477,10,10,10h140c5.523,0,10-4.477,10-10V313  C336,307.477,331.523,303,326,303z M196,337.099l10,10v63.802l-10,10V337.099z M226,405v-52h60v52H226z M291.882,333h-71.763l-10-10  h91.763L291.882,333z M220.118,425h71.763l10,10h-91.763L220.118,425z M306,410.901v-63.802l10-10v83.802L306,410.901z"/>
<path d="M502,303H362c-5.523,0-10,4.477-10,10v132c0,5.523,4.477,10,10,10h140c5.523,0,10-4.477,10-10V313  C512,307.477,507.523,303,502,303z M372,337.119l10,10v63.762l-10,10V337.119z M402,405v-52h60v52H402z M467.871,333H396.13l-10-10  h91.741L467.871,333z M396.129,425h71.741l10,10h-91.741L396.129,425z M482,410.881v-63.762l10-10v83.762L482,410.881z"/>
<g>
</g>
<g>
</g>
<g>
</g>
<g>
</g>
<g>
</g>
<g>
</g>
<g>
</g>
<g>
</g>
<g>
</g>
<g>
</g>
<g>
</g>
<g>
</g>
<g>
</g>
<g>
</g>
<g>
</g>
</svg>
