<?xml version="1.0" encoding="iso-8859-1"?>
<!-- Generator: Adobe Illustrator 19.0.0, SVG Export Plug-In . SVG Version: 6.00 Build 0)  -->
<svg xmlns="http://www.w3.org/2000/svg" xmlns:xlink="http://www.w3.org/1999/xlink" version="1.1" id="Layer_1" x="0px" y="0px" viewBox="0 0 512 512" style="enable-background:new 0 0 512 512;" xml:space="preserve">
<g>
	<rect x="126" y="448" style="fill:#165DB2;" width="32" height="54"/>
	<rect x="354" y="448" style="fill:#165DB2;" width="32" height="54"/>
</g>
<rect x="10" y="48.04" style="fill:#F29C0B;" width="192" height="166.96"/>
<rect x="55.04" y="87" style="fill:#41C0F0;" width="101.92" height="88"/>
<rect x="256" y="10" style="fill:#F29C0B;" width="246" height="296"/>
<rect x="300.7" y="48.04" style="fill:#F277AF;" width="156.59" height="219.93"/>
<path style="fill:#E23225;" d="M290.25,368H394c25.405,0,46,20.595,46,46v34H72v-34c0-25.405,20.595-46,46-46h102.25H290.25z"/>
<path d="M394,358H290.25c-5.522,0-10,4.477-10,10s4.478,10,10,10H394c19.851,0,36,16.149,36,36v24h-44h-32H158h-32H82v-24  c0-19.851,16.149-36,36-36h102.25c5.522,0,10-4.477,10-10s-4.478-10-10-10H118c-30.879,0-56,25.122-56,56v34c0,5.523,4.478,10,10,10  h44v44c0,5.523,4.478,10,10,10h32c5.522,0,10-4.477,10-10v-44h176v44c0,5.523,4.478,10,10,10h32c5.522,0,10-4.477,10-10v-44h44  c5.522,0,10-4.477,10-10v-34C450,383.122,424.879,358,394,358z M148,492h-12v-34h12V492z M376,492h-12v-34h12V492z"/>
<path d="M256.127,378c5.522,0,10-4.477,10-10s-4.478-10-10-10H256c-5.522,0-10,4.477-10,10s4.478,10,10,10H256.127z"/>
<path d="M511.997,9.931C511.96,4.518,507.41,0,502,0H256.127c-5.522,0-10,4.477-10,10v296c0,5.523,4.478,10,10,10H502  c5.522,0,10-4.477,10-10V10C512,9.977,511.997,9.954,511.997,9.931C511.995,9.716,511.997,9.954,511.997,9.931z M266.127,31.612  l24.704,20.98v210.749l-24.704,21.02V31.612z M453.622,37.965h-23.289c-5.522,0-10,4.477-10,10s4.478,10,10,10h16.963v199.998  H310.831V57.965H367c5.522,0,10-4.477,10-10s-4.478-10-10-10h-62.495L283.351,20h191.426L453.622,37.965z M304.51,277.963h149.107  L474.815,296H283.312L304.51,277.963z M467.296,263.342V52.593L492,31.612v252.749L467.296,263.342z"/>
<path d="M398.583,37.963h-0.184c-5.522,0-10,4.477-10,10s4.478,10,10,10h0.184c5.522,0,10-4.477,10-10  S404.105,37.963,398.583,37.963z"/>
<path d="M212,215V47c0-5.523-4.478-10-10-10H10C4.478,37,0,41.477,0,47v168c0,5.523,4.478,10,10,10h192  C207.522,225,212,220.523,212,215z M20,69.281l24.962,22.207v79.024L20,192.719V69.281z M153.162,77H58.766l-22.48-20h139.396  L153.162,77z M146.962,97v68h-82V97H146.962z M58.766,185h94.396l22.519,20H36.285L58.766,185z M166.962,170.507V91.493L192,69.256  v123.488L166.962,170.507z"/>
<g>
</g>
<g>
</g>
<g>
</g>
<g>
</g>
<g>
</g>
<g>
</g>
<g>
</g>
<g>
</g>
<g>
</g>
<g>
</g>
<g>
</g>
<g>
</g>
<g>
</g>
<g>
</g>
<g>
</g>
</svg>
