<?xml version="1.0" encoding="iso-8859-1"?>
<!-- Generator: Adobe Illustrator 19.0.0, SVG Export Plug-In . SVG Version: 6.00 Build 0)  -->
<svg xmlns="http://www.w3.org/2000/svg" xmlns:xlink="http://www.w3.org/1999/xlink" version="1.1" id="Layer_1" x="0px" y="0px" viewBox="0 0 512 512" style="enable-background:new 0 0 512 512;" xml:space="preserve">
<path style="fill:#1C237A;" d="M10.051,502h246.011c8.284,0,15-6.716,15-15V303.086h-30V472H10.051V502z"/>
<polygon style="fill:#165DB2;" points="68.808,170.338 394.123,358.671 481.123,207.983 155.808,19.65 140.354,46.417 "/>
<rect x="78.718" y="19.598" transform="matrix(-0.866 -0.5 0.5 -0.866 137.48 208.8225)" style="fill:#1C237A;" width="35.999" height="132.787"/>
<rect x="11.86" y="34.998" transform="matrix(-0.5 0.866 -0.866 -0.5 139.8836 45.2351)" style="fill:#165DB2;" width="90.048" height="55.999"/>
<path style="fill:#41C0F0;" d="M405.449,339.053c30.777,17.769,70.13,7.224,87.899-23.553s7.224-70.13-23.553-87.899  L405.449,339.053z"/>
<path d="M127.383,78.869c-1.696,0-3.414-0.432-4.989-1.34c-4.783-2.76-6.424-8.876-3.664-13.66l0.115-0.2  c2.761-4.783,8.875-6.423,13.66-3.664c4.783,2.76,6.424,8.876,3.664,13.66l-0.115,0.2C134.202,77.074,130.84,78.869,127.383,78.869z  "/>
<circle style="fill:#1C237A;" cx="256.09" cy="273.639" r="31.776"/>
<path d="M278.415,260.354c-2.596,0-5.189-1.004-7.148-3.006l-0.059-0.06c-3.892-3.912-3.888-10.245,0.019-14.142  s10.224-3.9,14.125,0l0.21,0.213c3.863,3.947,3.794,10.279-0.154,14.141C283.463,259.406,280.938,260.354,278.415,260.354z"/>
<path d="M483.11,224.54l6.672-11.557c2.759-4.779,1.125-10.89-3.65-13.654L160.818,10.996c-2.297-1.33-5.028-1.691-7.593-1.006  c-2.564,0.685-4.75,2.362-6.078,4.661l-5.303,9.185l-22.517-13c-2.297-1.326-5.025-1.685-7.588-0.999  c-2.562,0.687-4.746,2.362-6.072,4.659l-5.684,9.845l-39.837-23c-4.781-2.761-10.898-1.123-13.66,3.66L1.461,82.988  c-1.326,2.297-1.686,5.026-0.999,7.588s2.362,4.746,4.659,6.072l39.838,23l-5.684,9.846c-2.762,4.783-1.123,10.899,3.66,13.66  l22.517,13l-5.303,9.185c-2.759,4.779-1.126,10.89,3.65,13.654l151.044,87.443c-0.379,2.276-0.583,4.609-0.583,6.986  c0,13.712,6.607,25.908,16.803,33.578v155H10.051c-5.523,0-10,4.477-10,10s4.477,10,10,10h231.011c5.523,0,10-4.477,10-10V315.087  c1.704,0.211,3.436,0.333,5.197,0.333c1.621,0,3.222-0.105,4.803-0.29V487c0,2.757-2.243,5-5,5H10.051c-5.523,0-10,4.477-10,10  s4.477,10,10,10h246.011c13.785,0,25-11.215,25-25V307.225c0.615-0.452,1.215-0.923,1.805-1.408l106.245,61.508  c1.536,0.889,3.266,1.346,5.011,1.346c0.864,0,1.732-0.112,2.582-0.339c2.564-0.686,4.75-2.362,6.078-4.661l6.662-11.539  c9.092,3.731,18.616,5.527,28.053,5.527c25.712,0,50.757-13.336,64.511-37.159C520.81,287.936,512.079,246.925,483.11,224.54z   M23.781,84.328l35.026-60.667l31.177,18l-35.026,60.667L23.781,84.328z M390.468,345.001l-95.515-55.296  c1.354-3.189,2.333-6.579,2.855-10.124c0.805-5.464-2.972-10.545-8.436-11.35c-5.458-0.808-10.545,2.971-11.35,8.436  c-1.575,10.691-10.931,18.754-21.764,18.754c-12.13,0-21.999-9.868-22-21.998c0-10.786,7.703-19.909,18.314-21.692  c5.447-0.916,9.12-6.073,8.204-11.52s-6.073-9.119-11.52-8.204c-10.891,1.831-20.173,7.705-26.438,15.938L82.462,166.689  l41.177-71.321c2.762-4.783,1.123-10.899-3.66-13.66c-4.782-2.76-10.899-1.123-13.66,3.66L75.45,138.834l-13.856-8l56.395-97.679  l13.857,8l-0.151,0.262c-2.762,4.783-1.123,10.899,3.66,13.66c4.784,2.762,10.9,1.123,13.66-3.66l10.448-18.096l308.006,178.312  L390.468,345.001z M484.689,310.5c-13.275,22.993-40.927,32.604-65.11,24.08l53.409-92.507  C492.461,258.754,497.963,287.507,484.689,310.5z"/>
<g>
</g>
<g>
</g>
<g>
</g>
<g>
</g>
<g>
</g>
<g>
</g>
<g>
</g>
<g>
</g>
<g>
</g>
<g>
</g>
<g>
</g>
<g>
</g>
<g>
</g>
<g>
</g>
<g>
</g>
</svg>
