<?xml version="1.0" encoding="iso-8859-1"?>
<!-- Generator: Adobe Illustrator 19.0.0, SVG Export Plug-In . SVG Version: 6.00 Build 0)  -->
<svg xmlns="http://www.w3.org/2000/svg" xmlns:xlink="http://www.w3.org/1999/xlink" version="1.1" id="Layer_1" x="0px" y="0px" viewBox="0 0 512 512" style="enable-background:new 0 0 512 512;" xml:space="preserve">
<g>
	<path style="fill:#165DB2;" d="M349,106H163c-18.225,0-33,14.775-33,33v330c0,18.225,14.775,33,33,33h186c18.225,0,33-14.775,33-33   V139C382,120.775,367.225,106,349,106z"/>
	<rect x="273.75" y="69.08" style="fill:#165DB2;" width="68.27" height="36.917"/>
	<rect x="163" y="79" style="fill:#165DB2;" width="40.33" height="27"/>
</g>
<circle style="fill:#41C0F0;" cx="256.13" cy="235.83" r="96"/>
<path d="M352.016,96.118V69.083c0-5.523-4.478-10-10-10H316.25V10c0-5.523-4.478-10-10-10s-10,4.477-10,10v49.083h-22.5  c-5.522,0-10,4.477-10,10V96h-50.417V79c0-5.523-4.478-10-10-10H163c-5.522,0-10,4.477-10,10v18.186  c-18.901,4.521-33,21.547-33,41.814v330c0,23.71,19.29,43,43,43h186c23.71,0,43-19.29,43-43V139  C392,116.304,374.322,97.672,352.016,96.118z M283.75,79.083h48.266V96H283.75V79.083z M173,89h20.333v7H173V89z M372,469  c0,12.682-10.317,23-23,23H163c-12.683,0-23-10.318-23-23V139c0-12.682,10.317-23,23-23h186c12.683,0,23,10.318,23,23V469z"/>
<path d="M181.173,160.875c-16.448,16.448-26.832,37.29-30.03,60.271c-3.092,22.223,1.038,45.286,11.628,64.941  c2.62,4.862,8.688,6.68,13.547,4.06c4.862-2.62,6.68-8.685,4.061-13.547c-17.863-33.152-11.721-74.925,14.938-101.583  c33.531-33.533,88.091-33.531,121.622,0c16.244,16.243,25.189,37.84,25.189,60.811c0,22.972-8.945,44.568-25.189,60.812  c-26.658,26.659-68.432,32.802-101.584,14.937c-4.865-2.621-10.928-0.802-13.547,4.06c-2.62,4.862-0.803,10.927,4.059,13.547  c15.4,8.298,32.89,12.63,50.431,12.63c4.847,0,9.701-0.331,14.512-1c22.982-3.198,43.824-13.582,60.272-30.03  c20.021-20.021,31.047-46.64,31.047-74.954c0-28.313-11.026-54.933-31.047-74.954C289.75,119.547,222.503,119.546,181.173,160.875z"/>
<path d="M181.115,296.694c-3.905,3.905-3.905,10.237,0,14.143c1.953,1.953,4.512,2.929,7.071,2.929s5.118-0.976,7.071-2.929  l0.063-0.063c3.905-3.905,3.874-10.206-0.031-14.111C191.383,292.757,185.021,292.79,181.115,296.694z"/>
<path d="M333.913,358.343H210.746c-5.522,0-10,4.477-10,10s4.478,10,10,10h123.167c5.522,0,10-4.477,10-10  S339.436,358.343,333.913,358.343z"/>
<path d="M178.218,358.343h-0.131c-5.522,0-10,4.477-10,10s4.478,10,10,10h0.131c5.522,0,10-4.477,10-10  S183.74,358.343,178.218,358.343z"/>
<path d="M333.913,402.322H210.746c-5.522,0-10,4.477-10,10s4.478,10,10,10h123.167c5.522,0,10-4.477,10-10  S339.436,402.322,333.913,402.322z"/>
<path d="M178.218,402.322h-0.131c-5.522,0-10,4.477-10,10s4.478,10,10,10h0.131c5.522,0,10-4.477,10-10  S183.74,402.322,178.218,402.322z"/>
<path d="M333.913,446.302H210.746c-5.522,0-10,4.477-10,10s4.478,10,10,10h123.167c5.522,0,10-4.477,10-10  S339.436,446.302,333.913,446.302z"/>
<path d="M178.218,446.302h-0.131c-5.522,0-10,4.477-10,10s4.478,10,10,10h0.131c5.522,0,10-4.477,10-10  S183.74,446.302,178.218,446.302z"/>
<g>
</g>
<g>
</g>
<g>
</g>
<g>
</g>
<g>
</g>
<g>
</g>
<g>
</g>
<g>
</g>
<g>
</g>
<g>
</g>
<g>
</g>
<g>
</g>
<g>
</g>
<g>
</g>
<g>
</g>
</svg>
