<?xml version="1.0" encoding="iso-8859-1"?>
<!-- Generator: Adobe Illustrator 19.0.0, SVG Export Plug-In . SVG Version: 6.00 Build 0)  -->
<svg xmlns="http://www.w3.org/2000/svg" xmlns:xlink="http://www.w3.org/1999/xlink" version="1.1" id="Layer_1" x="0px" y="0px" viewBox="0 0 511.999 511.999" style="enable-background:new 0 0 511.999 511.999;" xml:space="preserve">
<polygon style="fill:#64C5F2;" points="235.319,50.998 10,460.998 392,460.998 "/>
<polygon style="fill:#0092E0;" points="235.319,50.998 502,380.986 392,460.998 "/>
<path d="M198.002,197.126c-4.023,0-7.816-2.445-9.341-6.427l-0.145-0.377c-1.975-5.158,0.605-10.94,5.763-12.915  c5.156-1.973,10.94,0.605,12.915,5.763l0.145,0.377c1.975,5.158-0.605,10.94-5.763,12.915  C200.4,196.912,199.19,197.126,198.002,197.126z"/>
<path d="M509.777,374.7L243.096,44.712c-0.006,0.002-0.011,0.002-0.017,0.004c-1.719-2.123-4.257-3.501-7.074-3.695  c-3.885-0.26-7.574,1.747-9.45,5.16l-225.319,410c-1.702,3.098-1.643,6.865,0.156,9.908c1.8,3.042,5.072,4.909,8.607,4.909h92.564  c0.011,0,0.021,0.002,0.032,0.002c0.01,0,0.02-0.002,0.03-0.002h20.215c0.026,0,0.052,0.003,0.077,0.003  c0.021,0,0.043-0.003,0.065-0.003h72.187c0.011,0,0.021,0.002,0.032,0.002c0.01,0,0.02-0.002,0.03-0.002h17.304  c0.026,0,0.052,0.003,0.077,0.003c0.021,0,0.043-0.003,0.065-0.003H392l0,0c2.089,0,4.153-0.656,5.881-1.913l110-80.012  c2.217-1.612,3.674-4.063,4.032-6.779C512.272,379.577,511.5,376.831,509.777,374.7z M368.104,260.197l22.623,57.427l-72.191-76.878  l-18.974-49.651L368.104,260.197z M281.899,450.998h-62.406l-3.026-7.918l40.278-73.291l28.622,74.899L281.899,450.998z   M129.799,450.998l-4.218-11.038l40.282-73.278l28.616,74.883l-5.184,9.433L129.799,450.998L129.799,450.998z M127.873,267.273  l28.629,74.916l-40.282,73.278l-28.625-74.904L127.873,267.273z M300.29,249.027l-40.277,73.289l-28.609-74.864l40.281-73.277  L300.29,249.027z M247.385,345.295l-40.278,73.291l-28.615-74.879l40.282-73.279L247.385,345.295z M269.373,346.81l40.277-73.289  l28.622,74.898l-40.277,73.289L269.373,346.81z M345.829,203.651l3.717,9.436l-67.639-68.191l-2.068-5.41l-12.678-33.177  L345.829,203.651z M233.684,74.735l28.641,74.948l-40.281,73.277l-4.932-12.905c-1.972-5.159-7.754-7.745-12.91-5.771  c-5.159,1.972-7.743,7.752-5.771,12.911l10.983,28.741l-40.282,73.279l-28.631-74.92L233.684,74.735z M74.968,363.542l28.623,74.901  l-6.902,12.555H26.906L74.968,363.542z M309.189,450.998l-1.833-4.796l40.277-73.289l2.277,5.958l27.563,72.127H309.189z   M396.678,445.229l-59.315-155.216l73.192,77.944l20.57,52.217L396.678,445.229z M447.833,408.02l-0.248-0.63l0.452,0.482  L447.833,408.02z M464.339,396.014l-36.582-38.957l-23.996-60.913l82.933,83.61L464.339,396.014z"/>
<path d="M418.688,449.666c-2.917,0-5.808-1.27-7.783-3.715l-66.083-81.771c-3.472-4.295-2.804-10.592,1.492-14.063  c4.294-3.472,10.592-2.804,14.063,1.492l66.083,81.771c3.472,4.295,2.804,10.592-1.492,14.063  C423.118,448.939,420.895,449.666,418.688,449.666z"/>
<g>
</g>
<g>
</g>
<g>
</g>
<g>
</g>
<g>
</g>
<g>
</g>
<g>
</g>
<g>
</g>
<g>
</g>
<g>
</g>
<g>
</g>
<g>
</g>
<g>
</g>
<g>
</g>
<g>
</g>
</svg>
