<?xml version="1.0" encoding="iso-8859-1"?>
<!-- Generator: Adobe Illustrator 19.0.0, SVG Export Plug-In . SVG Version: 6.00 Build 0)  -->
<svg xmlns="http://www.w3.org/2000/svg" xmlns:xlink="http://www.w3.org/1999/xlink" version="1.1" id="Layer_1" x="0px" y="0px" viewBox="0 0 511.998 511.998" style="enable-background:new 0 0 511.998 511.998;" xml:space="preserve">
<path style="fill:#F29C0B;" d="M130.228,168.098v140.357c0,23.83,7.052,47.127,20.267,66.957l0,0  c19.914,29.883,33.017,63.776,38.38,99.284l4.124,27.303h125.998l7-36.872c5.777-30.433,17.273-59.494,33.878-85.644l3.083-4.855  c12.287-19.351,18.812-41.798,18.812-64.72V168.099"/>
<path style="fill:#E23225;" d="M292.231,152.672v123.662h0.113c25.286,0,45.784-20.499,45.784-45.784l0,0  c0-21.439,10.901-41.405,28.935-52.999l14.705-9.453l-22.571-96.411c-5.74-24.518-24.286-44.016-48.484-50.978l-20.379-5.863  c-22.436-6.455-46.237-6.455-68.673,0l-20.379,5.863c-24.199,6.962-42.744,26.462-48.484,50.978l-22.572,96.411l14.705,9.453  c18.034,11.593,28.935,31.561,28.935,52.999l0,0c0,25.286,20.499,45.784,45.784,45.784l0,0v-124.02"/>
<path style="fill:#FAB617;" d="M208.472,89.832V72.694c0,0,26.693-10.822,47.526-10.822s47.56,10.822,47.56,10.822v17.139v34.469  c0,0-7.605,32.224-33.974,40.842V242.5c0,7.504-6.083,13.587-13.588,13.587c-7.505,0-13.588-6.083-13.588-13.587v-77.356  c-26.36-8.62-33.94-40.842-33.94-40.842v-34.47H208.472z"/>
<path d="M391.769,168.131v-0.034h-0.001c0-0.756-0.085-1.521-0.262-2.28l-22.573-96.41c-2.19-9.354-6.026-18.07-11.183-25.835  c-0.081-0.139-0.177-0.271-0.266-0.406c-0.07-0.103-0.135-0.208-0.205-0.311c-0.044-0.062-0.085-0.125-0.131-0.186  c-10.288-15.041-25.613-26.375-43.669-31.57L293.1,5.237c-24.272-6.982-49.93-6.983-74.202,0l-20.38,5.861  c-27.648,7.954-48.896,30.297-55.455,58.309l-22.572,96.411c-0.178,0.759-0.262,1.523-0.262,2.28h-0.001v0.034  c0,0.004,0,0.009,0,0.013v140.311c0,25.889,7.589,50.958,21.945,72.502c18.974,28.47,31.704,61.4,36.814,95.231l4.124,27.304  c0.738,4.891,4.941,8.506,9.888,8.506h125.998c4.804,0,8.929-3.416,9.824-8.135l7-36.872c5.566-29.319,16.499-56.957,32.495-82.148  l3.084-4.855c13.325-20.987,20.369-45.22,20.369-70.081V168.144C391.769,168.14,391.769,168.136,391.769,168.131z M302.126,151.302  c2.873-4.285,5.092-8.538,6.764-12.286l52.205,30.498c-20.653,13.543-32.967,36.304-32.967,61.036  c0,16.303-10.96,30.096-25.898,34.397V152.672C302.231,152.206,302.188,151.751,302.126,151.302z M252.41,212.655h7.176v4.5h-7.176  L252.41,212.655L252.41,212.655z M259.586,192.655h-7.176v-4.5h7.176V192.655z M252.41,237.155h7.176v5.344  c0,1.978-1.609,3.587-3.588,3.587s-3.588-1.609-3.588-3.587V237.155z M266.48,155.638c-4.112,1.344-6.894,5.179-6.894,9.505v3.013  h-7.176v-3.013c0-4.325-2.781-8.161-6.892-9.505c-18.325-5.992-25.63-27.803-27.048-32.664V79.671  c8.636-2.978,24.612-7.799,37.526-7.799c12.837,0,28.705,4.761,37.385,7.742c0.005,0.002,0.009,0.004,0.014,0.006  c0.029,0.011,0.058,0.018,0.087,0.028c0.024,0.008,0.051,0.017,0.075,0.025v9.439c-0.034,0.476-0.034,0.954,0,1.431v32.419  C292.124,127.817,284.723,149.675,266.48,155.638z M153.747,111.503h44.724v7.058l-53.724,31.385L153.747,111.503z M162.535,73.966  c0.76-3.246,1.785-6.39,3.049-9.408l29.822,26.946h-36.977L162.535,73.966z M203.128,139.003c1.641,3.685,3.81,7.859,6.609,12.071  c-0.051,0.407-0.085,0.819-0.085,1.24v112.598c-14.881-4.337-25.785-18.101-25.785-34.364c0-24.732-12.314-47.494-32.966-61.037  L203.128,139.003z M313.559,118.58v-7.078h44.69l9,38.442L313.559,118.58z M349.461,73.966l4.106,17.538H316.59l29.822-26.946  C347.676,67.576,348.701,70.72,349.461,73.966z M335.5,47.462l-22.993,20.776c-0.673-1.352-1.649-2.54-2.858-3.469l10.943-29.167  C326.193,38.744,331.218,42.761,335.5,47.462z M301.87,28.569L290.891,57.83c-7.254-2.13-16.109-4.286-24.895-5.323V20.456  c7.266,0.64,14.489,1.962,21.572,4L301.87,28.569z M224.426,24.456c7.083-2.038,14.306-3.359,21.572-4v32.052  c-8.789,1.037-17.642,3.195-24.893,5.327l-10.98-29.265L224.426,24.456z M191.405,35.602l10.951,29.188  c-1.203,0.931-2.174,2.119-2.843,3.47l-23.016-20.797C180.778,42.761,185.804,38.744,191.405,35.602z M354.517,369.266l-3.083,4.855  c-17.358,27.335-29.222,57.325-35.26,89.139l-5.456,28.738H201.603l-2.84-18.797c-5.546-36.71-19.359-72.442-39.947-103.335  c-12.16-18.248-18.588-39.483-18.588-61.411V186.445c14.811,9.856,23.641,26.27,23.641,44.104c0,30.76,25.025,55.785,55.784,55.785  c5.522,0,10-4.477,10-10V170.33c0.898,0.518,1.812,1.021,2.759,1.493V242.5c0,13.006,10.581,23.587,23.588,23.587  s23.588-10.581,23.588-23.587v-70.675c0.906-0.451,1.784-0.93,2.646-1.424v105.934c0,5.523,4.478,10,10,10h0.113  c30.76,0,55.784-25.025,55.784-55.785c0-17.835,8.83-34.248,23.641-44.103v123.46C371.769,330.963,365.803,351.49,354.517,369.266z"/>
<path d="M213.018,379.484c-2.494-4.928-8.508-6.9-13.438-4.406c-4.927,2.494-6.899,8.51-4.405,13.438  c10.472,20.688,17.537,42.803,21.001,65.733c0.748,4.955,5.012,8.508,9.875,8.508c0.497,0,1-0.037,1.506-0.114  c5.461-0.825,9.22-5.92,8.395-11.381C232.168,426.224,224.453,402.074,213.018,379.484z"/>
<path d="M198.901,355.256l-0.176-0.264c-3.068-4.559-9.245-5.79-13.823-2.749c-4.581,3.039-5.85,9.205-2.842,13.806l0.101,0.152  c1.919,2.934,5.117,4.528,8.38,4.528c1.876,0,3.774-0.527,5.463-1.631C200.625,366.076,201.922,359.879,198.901,355.256z"/>
<g>
</g>
<g>
</g>
<g>
</g>
<g>
</g>
<g>
</g>
<g>
</g>
<g>
</g>
<g>
</g>
<g>
</g>
<g>
</g>
<g>
</g>
<g>
</g>
<g>
</g>
<g>
</g>
<g>
</g>
</svg>
