<?xml version="1.0" encoding="iso-8859-1"?>
<!-- Generator: Adobe Illustrator 19.0.0, SVG Export Plug-In . SVG Version: 6.00 Build 0)  -->
<svg xmlns="http://www.w3.org/2000/svg" xmlns:xlink="http://www.w3.org/1999/xlink" version="1.1" id="Layer_1" x="0px" y="0px" viewBox="0 0 512.001 512.001" style="enable-background:new 0 0 512.001 512.001;" xml:space="preserve">
<rect x="67.975" y="61.077" style="fill:#FFD0A3;" width="321.709" height="389.854"/>
<g>
	<rect x="421.672" y="10.096" style="fill:#F29C0B;" width="25.99" height="59.978"/>
	<rect x="9.996" y="10.096" style="fill:#F29C0B;" width="25.99" height="59.978"/>
	<rect x="389.684" y="26.09" style="fill:#F29C0B;" width="32.158" height="27.99"/>
</g>
<rect x="35.987" y="26.09" style="fill:#165DB2;" width="31.988" height="27.99"/>
<rect x="67.975" y="19.093" style="fill:#FFB35E;" width="321.709" height="41.984"/>
<g>
	<rect x="421.672" y="441.915" style="fill:#F29C0B;" width="25.99" height="59.978"/>
	<rect x="9.996" y="441.915" style="fill:#F29C0B;" width="25.99" height="59.978"/>
</g>
<g>
	<rect x="389.684" y="457.909" style="fill:#165DB2;" width="32.158" height="27.99"/>
	<rect x="35.987" y="457.909" style="fill:#165DB2;" width="31.988" height="27.99"/>
</g>
<rect x="67.975" y="450.911" style="fill:#FFB35E;" width="321.709" height="41.984"/>
<path style="fill:#64C5F2;" d="M363.378,320.037l85.41-53.947c36.175-63.351,68.333-162.483,45.591-175.469  s-91.774,65.091-127.948,128.442L363.378,320.037z"/>
<path d="M67.97,192.013c5.52,0,9.996-4.475,9.996-9.996v-0.181c0-5.521-4.476-9.996-9.996-9.996c-5.52,0-9.996,4.475-9.996,9.996  v0.181C57.973,187.538,62.45,192.013,67.97,192.013z"/>
<path d="M399.684,308.928l54.442-34.386c1.383-0.874,2.531-2.073,3.343-3.495c18.36-32.153,35.921-73.863,45.828-108.855  c12.791-45.175,11.496-71.426-3.96-80.252c-15.454-8.822-38.72,3.4-71.127,37.376c-9.426,9.883-19.121,21.178-28.524,33.133V64.072  h11.995v5.998c0,5.521,4.476,9.996,9.996,9.996h25.99c5.52,0,9.996-4.475,9.996-9.996V10.092c0-5.521-4.476-9.996-9.996-9.996  h-25.99c-5.52,0-9.996,4.475-9.996,9.996v5.998h-12.454c-1.274-4.055-5.062-6.997-9.537-6.997H67.975  c-4.475,0-8.263,2.942-9.537,6.997H45.983v-5.998c0-5.521-4.476-9.996-9.996-9.996H9.996C4.476,0.096,0,4.572,0,10.092V70.07  c0,5.521,4.476,9.996,9.996,9.996h25.99c5.52,0,9.996-4.475,9.996-9.996v-5.998h11.996v73.113c0,5.521,4.476,9.996,9.996,9.996  c5.52,0,9.996-4.475,9.996-9.996V71.07h301.721v108.44c-8.067,11.639-15.531,23.371-21.941,34.596  c-0.813,1.42-1.263,3.019-1.312,4.654l-2.978,98.484l-57.448,100.609c-2.738,4.794-1.071,10.9,3.724,13.638  c1.563,0.894,3.268,1.316,4.947,1.316c3.472,0,6.846-1.811,8.69-5.041l57.449-100.609l8.869-5.602v119.375H77.971V225.297  c0-5.521-4.476-9.996-9.996-9.996c-5.52,0-9.996,4.475-9.996,9.996v222.632H46.15v-5.998c0-5.521-4.476-9.996-9.996-9.996h-25.99  c-5.52,0-9.996,4.475-9.996,9.996v59.978c0,5.521,4.476,9.996,9.996,9.996h25.99c5.52,0,9.996-4.475,9.996-9.996v-5.998h12.287  c1.274,4.055,5.062,6.997,9.537,6.997h321.712c4.475,0,8.263-2.942,9.537-6.997h12.621v5.998c0,5.521,4.476,9.996,9.996,9.996h25.99  c5.52,0,9.996-4.475,9.996-9.996v-59.978c0-5.521-4.476-9.996-9.996-9.996h-25.99c-5.52,0-9.996,4.475-9.996,9.996v5.998h-12.161  L399.684,308.928L399.684,308.928z M437.669,60.074h-5.831V20.089h5.831V60.074z M399.684,36.083h11.995v7.997h-11.995V36.083z   M379.691,51.077H77.971V29.085h301.72V51.077z M25.99,60.074h-5.998V20.089h5.998v5.998v27.99V60.074z M45.983,36.083h11.996v7.997  H45.983V36.083z M441.327,258.978l-49.384,31.193l34.369-60.189c0.668-0.126,1.332-0.318,1.986-0.589l34.657-14.363  C456.264,230.478,448.882,245.541,441.327,258.978z M491.912,115.1c-0.379,8.947-2.376,22.304-7.852,41.645  c-2.92,10.311-6.536,21.234-10.652,32.312l-31.082,12.881L491.912,115.1z M442.676,133.114  c13.874-14.547,24.362-23.054,31.875-27.928l-63.334,110.914l-8.564-31.363c-0.191-0.7-0.456-1.359-0.778-1.978  C414.84,164.778,429.047,147.404,442.676,133.114z M376.347,221.873c3.367-5.806,7.02-11.742,10.884-17.716l9.965,36.496  l-22.616,39.605L376.347,221.873z M20.159,491.912v-39.985h5.998v4.22c-0.104,0.578-0.167,1.17-0.167,1.777v27.99  c0,0.608,0.063,1.2,0.167,1.777v4.22H20.159z M46.15,467.921h11.829v7.997H46.15V467.921z M379.691,482.915H77.971v-21.992h301.72  V482.915z M431.838,451.927h5.998v39.985h-5.998v-5.998v-27.99V451.927z M411.846,475.918h-12.161v-7.997h12.161V475.918z"/>
<path d="M183.677,150.04h123.121c5.52,0,9.996-4.475,9.996-9.996c0-5.521-4.476-9.996-9.996-9.996H183.677  c-5.52,0-9.996,4.475-9.996,9.996C173.681,145.565,178.157,150.04,183.677,150.04z"/>
<path d="M151.03,150.04h0.131c5.52,0,9.996-4.475,9.996-9.996c0-5.521-4.476-9.996-9.996-9.996h-0.131  c-5.52,0-9.996,4.475-9.996,9.996C141.034,145.565,145.509,150.04,151.03,150.04z"/>
<path d="M183.677,194.003h123.121c5.52,0,9.996-4.475,9.996-9.996c0-5.521-4.476-9.996-9.996-9.996H183.677  c-5.52,0-9.996,4.475-9.996,9.996C173.681,189.527,178.157,194.003,183.677,194.003z"/>
<path d="M151.03,194.003h0.131c5.52,0,9.996-4.475,9.996-9.996c0-5.521-4.476-9.996-9.996-9.996h-0.131  c-5.52,0-9.996,4.475-9.996,9.996C141.034,189.527,145.509,194.003,151.03,194.003z"/>
<path d="M183.677,237.965h123.121c5.52,0,9.996-4.475,9.996-9.996s-4.476-9.996-9.996-9.996H183.677  c-5.52,0-9.996,4.475-9.996,9.996S178.157,237.965,183.677,237.965z"/>
<path d="M151.03,237.965h0.131c5.52,0,9.996-4.475,9.996-9.996s-4.476-9.996-9.996-9.996h-0.131c-5.52,0-9.996,4.475-9.996,9.996  S145.509,237.965,151.03,237.965z"/>
<path d="M183.677,281.928h123.121c5.52,0,9.996-4.475,9.996-9.996s-4.476-9.996-9.996-9.996H183.677  c-5.52,0-9.996,4.475-9.996,9.996S178.157,281.928,183.677,281.928z"/>
<path d="M151.03,281.928h0.131c5.52,0,9.996-4.475,9.996-9.996s-4.476-9.996-9.996-9.996h-0.131c-5.52,0-9.996,4.475-9.996,9.996  S145.509,281.928,151.03,281.928z"/>
<path d="M183.677,325.89h123.121c5.52,0,9.996-4.475,9.996-9.996s-4.476-9.996-9.996-9.996H183.677c-5.52,0-9.996,4.475-9.996,9.996  S178.157,325.89,183.677,325.89z"/>
<path d="M151.03,325.89h0.131c5.52,0,9.996-4.475,9.996-9.996s-4.476-9.996-9.996-9.996h-0.131c-5.52,0-9.996,4.475-9.996,9.996  S145.509,325.89,151.03,325.89z"/>
<path d="M183.677,370.089h72.393c5.52,0,9.996-4.475,9.996-9.996s-4.476-9.996-9.996-9.996h-72.393c-5.52,0-9.996,4.475-9.996,9.996  S178.157,370.089,183.677,370.089z"/>
<path d="M151.03,370.089h0.131c5.52,0,9.996-4.475,9.996-9.996s-4.476-9.996-9.996-9.996h-0.131c-5.52,0-9.996,4.475-9.996,9.996  S145.509,370.089,151.03,370.089z"/>
<g>
</g>
<g>
</g>
<g>
</g>
<g>
</g>
<g>
</g>
<g>
</g>
<g>
</g>
<g>
</g>
<g>
</g>
<g>
</g>
<g>
</g>
<g>
</g>
<g>
</g>
<g>
</g>
<g>
</g>
</svg>
