<?xml version="1.0" encoding="iso-8859-1"?>
<!-- Generator: Adobe Illustrator 19.0.0, SVG Export Plug-In . SVG Version: 6.00 Build 0)  -->
<svg xmlns="http://www.w3.org/2000/svg" xmlns:xlink="http://www.w3.org/1999/xlink" version="1.1" id="Layer_1" x="0px" y="0px" viewBox="0 0 512 512" style="enable-background:new 0 0 512 512;" xml:space="preserve">
<circle style="fill:#FC525A;" cx="256" cy="256" r="246.01"/>
<circle style="fill:#EFEEEE;" cx="256" cy="256" r="209"/>
<path style="fill:#884024;" d="M217.5,291.999H406V220H141.999C122.117,220,106,236.117,106,255.999l0,0  c0,19.882,16.117,35.999,35.999,35.999h12.304H217.5V291.999z"/>
<rect x="358" y="220" style="fill:#D1D3D4;" width="48" height="71.999"/>
<path d="M437.019,74.981C388.667,26.628,324.38,0,256,0S123.333,26.628,74.981,74.981C26.628,123.333,0,187.62,0,256  c0,61.906,22.39,121.657,63.046,168.246c40.261,46.137,95.638,76.358,155.929,85.095c5.462,0.794,10.538-2.997,11.331-8.462  c0.792-5.466-2.997-10.539-8.462-11.331C106.774,472.872,20,372.468,20,256C20,125.869,125.869,20,256,20s236,105.869,236,236  c0,116.601-86.887,217.021-202.107,233.585c-5.467,0.786-9.261,5.855-8.475,11.321c0.716,4.984,4.993,8.579,9.885,8.579  c0.474,0,0.953-0.034,1.436-0.103c60.356-8.677,115.802-38.876,156.125-85.033C489.578,377.744,512,317.956,512,256  C512,187.62,485.372,123.333,437.019,74.981z"/>
<path d="M256.153,492h-0.268c-0.006,0-0.012,0-0.019,0c-5.514,0-9.989,4.465-10,9.982c-0.01,5.522,4.459,10.008,9.982,10.018h0.268  c0.006,0,0.012,0,0.019,0c5.514,0,9.989-4.465,10-9.982C266.146,496.496,261.676,492.01,256.153,492z"/>
<path d="M410.856,410.856C452.22,369.493,475,314.497,475,256s-22.78-113.493-64.144-154.856S314.497,37,256,37  s-113.493,22.78-154.856,64.144S37,197.503,37,256s22.78,113.493,64.144,154.856S197.503,475,256,475  S369.493,452.22,410.856,410.856z M455,256c0,51.274-19.496,98.078-51.46,133.397l-87.399-87.399H406c5.523,0,10-4.477,10-10V220  c0-5.523-4.477-10-10-10H223.911c-0.332-0.476-0.702-0.933-1.126-1.357L122.603,108.46C157.922,76.496,204.726,57,256,57  C365.729,57,455,146.271,455,256z M57,256c0-51.274,19.496-98.078,51.46-133.397L195.857,210H142c-25.364,0-46,20.635-46,46  c0,25.364,20.635,45.999,46,45.999h12.303c5.523,0,10-4.477,10-10s-4.477-10-10-10H142c-14.336,0-26-11.663-26-25.999  s11.663-26,26-26h206v38c0,5.523,4.477,10,10,10s10-4.477,10-10v-38h28v51.999H217.5c-5.523,0-10,4.477-10,10s4.477,10,10,10h74.619  c-0.03,2.598,0.941,5.205,2.923,7.187l94.355,94.355C354.078,435.504,307.274,455,256,455C146.271,455,57,365.729,57,256z"/>
<path d="M185.25,282h-0.153c-5.523,0-10,4.477-10,10s4.477,10,10,10h0.153c5.523,0,10-4.477,10-10S190.773,282,185.25,282z"/>
<path d="M378.142,191.988c-3.239,4.473-2.238,10.726,2.235,13.964c1.772,1.284,3.824,1.901,5.856,1.901  c3.098,0,6.152-1.435,8.108-4.136c10.067-13.903,10.1-32.608,0.026-46.624c-5.026-6.993-5.026-16.389,0-23.381  c3.224-4.484,2.202-10.733-2.283-13.957c-4.484-3.225-10.733-2.203-13.957,2.283c-10.046,13.974-10.046,32.752,0.054,46.805  C383.163,175.774,383.147,185.075,378.142,191.988z"/>
<path d="M341.84,170.167c-3.239,4.474-2.238,10.726,2.235,13.964c1.772,1.284,3.824,1.901,5.856,1.901  c3.098,0,6.152-1.435,8.108-4.136c10.067-13.903,10.099-32.609,0.026-46.624c-5.026-6.993-5.025-16.389,0.001-23.382  c3.223-4.484,2.201-10.733-2.283-13.957c-4.486-3.224-10.733-2.201-13.957,2.284c-10.045,13.974-10.045,32.753,0.054,46.805  C346.861,153.952,346.845,163.253,341.84,170.167z"/>
<g>
</g>
<g>
</g>
<g>
</g>
<g>
</g>
<g>
</g>
<g>
</g>
<g>
</g>
<g>
</g>
<g>
</g>
<g>
</g>
<g>
</g>
<g>
</g>
<g>
</g>
<g>
</g>
<g>
</g>
</svg>
