<?xml version="1.0" encoding="iso-8859-1"?>
<!-- Generator: Adobe Illustrator 19.0.0, SVG Export Plug-In . SVG Version: 6.00 Build 0)  -->
<svg xmlns="http://www.w3.org/2000/svg" xmlns:xlink="http://www.w3.org/1999/xlink" version="1.1" id="Layer_1" x="0px" y="0px" viewBox="0 0 512 512" style="enable-background:new 0 0 512 512;" xml:space="preserve">
<polygon style="fill:#FFFFFF;" points="92.182,64.002 10,64.002 10,448 502,448 502,64.002 172.447,64.002 "/>
<rect x="10" y="110.33" style="fill:#64C5F2;" width="355.5" height="50"/>
<polygon style="fill:#44AD00;" points="412,327 412,363.006 256.127,363.006 256.127,409 458.333,409 458.333,327 "/>
<rect x="256.13" y="279.01" style="fill:#0092E0;" width="109.37" height="47.994"/>
<rect x="256.13" y="200.51" style="fill:#FFB35E;" width="109.37" height="47.994"/>
<rect x="412" y="110.33" style="fill:#F9694F;" width="46.33" height="186.79"/>
<rect x="66" y="255.78" style="fill:#64C5F2;" width="112" height="71.22"/>
<polygon style="fill:#165DB2;" points="122,208.204 122,208.204 40.054,255.78 203.946,255.78 "/>
<path d="M132.235,74h0.153c5.523,0,10-4.477,10-10s-4.477-10-10-10h-0.153c-5.523,0-10,4.477-10,10S126.712,74,132.235,74z"/>
<path d="M502,54.001H172.447c-5.523,0-10,4.477-10,10s4.477,10,10,10H492V438H20V170.333h345.5c5.523,0,10-4.477,10-10v-50  c0-5.523-4.477-10-10-10H20V74.001h72.182c5.523,0,10-4.477,10-10s-4.477-10-10-10H10c-5.523,0-10,4.477-10,10V448  c0,5.523,4.477,10,10,10h492c5.523,0,10-4.477,10-10V64.001C512,58.479,507.523,54.001,502,54.001z M355.5,120.333v30H20v-30  C20,120.333,355.5,120.333,355.5,120.333z"/>
<path d="M213.603,258.38c1.175-4.366-0.725-8.978-4.635-11.248l-81.946-47.577c-3.104-1.803-6.938-1.803-10.042,0l-81.946,47.577  c-3.91,2.27-5.811,6.882-4.635,11.248s5.135,7.4,9.656,7.4H56V317h-5.835c-5.523,0-10,4.477-10,10s4.477,10,10,10h143.554  c5.523,0,10-4.477,10-10s-4.477-10-10-10H188v-51.22h15.946C208.468,265.78,212.427,262.746,213.603,258.38z M122,219.767  l44.806,26.014H77.194L122,219.767z M76,265.78h36V317H76V265.78z M168,317h-36v-51.22h36V317z"/>
<path d="M90.974,420.986c5.523,0,10-4.477,10-10v-48.474c0-3.849-2.209-7.356-5.681-9.019c-3.471-1.662-7.589-1.185-10.588,1.228  l-16.671,13.414l-16.671-13.414c-2.999-2.413-7.116-2.891-10.588-1.228c-3.471,1.663-5.681,5.17-5.681,9.019v48.474  c0,5.523,4.477,10,10,10s10-4.477,10-10v-27.592l6.671,5.368c3.66,2.945,8.878,2.945,12.538,0l6.671-5.368v27.592  C80.974,416.509,85.451,420.986,90.974,420.986z"/>
<path d="M127.893,350.352c-4.358,0-8.215,2.823-9.532,6.977l-16.058,50.634c-1.669,5.264,1.245,10.886,6.509,12.555  c5.265,1.668,10.886-1.246,12.555-6.509l6.526-20.577l6.525,20.577c1.351,4.259,5.288,6.98,9.53,6.98  c1.001,0,2.02-0.152,3.025-0.471c5.265-1.669,8.179-7.291,6.509-12.555l-16.058-50.634  C136.107,353.175,132.251,350.352,127.893,350.352z"/>
<path d="M186.803,352.513h-21.992c-5.523,0-10,4.477-10,10V411c0,5.523,4.477,10,10,10s10-4.477,10-10v-14.281h11.992  c12.188,0,22.103-9.916,22.103-22.103S198.99,352.513,186.803,352.513z M186.803,376.719h-11.992v-4.206h11.992  c1.16,0,2.103,0.943,2.103,2.103S187.962,376.719,186.803,376.719z"/>
<path d="M402,353.006H256.127c-5.523,0-10,4.477-10,10V409c0,5.523,4.477,10,10,10h202.207c5.523,0,10-4.477,10-10v-82  c0-5.523-4.477-10-10-10H412c-5.523,0-10,4.477-10,10V353.006z M412,373.006c5.523,0,10-4.477,10-10V337h26.333v62H266.127v-25.994  H412z"/>
<path d="M246.127,327c0,5.523,4.477,10,10,10H365.5c5.523,0,10-4.477,10-10v-47.994c0-5.523-4.477-10-10-10H256.127  c-5.523,0-10,4.477-10,10L246.127,327L246.127,327z M266.127,289.006H355.5V317h-89.373V289.006z"/>
<path d="M256.127,258.5H365.5c5.523,0,10-4.477,10-10v-47.994c0-5.523-4.477-10-10-10H256.127c-5.523,0-10,4.477-10,10V248.5  C246.127,254.023,250.604,258.5,256.127,258.5z M266.127,210.506H355.5V238.5h-89.373V210.506z"/>
<path d="M412,307.127h46.333c5.523,0,10-4.477,10-10V110.333c0-5.523-4.477-10-10-10H412c-5.523,0-10,4.477-10,10v186.793  C402,302.65,406.477,307.127,412,307.127z M422,120.333h26.333v166.793H422V120.333z"/>
<g>
</g>
<g>
</g>
<g>
</g>
<g>
</g>
<g>
</g>
<g>
</g>
<g>
</g>
<g>
</g>
<g>
</g>
<g>
</g>
<g>
</g>
<g>
</g>
<g>
</g>
<g>
</g>
<g>
</g>
</svg>
