<?xml version="1.0" encoding="iso-8859-1"?>
<!-- Generator: Adobe Illustrator 19.0.0, SVG Export Plug-In . SVG Version: 6.00 Build 0)  -->
<svg xmlns="http://www.w3.org/2000/svg" xmlns:xlink="http://www.w3.org/1999/xlink" version="1.1" id="Layer_1" x="0px" y="0px" viewBox="0 0 512 512" style="enable-background:new 0 0 512 512;" xml:space="preserve">
<path style="fill:#EFEEEE;" d="M204.999,385.265H61.124L37.91,359.582c-5.8-6.417-1.536-16.69,7.103-17.115l126.861-6.231  l31.5-54.75H60.624l-40.936,34.413c-4.552,3.826-11.257-0.747-9.357-6.381l19.412-57.556c7.343-21.77,25.824-37.911,48.384-42.257  l87.236-16.805c13.811-2.66,25.945-10.825,33.611-22.616l7.141-10.983c13.207-20.311,35.791-32.565,60.018-32.565h49.202  c33.557,0,64.083,19.42,78.303,49.815l17.313,37.005l-96.329,171.708h-52.749h-56.874V385.265z"/>
<polygon style="fill:#165DB2;" points="234.851,197.749 280.851,167.749 326.851,197.749 280.851,227.749 "/>
<g>
	<path style="fill:#EFEEEE;" d="M420.382,328.572l-10.179-12.337c-0.684-0.829-1.654-1.373-2.718-1.523l-15.836-2.242   c-2.998-0.424-4.634-3.728-3.153-6.37l43.092-76.894c1.42-2.533,4.888-2.964,6.884-0.856l11.137,11.762   c0.601,0.634,1.38,1.071,2.234,1.252l15.846,3.359c2.841,0.602,4.283,3.785,2.864,6.318l-43.092,76.894   C425.981,330.578,422.309,330.908,420.382,328.572z"/>
	<path style="fill:#EFEEEE;" d="M502,337.293l-14.481,25.841c-1.48,2.641-5.152,2.971-7.079,0.635l-10.179-12.337   c-0.684-0.829-1.654-1.373-2.718-1.523l-15.836-2.242c-2.998-0.424-4.634-3.728-3.153-6.37l43.092-76.894   c1.42-2.533,4.888-2.964,6.884-0.856l3.47,3.665L502,337.293z"/>
</g>
<path d="M420.01,209.319l-17.313-37.005c-15.795-33.761-50.086-55.577-87.361-55.577h-49.202c-27.72,0-53.291,13.874-68.402,37.113  l-7.141,10.983c-6.153,9.462-16.038,16.113-27.12,18.248l-87.235,16.805c-26.045,5.018-47.491,23.747-55.968,48.88L0.855,306.322  c-2.302,6.825,0.149,14.137,6.1,18.196c5.95,4.057,13.653,3.67,19.167-0.964l28.271-23.765l3.506,16.405  c0.986,4.613,5.062,7.91,9.779,7.91s8.793-3.297,9.779-7.91l5.28-24.706h0.242l5.28,24.706c0.986,4.613,5.062,7.91,9.779,7.91  s8.793-3.297,9.779-7.91l5.28-24.706h0.242l5.28,24.706c0.986,4.613,5.062,7.91,9.779,7.91c4.717,0,8.793-3.297,9.779-7.91  l5.28-24.706h0.242l5.28,24.706c0.986,4.613,5.062,7.91,9.779,7.91s8.793-3.297,9.779-7.91l5.28-24.706h12.262l-20.154,35.03  L44.522,332.48c-7.895,0.388-14.682,5.164-17.711,12.464c-3.03,7.301-1.62,15.479,3.681,21.344l23.214,25.682  c1.896,2.098,4.591,3.294,7.418,3.294h143.875c5.523,0,10-4.477,10-10s-4.477-10-10-10H65.565l-20.236-22.387  c-0.055-0.061-0.079-0.101-0.082-0.101c-0.011-0.081,0.063-0.259,0.115-0.301c0.011-0.004,0.057-0.016,0.141-0.02l126.861-6.23  c3.399-0.167,6.48-2.051,8.177-5.001l31.5-54.75c1.78-3.094,1.776-6.903-0.012-9.993c-1.787-3.09-5.086-4.994-8.656-4.994H60.624  c-2.354,0-4.633,0.831-6.435,2.345l-29.686,24.955l14.715-43.63c6.18-18.321,21.813-31.976,40.8-35.633l87.235-16.805  c16.388-3.156,31.005-12.992,40.104-26.984l7.141-10.983c11.407-17.542,30.71-28.016,51.635-28.016h49.202  c29.545,0,56.726,17.292,69.246,44.052l15.137,32.353l-90.95,162.122h-46.893c-5.523,0-10,4.477-10,10s4.477,10,10,10h52.749  c3.617,0,6.952-1.953,8.721-5.107l96.328-171.708C421.25,215.638,421.376,212.239,420.01,209.319z"/>
<path d="M232.5,375.26c-2.63,0-5.21,1.07-7.07,2.93s-2.93,4.44-2.93,7.07c0,2.64,1.07,5.21,2.93,7.08c1.86,1.86,4.44,2.92,7.07,2.92  s5.21-1.06,7.07-2.92c1.86-1.87,2.93-4.45,2.93-7.08s-1.07-5.2-2.93-7.07C237.71,376.33,235.13,375.26,232.5,375.26z"/>
<path d="M229.388,206.125l46,30c1.66,1.083,3.562,1.624,5.463,1.624s3.803-0.542,5.463-1.624l46-30  c2.831-1.846,4.537-4.997,4.537-8.376s-1.707-6.53-4.537-8.376l-46-30c-3.32-2.165-7.605-2.165-10.926,0l-46,30  c-2.831,1.846-4.537,4.997-4.537,8.376S226.558,204.28,229.388,206.125z M280.851,179.688l27.694,18.061l-27.694,18.061  l-27.694-18.061L280.851,179.688z"/>
<path d="M479.827,243.031c-1.87-4.126-5.632-7.15-10.063-8.09l-14.111-2.992l-9.918-10.474c-3.114-3.29-7.653-4.919-12.152-4.361  c-4.495,0.558-8.501,3.25-10.718,7.203l-43.092,76.894c-2.309,4.121-2.437,9.109-0.341,13.342s6.14,7.156,10.816,7.818l13.648,1.932  l8.772,10.633c2.732,3.312,6.784,5.202,11.032,5.202c0.426,0,0.854-0.019,1.283-0.058c4.705-0.422,8.893-3.135,11.201-7.255  l43.092-76.894C481.491,251.98,481.698,247.157,479.827,243.031z M422.803,315.793l-4.884-5.919  c-2.279-2.764-5.488-4.562-9.032-5.063l-7.602-1.076l35.245-62.891l5.818,6.145c2.004,2.117,4.57,3.555,7.421,4.159l8.278,1.755  L422.803,315.793z"/>
<path d="M506.888,328.57c-4.818-2.698-10.912-0.983-13.612,3.835l-10.416,18.586l-4.889-5.925c-2.278-2.76-5.483-4.556-9.028-5.058  l-7.602-1.076l35.417-63.198c3.763,2.317,8.754,1.923,12.116-1.259c4.01-3.797,4.183-10.126,0.386-14.137l-3.47-3.665  c-3.115-3.29-7.658-4.919-12.154-4.362c-4.496,0.559-8.501,3.252-10.716,7.204l-43.093,76.895c-2.309,4.121-2.436,9.108-0.34,13.341  s6.139,7.155,10.816,7.817l13.648,1.932l8.773,10.633c2.732,3.312,6.784,5.202,11.032,5.202c0.426,0,0.855-0.019,1.284-0.058  c4.705-0.423,8.892-3.136,11.2-7.255l14.481-25.841C513.423,337.364,511.706,331.27,506.888,328.57z"/>
<g>
</g>
<g>
</g>
<g>
</g>
<g>
</g>
<g>
</g>
<g>
</g>
<g>
</g>
<g>
</g>
<g>
</g>
<g>
</g>
<g>
</g>
<g>
</g>
<g>
</g>
<g>
</g>
<g>
</g>
</svg>
