<?xml version="1.0" encoding="iso-8859-1"?>
<!-- Generator: Adobe Illustrator 19.0.0, SVG Export Plug-In . SVG Version: 6.00 Build 0)  -->
<svg xmlns="http://www.w3.org/2000/svg" xmlns:xlink="http://www.w3.org/1999/xlink" version="1.1" id="Layer_1" x="0px" y="0px" viewBox="0 0 512 512" style="enable-background:new 0 0 512 512;" xml:space="preserve">
<g>
	<path style="fill:#EFEEEE;" d="M368.94,10H143.06c-38.164,0-69.102,30.938-69.102,69.102c0,30.531,24.75,55.281,55.281,55.281   c24.425,0,44.225-19.8,44.225-44.225c0-0.858-0.041-1.705-0.101-2.547h165.273c-0.06,0.842-0.101,1.69-0.101,2.547   c0,24.425,19.8,44.225,44.225,44.225c30.531,0,55.281-24.75,55.281-55.281C438.042,40.938,407.104,10,368.94,10z"/>
	<rect x="173.47" y="84" style="fill:#EFEEEE;" width="165.03" height="363"/>
</g>
<rect x="138.04" y="448" style="fill:#165DB2;" width="236" height="54"/>
<path d="M382.761,144.383c35.996,0,65.281-29.285,65.281-65.281C448.042,35.485,412.557,0,368.94,0H143.06  C99.443,0,63.958,35.485,63.958,79.102c0,35.996,29.285,65.281,65.282,65.281c12.968,0,24.884-4.581,34.225-12.203V438h-25.423  c-5.523,0-10,4.477-10,10v54c0,5.523,4.477,10,10,10h60.25c5.523,0,10-4.477,10-10s-4.477-10-10-10h-50.25v-34h216v34H257.054  c-5.523,0-10,4.477-10,10s4.477,10,10,10h116.988c5.523,0,10-4.477,10-10v-54c0-5.523-4.477-10-10-10H348.5V132.152  C357.847,139.791,369.776,144.383,382.761,144.383z M273.489,100.158V438h-35.012V100.158H273.489z M293.489,438V100.158h14.053  c5.523,0,10-4.477,10-10s-4.477-10-10-10H204.796c-5.523,0-10,4.477-10,10s4.477,10,10,10h13.681V438h-35.012V90.158  c0-25.022-20.357-45.38-45.38-45.38c-21.121,0-38.304,17.183-38.304,38.304c0,18,14.644,32.643,32.644,32.643  c15.502,0,28.114-12.612,28.114-28.115c0-5.523-4.477-10-10-10s-10,4.477-10,10c0,4.475-3.64,8.115-8.114,8.115  c-6.972,0-12.644-5.672-12.644-12.643c0-10.093,8.211-18.304,18.304-18.304c13.995,0,25.38,11.385,25.38,25.38  c0,18.872-15.353,34.225-34.225,34.225c-24.968,0-45.282-20.313-45.282-45.281C83.958,46.513,110.472,20,143.061,20h225.88  c32.589,0,59.102,26.513,59.102,59.102c0,24.968-20.313,45.281-45.281,45.281c-18.872,0-34.225-15.354-34.225-34.225  c0-13.995,11.385-25.38,25.38-25.38c10.093,0,18.304,8.211,18.304,18.304c0,6.971-5.672,12.643-12.643,12.643  c-4.475,0-8.115-3.64-8.115-8.115c0-5.523-4.477-10-10-10s-10,4.477-10,10c0,15.502,12.612,28.115,28.115,28.115  c18,0,32.643-14.644,32.643-32.643c0-21.121-17.183-38.304-38.304-38.304c-24.655,0-44.766,19.767-45.352,44.283  c-0.039,0.36-0.063,0.726-0.063,1.097V438H293.489z"/>
<path d="M227.275,492h-0.121c-5.523,0-10,4.477-10,10s4.477,10,10,10h0.121c5.523,0,10-4.477,10-10S232.798,492,227.275,492z"/>
<g>
</g>
<g>
</g>
<g>
</g>
<g>
</g>
<g>
</g>
<g>
</g>
<g>
</g>
<g>
</g>
<g>
</g>
<g>
</g>
<g>
</g>
<g>
</g>
<g>
</g>
<g>
</g>
<g>
</g>
</svg>
