<?xml version="1.0" encoding="iso-8859-1"?>
<!-- Generator: Adobe Illustrator 19.0.0, SVG Export Plug-In . SVG Version: 6.00 Build 0)  -->
<svg xmlns="http://www.w3.org/2000/svg" xmlns:xlink="http://www.w3.org/1999/xlink" version="1.1" id="Layer_1" x="0px" y="0px" viewBox="0 0 512 512" style="enable-background:new 0 0 512 512;" xml:space="preserve">
<circle style="fill:#FC525A;" cx="256" cy="256" r="246.01"/>
<circle style="fill:#EFEEEE;" cx="256" cy="256" r="209"/>
<path style="fill:#0092E0;" d="M319.375,395.917h-126.75c-11.391,0-20.625-9.234-20.625-20.625V153.625  c0-11.391,9.234-20.625,20.625-20.625h126.75c11.391,0,20.625,9.234,20.625,20.625v221.667  C340,386.683,330.766,395.917,319.375,395.917z"/>
<rect x="172" y="172" style="fill:#64C5F2;" width="168" height="170"/>
<path d="M437.019,74.981C388.667,26.628,324.38,0,256,0S123.333,26.628,74.981,74.981C26.628,123.333,0,187.62,0,256  c0,61.906,22.39,121.657,63.046,168.246c40.261,46.137,95.638,76.358,155.929,85.095c5.461,0.794,10.538-2.997,11.331-8.462  c0.792-5.466-2.997-10.539-8.462-11.331C106.774,472.872,20,372.468,20,256C20,125.869,125.869,20,256,20s236,105.869,236,236  c0,116.601-86.887,217.021-202.107,233.585c-5.467,0.786-9.261,5.855-8.475,11.321c0.716,4.984,4.993,8.579,9.885,8.579  c0.474,0,0.953-0.034,1.436-0.103c60.356-8.677,115.802-38.876,156.125-85.033C489.578,377.744,512,317.956,512,256  C512,187.62,485.372,123.333,437.019,74.981z"/>
<path d="M256.153,492h-0.268c-0.006,0-0.012,0-0.019,0c-5.514,0-9.989,4.465-10,9.982c-0.01,5.522,4.459,10.008,9.982,10.018h0.268  c0.006,0,0.012,0,0.019,0c5.514,0,9.989-4.465,10-9.982C266.146,496.496,261.676,492.01,256.153,492z"/>
<path d="M410.856,410.856C452.22,369.493,475,314.497,475,256s-22.78-113.493-64.144-154.856S314.497,37,256,37  s-113.493,22.78-154.856,64.144S37,197.503,37,256s22.78,113.493,64.144,154.856S197.503,475,256,475  S369.493,452.22,410.856,410.856z M455,256c0,51.274-19.496,98.078-51.46,133.397L350,335.857V153.625  C350,136.738,336.262,123,319.375,123h-126.75c-15.079,0-27.638,10.957-30.157,25.326l-39.866-39.866  C157.922,76.496,204.726,57,256,57C365.729,57,455,146.271,455,256z M182,182h148v150H182V182z M330,162H182v-8.375  c0-5.858,4.766-10.625,10.625-10.625h126.75c5.859,0,10.625,4.767,10.625,10.625V162z M182,352h148v23.292  c0,5.858-4.766,10.625-10.625,10.625h-126.75c-5.859,0-10.625-4.767-10.625-10.625V352z M57,256  c0-51.274,19.496-98.078,51.46-133.397l53.54,53.54v199.149c0,16.887,13.738,30.625,30.625,30.625h126.75  c16.887,0,30.625-13.738,30.625-30.625v-11.149l39.397,39.397C354.078,435.504,307.274,455,256,455C146.271,455,57,365.729,57,256z"/>
<path d="M244,378h24c5.523,0,10-4.477,10-10s-4.477-10-10-10h-24c-5.523,0-10,4.477-10,10S238.477,378,244,378z"/>
<path d="M300,244.333c-5.523,0-10,4.477-10,10v34.409h-34.409c-5.523,0-10,4.477-10,10s4.477,10,10,10H300c5.523,0,10-4.477,10-10  v-44.409C310,248.811,305.523,244.333,300,244.333z"/>
<path d="M269.179,210.742c0-5.523-4.477-10-10-10H212c-5.523,0-10,4.477-10,10v47.178c0,5.523,4.477,10,10,10s10-4.477,10-10  v-37.178h37.179C264.702,220.742,269.179,216.265,269.179,210.742z"/>
<g>
</g>
<g>
</g>
<g>
</g>
<g>
</g>
<g>
</g>
<g>
</g>
<g>
</g>
<g>
</g>
<g>
</g>
<g>
</g>
<g>
</g>
<g>
</g>
<g>
</g>
<g>
</g>
<g>
</g>
</svg>
