<?xml version="1.0" encoding="iso-8859-1"?>
<!-- Generator: Adobe Illustrator 19.0.0, SVG Export Plug-In . SVG Version: 6.00 Build 0)  -->
<svg xmlns="http://www.w3.org/2000/svg" xmlns:xlink="http://www.w3.org/1999/xlink" version="1.1" id="Layer_1" x="0px" y="0px" viewBox="0 0 512 512" style="enable-background:new 0 0 512 512;" xml:space="preserve">
<g>
	<path style="fill:#41C0F0;" d="M256.308,447.913c-0.025,0-0.049,0-0.074,0c-0.024,0-0.049,0-0.074,0H256.308z"/>
	<path style="fill:#41C0F0;" d="M325.03,118.998c0,89.537,60.016,104.135,60.016,178.099s-62.522,111.92-128.78,111.92   s-129.035-37.956-129.035-111.92s60.975-88.563,60.975-178.099c0-7.736-0.383-14.945-1.223-21.669h-19.002   c-7.51,57.359-86.01,129.905-86.01,209.172c0,83.233,52.149,141.385,174.263,141.409c122.115-0.024,174.263-58.177,174.263-141.409   c0-79.268-78.41-151.814-85.911-209.172h-18.599C325.316,104.054,325.03,111.26,325.03,118.998z"/>
</g>
<rect x="10.038" y="448.013" style="fill:#E23225;" width="491.914" height="53.989"/>
<path d="M324.854,492.004h-0.22c-5.521,0-9.998,4.476-9.998,9.998c0,5.522,4.477,9.998,9.998,9.998h0.22  c5.521,0,9.998-4.476,9.998-9.998C334.852,496.48,330.374,492.004,324.854,492.004z"/>
<path d="M501.959,438.012H361.644c12.842-6.012,24.225-13.377,34.107-22.085c29.689-26.159,44.743-62.975,44.743-109.425  c0-48.011-26.725-93.031-50.305-132.751c-18.606-31.345-36.182-60.951-36.182-84.95c0-34.248,18.045-68.806,58.36-68.806  c29.249,0,53.046,23.795,53.046,53.045c0,22.297-18.14,40.436-40.436,40.436c-16.735,0-30.349-13.614-30.349-30.349  c0-12.286,9.995-22.281,22.28-22.281c8.726,0,15.824,7.099,15.824,15.825c0,5.878-4.781,10.66-10.659,10.66  c-5.521,0-9.998,4.476-9.998,9.998c0,5.522,4.477,9.998,9.998,9.998c16.903,0,30.655-13.752,30.655-30.656  c0-19.751-16.069-35.821-35.82-35.821c-23.31,0-42.276,18.965-42.276,42.277c0,27.761,22.586,50.345,50.345,50.345  c33.322,0,60.432-27.11,60.432-60.432C485.408,32.766,452.642,0,412.366,0c-23.805,0-43.945,9.251-58.243,26.754  c-1.464,1.792-2.841,3.672-4.155,5.614c-10.517,7.237-17.934,15.872-23.132,25.415H184.469  c-4.975-8.216-11.365-15.211-19.272-21.234C151.584,13.797,128.48,0,100.101,0C59.826,0,27.06,32.766,27.06,73.041  c0,33.322,27.11,60.432,60.432,60.432c27.761,0,50.345-22.585,50.345-50.345c0-23.311-18.965-42.277-42.276-42.277  c-19.751,0-35.82,16.069-35.82,35.821c0,16.904,13.752,30.656,30.656,30.656c5.521,0,9.998-4.476,9.998-9.998  c0-5.522-4.477-9.998-9.998-9.998c-5.878,0-10.66-4.782-10.66-10.66c0-8.726,7.099-15.825,15.824-15.825  c12.285,0,22.28,9.995,22.28,22.281c0,16.735-13.614,30.349-30.349,30.349c-22.297,0-40.436-18.139-40.436-40.436  c0-29.249,23.796-53.045,53.046-53.045c40.384,0,58.461,34.557,58.461,68.806c0,23.996-17.596,53.602-36.223,84.945  c-23.608,39.721-50.366,84.742-50.366,132.756c0,46.45,15.054,83.266,44.743,109.425c9.882,8.707,21.266,16.073,34.107,22.085  H10.041c-5.521,0-9.998,4.476-9.998,9.998v53.99c0,5.522,4.477,9.998,9.998,9.998h279.194c5.521,0,9.998-4.476,9.998-9.998  c0-5.522-4.477-9.998-9.998-9.998H20.039v-33.994h471.922v33.994H357.889c-5.521,0-9.998,4.476-9.998,9.998  c0,5.522,4.477,9.998,9.998,9.998h144.07c5.521,0,9.998-4.476,9.998-9.998v-53.99C511.957,442.489,507.48,438.012,501.959,438.012z   M203.553,77.779v257.309c0,5.522,4.477,9.998,9.998,9.998c5.521,0,9.998-4.476,9.998-9.998V77.779h8.331v257.309  c0,5.522,4.477,9.998,9.998,9.998s9.998-4.476,9.998-9.998V77.779h8.331v257.309c0,5.522,4.477,9.998,9.998,9.998  c5.521,0,9.998-4.476,9.998-9.998V77.779h8.332v257.309c0,5.522,4.477,9.998,9.998,9.998c5.521,0,9.998-4.476,9.998-9.998V77.779  h10.627c-3.328,13.165-4.128,27.228-4.128,41.219c0,49.773,17.892,78.384,33.676,103.627c14.134,22.603,26.341,42.123,26.341,74.471  c0,70.027-61.573,101.922-118.782,101.922c-57.332,0-119.038-31.895-119.038-101.922c0-32.31,12.395-51.82,26.748-74.411  c16.044-25.253,34.228-53.875,34.228-103.688c0-15.887-1.645-29.491-5.08-41.219L203.553,77.779L203.553,77.779z M91.969,306.503  c0-42.52,24.177-83.199,47.558-122.539c17.192-28.927,33.556-56.479,37.901-82.321c0.527,5.327,0.781,11.092,0.781,17.356  c0,43.997-15.815,68.891-31.11,92.965c-14.683,23.111-29.866,47.01-29.866,85.134c0,37.666,15.047,69.332,43.513,91.575  c25.042,19.567,58.965,30.343,95.52,30.343c36.539,0,70.421-10.779,95.402-30.351c28.376-22.232,43.376-53.894,43.376-91.567  c0-38.086-14.937-61.973-29.383-85.073C350.6,187.94,335.026,163.035,335.026,119c0-5.494,0.157-10.584,0.474-15.333  c4.829,25.253,20.769,52.121,37.495,80.294c23.353,39.341,47.504,80.021,47.504,122.543c0,40.456-12.773,72.225-37.968,94.422  c-27.846,24.534-70.337,36.979-126.297,36.99c-55.961-0.011-98.453-12.456-126.297-36.99  C104.744,378.727,91.969,346.959,91.969,306.503z"/>
<path d="M270.207,378.968c5.521,0,9.998-4.476,9.998-9.998v-0.192c0-5.522-4.477-9.998-9.998-9.998  c-5.521,0-9.998,4.476-9.998,9.998v0.192C260.209,374.491,264.685,378.968,270.207,378.968z"/>
<path d="M298.535,378.968c5.521,0,9.998-4.476,9.998-9.998v-0.192c0-5.522-4.477-9.998-9.998-9.998  c-5.521,0-9.998,4.476-9.998,9.998v0.192C288.537,374.491,293.013,378.968,298.535,378.968z"/>
<path d="M241.88,378.968c5.521,0,9.998-4.476,9.998-9.998v-0.192c0-5.522-4.477-9.998-9.998-9.998s-9.998,4.476-9.998,9.998v0.192  C231.882,374.491,236.358,378.968,241.88,378.968z"/>
<path d="M213.551,378.968c5.521,0,9.998-4.476,9.998-9.998v-0.192c0-5.522-4.477-9.998-9.998-9.998  c-5.521,0-9.998,4.476-9.998,9.998v0.192C203.553,374.491,208.029,378.968,213.551,378.968z"/>
<g>
</g>
<g>
</g>
<g>
</g>
<g>
</g>
<g>
</g>
<g>
</g>
<g>
</g>
<g>
</g>
<g>
</g>
<g>
</g>
<g>
</g>
<g>
</g>
<g>
</g>
<g>
</g>
<g>
</g>
</svg>
