<?xml version="1.0" encoding="iso-8859-1"?>
<!-- Generator: Adobe Illustrator 19.0.0, SVG Export Plug-In . SVG Version: 6.00 Build 0)  -->
<svg xmlns="http://www.w3.org/2000/svg" xmlns:xlink="http://www.w3.org/1999/xlink" version="1.1" id="Layer_1" x="0px" y="0px" viewBox="0 0 512.002 512.002" style="enable-background:new 0 0 512.002 512.002;" xml:space="preserve">
<g>
	<polygon style="fill:#F45034;" points="28.162,448 10.001,502.001 142.001,502.001 123.84,448  "/>
	<polygon style="fill:#F45034;" points="388.162,448 370.001,502.001 502.001,502.001 483.84,448  "/>
</g>
<g>
	<polyline style="fill:#F29C0B;" points="94.001,88.333 94.001,448 58.001,448 58.001,88.333  "/>
	<polyline style="fill:#F29C0B;" points="454.001,88.333 454.001,448 418.001,448 418.001,88.333  "/>
	<circle style="fill:#F29C0B;" cx="76.001" cy="51" r="41"/>
	<circle style="fill:#F29C0B;" cx="436.001" cy="51" r="41"/>
</g>
<path d="M256.128,265.119c-5.523,0-10-4.477-10-10s4.477-10,10-10h0.107c0.026,0,0.054,0,0.08,0c5.486,0,9.955,4.425,9.998,9.921  c0.043,5.522-4.398,10.035-9.921,10.078L256.128,265.119z"/>
<path d="M511.48,498.813l-18.161-54.001c-1.369-4.071-5.184-6.813-9.479-6.813h-19.839V93.596c13.842-9.13,23-24.81,23-42.596  c0-28.122-22.878-51-51-51s-51,22.878-51,51c0,17.786,9.158,33.466,23,42.596v9.885c-4.534,66.814-51.662,122.661-117.727,137.796  c-5.384,1.233-8.748,6.597-7.515,11.98c1.061,4.632,5.18,7.77,9.739,7.77c0.739,0,1.49-0.083,2.242-0.255  c37.379-8.563,71.299-29.809,95.511-59.823c6.775-8.398,12.705-17.4,17.75-26.852V438h-19.839c-4.294,0-8.109,2.742-9.479,6.813  l-18.161,54.001c-1.026,3.051-0.521,6.41,1.358,9.024c1.878,2.614,4.901,4.164,8.12,4.164h132c3.219,0,6.242-1.55,8.12-4.164  C512,505.223,512.505,501.865,511.48,498.813z M436.001,20c17.093,0,31,13.907,31,31s-13.907,31-31,31s-31-13.907-31-31  S418.908,20,436.001,20z M428.144,101.393c2.562,0.398,5.186,0.607,7.857,0.607c2.722,0,5.393-0.22,8-0.632V438h-16  C428.001,438,428.101,102.263,428.144,101.393z M383.915,492.001L395.35,458h81.303l11.435,34.001H383.915z"/>
<path d="M224.493,241.829c-68.07-14.381-117.952-74.193-120.492-143.406v-4.827c13.842-9.13,23-24.81,23-42.596  c0-28.122-22.878-51-51-51s-51,22.878-51,51c0,17.786,9.158,33.466,23,42.596V438H28.163c-4.294,0-8.109,2.742-9.479,6.813  l-18.161,54c-1.026,3.051-0.521,6.41,1.358,9.024c1.878,2.614,4.901,4.164,8.12,4.164h132c3.219,0,6.242-1.55,8.12-4.164  c1.879-2.614,2.384-5.973,1.358-9.024l-18.161-54.001c-1.369-4.071-5.184-6.813-9.479-6.813h-19.838V173.621  c5.316,10.032,11.629,19.565,18.891,28.418c24.801,30.239,59.416,51.319,97.467,59.359c0.697,0.147,1.392,0.218,2.077,0.218  c4.625,0,8.779-3.229,9.774-7.935C233.352,248.277,229.897,242.971,224.493,241.829z M76.001,20c17.093,0,31,13.907,31,31  s-13.906,31-31,31s-31-13.907-31-31S58.908,20,76.001,20z M76.001,102c2.722,0,5.393-0.22,8-0.632V438h-16V101.368  C70.609,101.78,73.28,102,76.001,102z M116.653,458l11.435,34.001H23.915L35.35,458H116.653z"/>
<g>
</g>
<g>
</g>
<g>
</g>
<g>
</g>
<g>
</g>
<g>
</g>
<g>
</g>
<g>
</g>
<g>
</g>
<g>
</g>
<g>
</g>
<g>
</g>
<g>
</g>
<g>
</g>
<g>
</g>
</svg>
