<?xml version="1.0" encoding="iso-8859-1"?>
<!-- Generator: Adobe Illustrator 19.0.0, SVG Export Plug-In . SVG Version: 6.00 Build 0)  -->
<svg xmlns="http://www.w3.org/2000/svg" xmlns:xlink="http://www.w3.org/1999/xlink" version="1.1" id="Layer_1" x="0px" y="0px" viewBox="0 0 512.001 512.001" style="enable-background:new 0 0 512.001 512.001;" xml:space="preserve">
<path style="fill:#FFB35E;" d="M128.234,100.785l0.009-0.009c-0.024-0.138-3.216-32.028,14.502-49.417  c17.728-17.39,49.07-14.306,49.208-14.293l0.005-0.005l-0.007,0.007l0.004-0.004l-0.005,0.005  c0.025,0.265,3.943,32.818-13.746,50.177C160.443,104.679,128.234,100.785,128.234,100.785z"/>
<path style="fill:#F29C0B;" d="M89.993,168.868l0.012-0.005c0.03-0.137,9.262-30.828,32.279-40.13  c23.027-9.299,50.814,5.523,50.937,5.588l0.006-0.003l-0.009,0.004l0.005-0.002l-0.007,0.003  c-0.078,0.255-8.892,31.835-31.871,41.121C118.272,184.769,89.993,168.868,89.993,168.868z"/>
<g>
	<path style="fill:#FFB35E;" d="M78.59,260.724l0.009-0.009c-0.026-0.137-3.694-31.976,13.762-49.628   c17.467-17.653,48.851-15.038,48.989-15.027l0.005-0.005l-0.007,0.007l0.004-0.004l-0.005,0.005   c0.029,0.265,4.433,32.755-12.995,50.377C110.854,264.136,78.59,260.724,78.59,260.724z"/>
	<path style="fill:#FFB35E;" d="M116.315,342.194l0.005-0.012c-0.074-0.118-15.068-28.445-5.224-51.235   c9.853-22.795,40.04-31.77,40.173-31.81l0.003-0.006l-0.004,0.009l0.002-0.005l-0.003,0.007   c0.123,0.236,16.039,28.901,6.211,51.654C147.611,333.642,116.315,342.194,116.315,342.194z"/>
	<path style="fill:#FFB35E;" d="M193.661,398.28l-0.001-0.012c-0.122-0.068-26.864-17.732-29.158-42.451   c-2.288-24.728,19.896-47.082,19.993-47.181l-0.001-0.007l0.001,0.01l-0.001-0.006l0.001,0.007   c0.222,0.148,27.936,17.667,30.225,42.346C217.02,375.765,193.661,398.28,193.661,398.28z"/>
	<path style="fill:#FFB35E;" d="M96.243,142.8l-0.003-0.012c-0.131-0.05-29.13-13.696-34.945-37.831   c-5.81-24.144,12.938-49.449,13.02-49.56l-0.002-0.006l0.002,0.009l-0.001-0.006l0.002,0.007   c0.24,0.115,30.181,13.478,35.985,37.574C116.132,117.168,96.243,142.8,96.243,142.8z"/>
	<path style="fill:#FFB35E;" d="M73.974,219.705l-0.007-0.01c-0.14,0-32.106-2.313-46.205-22.746   c-14.099-20.443-5.696-50.795-5.66-50.929l-0.004-0.005l0.006,0.008l-0.003-0.005l0.004,0.006   c0.266,0.021,33.008,1.732,47.084,22.131C83.323,188.638,73.974,219.705,73.974,219.705z"/>
</g>
<path style="fill:#F29C0B;" d="M88.097,302.099l-0.011-0.006c-0.128,0.057-30.257,10.982-51.465-1.923  c-21.211-12.915-26.598-44.391-26.619-44.527l-0.006-0.003l0.008,0.005L10,255.642l0.006,0.004  c0.251-0.089,31.525-11.545,52.697,1.34C83.962,269.92,88.097,302.099,88.097,302.099z"/>
<path style="fill:#FFB35E;" d="M123.212,352.951h-0.013c-0.078,0.116-19.793,25.384-44.616,25.724  c-24.831,0.333-46.124-23.465-46.215-23.569h-0.007h0.01h-0.006h0.007c0.165-0.209,20.567-26.535,45.349-26.874  C102.607,327.892,123.212,352.951,123.212,352.951z"/>
<path style="fill:#F29C0B;" d="M185.438,396.554l-0.012,0.005c-0.031,0.136-9.416,30.781-32.478,39.968  c-23.073,9.184-51.463-5.435-51.585-5.5l-0.006,0.003l0.009-0.004l-0.005,0.002l0.007-0.003c0.08-0.254,9.728-32.132,32.753-41.304  C157.239,380.511,185.438,396.554,185.438,396.554z"/>
<path style="fill:#FFB35E;" d="M248.103,410.965l-0.01,0.009c0.02,0.143,2.18,33.081-16.942,50.338  c-19.133,17.257-52.253,13.525-52.396,13.507l-0.005,0.005l0.007-0.007l-0.004,0.004l0.006-0.005  c-0.016-0.274-2.375-34.497,16.716-51.724C214.644,405.791,248.103,410.965,248.103,410.965z"/>
<path style="fill:#F29C0B;" d="M333.796,87.247c-17.689-17.36-13.771-49.912-13.746-50.177l-0.005-0.005l0.004,0.004l-0.007-0.007  l0.005,0.005c0.138-0.013,31.48-3.097,49.208,14.293c17.718,17.389,14.526,49.279,14.502,49.417l0.009,0.009  C383.764,100.785,351.556,104.679,333.796,87.247z"/>
<g>
	<path style="fill:#FFB35E;" d="M370.654,175.443c-22.979-9.286-31.793-40.867-31.871-41.121l-0.007-0.003l0.005,0.002l-0.009-0.004   l0.006,0.003c0.123-0.064,27.91-14.887,50.937-5.588c23.017,9.302,32.249,39.993,32.279,40.13l0.012,0.005   C422.005,168.868,393.726,184.769,370.654,175.443z"/>
	<path style="fill:#FFB35E;" d="M383.646,246.44c-17.428-17.622-13.024-50.112-12.995-50.377l-0.005-0.005l0.004,0.004l-0.007-0.007   l0.005,0.005c0.138-0.011,31.523-2.626,48.989,15.027c17.456,17.652,13.788,49.491,13.762,49.628l0.009,0.009   C433.408,260.724,401.144,264.136,383.646,246.44z"/>
</g>
<path style="fill:#F29C0B;" d="M354.522,310.795c-9.828-22.753,6.088-51.418,6.211-51.654l-0.003-0.007l0.002,0.005l-0.004-0.009  l0.003,0.006c0.133,0.04,30.32,9.015,40.173,31.81c9.843,22.79-5.15,51.117-5.224,51.235l0.005,0.012  C395.684,342.194,364.387,333.642,354.522,310.795z"/>
<g>
	<path style="fill:#FFB35E;" d="M297.279,350.986c2.289-24.679,30.004-42.198,30.225-42.346l0.001-0.007l-0.001,0.006l0.001-0.01   l-0.001,0.007c0.097,0.099,22.281,22.453,19.993,47.181c-2.294,24.719-29.036,42.383-29.158,42.451l-0.001,0.012   C318.338,398.28,294.978,375.765,297.279,350.986z"/>
	<path style="fill:#FFB35E;" d="M401.696,92.974c5.805-24.095,35.745-37.459,35.985-37.574l0.002-0.007l-0.001,0.006l0.002-0.009   l-0.002,0.006c0.082,0.112,18.831,25.416,13.02,49.56c-5.815,24.135-34.814,37.781-34.945,37.831l-0.003,0.012   C415.755,142.8,395.866,117.168,401.696,92.974z"/>
</g>
<path style="fill:#F29C0B;" d="M442.81,168.157c14.076-20.4,46.819-22.111,47.084-22.131l0.004-0.006l-0.003,0.005l0.006-0.008  l-0.004,0.005c0.036,0.134,8.439,30.485-5.66,50.929c-14.1,20.433-46.066,22.746-46.205,22.746l-0.007,0.01  C438.024,219.705,428.675,188.638,442.81,168.157z"/>
<g>
	<path style="fill:#FFB35E;" d="M449.296,256.984c21.172-12.885,52.446-1.429,52.697-1.34l0.006-0.004l-0.005,0.003l0.008-0.005   l-0.006,0.003c-0.022,0.137-5.409,31.612-26.619,44.527c-21.207,12.906-51.337,1.981-51.465,1.923l-0.011,0.006   C423.902,302.099,428.036,269.92,449.296,256.984z"/>
	<path style="fill:#FFB35E;" d="M434.275,328.234c24.782,0.339,45.184,26.665,45.349,26.874h0.007h-0.006h0.01h-0.007   c-0.091,0.105-21.383,23.903-46.215,23.569c-24.823-0.34-44.538-25.608-44.616-25.724h-0.013   C388.786,352.951,409.391,327.892,434.275,328.234z"/>
	<path style="fill:#FFB35E;" d="M377.878,389.722c23.025,9.172,32.673,41.05,32.753,41.304l0.007,0.003l-0.005-0.002l0.009,0.004   l-0.006-0.003c-0.122,0.065-28.512,14.684-51.585,5.5c-23.063-9.187-32.448-39.832-32.478-39.968l-0.012-0.005   C326.561,396.554,354.76,380.511,377.878,389.722z"/>
</g>
<path style="fill:#F29C0B;" d="M316.523,423.091c19.091,17.227,16.733,51.45,16.716,51.724l0.006,0.005l-0.004-0.004l0.007,0.007  l-0.005-0.005c-0.144,0.018-33.263,3.75-52.396-13.507c-19.122-17.256-16.962-50.195-16.942-50.338l-0.01-0.009  C263.895,410.965,297.355,405.791,316.523,423.091z"/>
<path d="M510.559,250.47c-1.298-2.148-3.277-3.636-5.497-4.348c-4.883-1.72-36.028-11.789-59.698,1.597  c0.627-6.334,0.933-12.697,0.92-19.068c11.942-2.103,33.948-8.29,46.186-26.025c15.885-23.034,8.366-54.395,7.147-58.971  c-0.535-2.199-1.815-4.23-3.777-5.68c-2.047-1.512-4.485-2.125-6.834-1.915c-4.898,0.331-38.561,3.422-54.426,26.416v-0.001  c-0.07,0.101-0.13,0.205-0.199,0.307c-1.929-5.22-4.071-10.351-6.442-15.372c10.548-6.566,27.634-19.976,32.486-40.114  c6.543-27.189-11.693-53.703-14.521-57.597c-1.226-1.771-3.03-3.161-5.246-3.852c-2.547-0.792-5.171-0.517-7.391,0.576  c-4.187,1.945-30.986,15.195-39.76,39.156c-1.165-12.557-5.146-29.478-17.251-41.359C356.325,24.67,324.22,26.66,319.41,27.084  c-2.166,0.137-4.302,0.977-6.036,2.53c-2.001,1.791-3.117,4.215-3.303,6.71c-0.536,5.192-3.115,38.597,16.72,58.061h-0.001  c14.801,14.528,36.971,16.77,49.243,16.77c1.201,0,2.302-0.022,3.297-0.055c0.292,0.433,0.609,0.854,0.977,1.247  c1.349,1.447,2.664,2.916,3.956,4.402c-23.228-4.598-46.287,6.715-49.923,8.61c-2.054,1.017-3.771,2.741-4.747,5.009  c-0.991,2.303-1.049,4.775-0.341,6.993c1.39,4.705,11.74,36.884,37.655,47.356c1.247,0.504,2.503,0.93,3.764,1.32  c-0.193,0.012-0.366,0.024-0.511,0.034c-2.395,0.116-4.755,1.089-6.584,2.918c-1.725,1.725-2.688,3.922-2.888,6.175  c-0.612,5.161-3.7,38.545,15.849,58.311h-0.001c1.059,1.071,2.162,2.072,3.294,3.018c-7.629-4.13-14.038-6.259-15.941-6.845  c-2.307-0.767-4.896-0.701-7.284,0.381c-2.159,0.978-3.804,2.629-4.796,4.594c-2.334,4.363-17.535,34.514-6.468,60.14  c0.229,0.532,0.483,1.045,0.73,1.563c-4.938-7.815-9.882-13.104-11.264-14.523c-1.714-1.831-4.113-3.019-6.804-3.153  c-2.29-0.108-4.424,0.547-6.173,1.755c-4.2,2.748-31.932,21.886-34.509,49.661l0,0c-1.606,17.303,6.741,33.167,14.048,43.453  c-14.748,4.143-30.094,6.323-45.63,6.378c-15.358-0.103-30.528-2.284-45.112-6.382c7.308-10.287,15.655-26.144,14.049-43.449  c-2.555-27.528-29.817-46.572-34.399-49.589c-1.77-1.255-3.96-1.94-6.282-1.829c-2.662,0.133-5.037,1.298-6.747,3.097  c-1.358,1.391-6.346,6.708-11.323,14.584c0.248-0.52,0.502-1.034,0.732-1.567c10.969-25.397-3.865-55.241-6.408-60.026  c-0.986-2.015-2.652-3.711-4.854-4.709c-2.358-1.068-4.912-1.145-7.194-0.408c-1.826,0.559-8.31,2.694-16.04,6.879  c1.134-0.948,2.239-1.95,3.3-3.023c19.45-19.666,16.492-52.811,15.857-58.239c-0.188-2.278-1.153-4.504-2.896-6.247  c-1.801-1.801-4.117-2.771-6.475-2.91c-0.167-0.013-0.383-0.027-0.623-0.042c1.262-0.389,2.519-0.816,3.766-1.32  c25.663-10.371,36.063-42.03,37.615-47.221c0.754-2.251,0.713-4.778-0.299-7.128c-0.969-2.249-2.665-3.962-4.697-4.981  c-3.595-1.877-26.707-13.24-49.986-8.624c1.294-1.49,2.614-2.964,3.967-4.415c0.367-0.394,0.685-0.815,0.977-1.247  c0.995,0.033,2.097,0.055,3.298,0.055c12.272,0,34.442-2.243,49.241-16.769c19.763-19.394,17.274-52.626,16.725-58.012  c-0.175-2.512-1.294-4.956-3.309-6.758c-1.678-1.502-3.73-2.336-5.824-2.512c-4.155-0.384-36.855-2.696-57.06,17.121  c-12.104,11.88-16.086,28.801-17.25,41.358c-8.68-23.707-35.006-36.929-39.627-39.095c-2.246-1.146-4.927-1.448-7.524-0.64  c-2.196,0.685-3.989,2.059-5.214,3.81c-2.768,3.806-21.111,30.383-14.551,57.643c4.853,20.141,21.939,33.548,32.486,40.111  c-2.372,5.021-4.513,10.153-6.443,15.374c-0.068-0.101-0.129-0.205-0.198-0.306c-15.711-22.769-48.872-26.022-54.284-26.406  c-2.389-0.25-4.888,0.361-6.977,1.904c-1.943,1.435-3.217,3.442-3.76,5.619c-1.195,4.471-8.797,35.938,7.133,59.036  c12.239,17.737,34.247,23.923,46.184,26.024c-0.012,6.37,0.293,12.732,0.92,19.066c-23.644-13.372-54.743-3.34-59.652-1.614  c-2.237,0.708-4.235,2.202-5.542,4.366c-1.325,2.194-1.708,4.697-1.264,7.035c0.639,3.567,7.148,36.533,31.246,51.206  c9.738,5.927,20.656,7.786,30.524,7.785c9.431,0,17.885-1.698,23.441-3.167c0.999,2.033,2.033,4.04,3.097,6.023  c-3.31-0.708-6.736-1.122-10.262-1.122c-0.211,0-0.427,0.001-0.638,0.004c-27.77,0.38-49.416,26.101-52.818,30.37  c-1.497,1.748-2.402,4.02-2.402,6.503c0,2.653,1.035,5.066,2.723,6.856c2.687,2.947,25.235,26.718,52.982,26.716  c0.216,0,0.435-0.001,0.65-0.004c19.932-0.273,36.54-13.304,45.542-22.156c4.288,4.117,8.755,8.017,13.381,11.694  c-2.423,0.546-4.839,1.269-7.223,2.219c-25.81,10.28-36.832,42.041-38.482,47.243c-0.817,2.296-0.802,4.895,0.237,7.308  c0.996,2.314,2.764,4.062,4.875,5.069c2.66,1.325,19.803,9.47,39.021,9.469c6.782,0,13.826-1.016,20.579-3.703  c8.436-3.36,15.257-8.877,20.684-14.969c-9.459,18.463-8.814,39.97-8.578,44.196c0.051,2.287,0.883,4.568,2.52,6.413  c1.676,1.888,3.907,2.992,6.231,3.283l0,0c0.114,0.014,3.641,0.433,9.135,0.433c12.565,0,35.416-2.193,51.21-16.438  c10.567-9.536,15.696-22.525,18.149-33.903c2.453,11.378,7.582,24.368,18.15,33.905c15.794,14.245,38.643,16.437,51.207,16.436  c4.36,0,7.483-0.264,8.643-0.38c2.499-0.189,4.932-1.313,6.727-3.335c1.628-1.835,2.459-4.104,2.516-6.38  c0.237-4.23,0.889-25.76-8.579-44.236c5.428,6.095,12.251,11.614,20.69,14.976c6.754,2.688,13.793,3.703,20.576,3.703  c19.069-0.001,36.103-8.022,38.958-9.438c2.138-1.003,3.931-2.763,4.937-5.1c1.021-2.371,1.052-4.92,0.276-7.187  c-1.547-4.911-12.544-37.017-38.52-47.363c-2.387-0.951-4.806-1.673-7.232-2.219c4.628-3.678,9.097-7.579,13.387-11.697  c9.001,8.852,25.611,21.886,45.545,22.159c0.218,0.003,0.434,0.004,0.65,0.004c27.493-0.001,49.888-23.344,52.903-26.631  c1.733-1.798,2.8-4.245,2.8-6.941c0-2.46-0.89-4.713-2.364-6.455c-3.343-4.201-25.024-30.038-52.855-30.418  c-0.214-0.003-0.426-0.004-0.638-0.004c-3.522,0-6.949,0.406-10.257,1.112c1.062-1.979,2.093-3.982,3.091-6.011  c5.555,1.469,14.009,3.166,23.441,3.166c9.867,0,20.79-1.86,30.528-7.786c23.706-14.435,30.39-46.579,31.207-51.009  C512.29,255.309,511.922,252.727,510.559,250.47z M340.801,80.11L340.801,80.11c-8.389-8.232-10.901-22.507-11.148-33.17  c9.152,0.428,23.498,2.63,32.598,11.556c8.601,8.441,11.208,22.683,11.688,32.636C364.613,90.92,349.894,89.035,340.801,80.11z   M149.747,58.499c9.099-8.925,23.437-11.129,32.6-11.557c-0.247,10.662-2.761,24.937-11.148,33.168  c-9.093,8.925-23.813,10.811-33.138,11.021C138.541,81.179,141.148,66.938,149.747,58.499z M66.145,208.371  c-9.725-2.178-23.311-7.185-30.151-17.099c-7.237-10.494-6.955-24.995-5.809-34.094c10.466,2.071,24.103,6.992,30.772,16.658  C68.194,184.322,67.532,199.148,66.145,208.371z M41.822,291.628c-10.881-6.625-16.806-20.059-19.677-28.962  c9.435-2.037,24.561-3.711,35.358,2.86c10.885,6.623,16.327,20.43,18.821,29.416C66.559,296.922,52.112,297.89,41.822,291.628z   M126.028,138.006c11.813-4.77,25.905-1.331,34.54,1.773c-4.302,9.76-12.078,21.991-22.971,26.393  c-11.814,4.776-26.138,0.895-34.835-2.472C107.009,154.685,114.858,142.52,126.028,138.006z M71.018,102.617  c-2.982-12.392,2.496-25.827,6.834-33.904c9.021,5.692,19.978,15.184,22.729,26.604c2.984,12.386-2.961,25.984-7.569,34.092  C84.718,123.882,73.839,114.328,71.018,102.617z M92.691,181.197c5.89,2.47,14.671,5.491,24.514,6.659  c-9.575,1.997-20.27,5.945-29.07,13.532C89.252,194.576,90.766,187.832,92.691,181.197z M88.273,250.925  c0.331-9.959,2.725-24.238,11.196-32.804c8.973-9.068,23.274-11.484,32.424-12.046c-0.087,10.666-2.387,24.978-10.652,33.335  C112.283,248.469,97.592,250.574,88.273,250.925z M78.449,368.677c-12.732,0.13-24.898-8.061-32.062-14.075  c6.904-6.739,18.823-16.197,31.473-16.37c12.722-0.136,24.689,8.628,31.578,14.915C102.218,360.013,90.497,368.512,78.449,368.677z   M101.914,286.982c-1.196,2.769-2.085,5.58-2.737,8.397c-0.35-0.831-0.698-1.662-1.036-2.501c-2.918-7.242-5.29-14.62-7.161-22.076  c8.49-0.502,19.765-2.235,30.185-7.271C113.585,269.252,106.259,276.931,101.914,286.982z M121.772,329.545  c-3.313-9.4-6.273-23.572-1.498-34.63c5.06-11.704,17.503-19.156,25.823-23.008c3.795,9.971,6.856,24.143,2.2,34.923  C143.245,318.527,130.325,325.83,121.772,329.545z M132.618,346.563c9.433-4.479,21.631-12.072,29.593-23.777  c-4.922,9.439-8.841,21.261-7.666,33.954c0.354,3.818,1.176,7.472,2.332,10.948C148.195,361.464,140.065,354.4,132.618,346.563z   M149.25,427.236c-11.835,4.711-26.133,1.367-34.976-1.691c4.039-8.76,11.792-21.851,23.547-26.533  c11.837-4.718,26.141-0.763,34.821,2.646C168.351,410.652,160.44,422.778,149.25,427.236z M174.459,354.895  c-1.173-12.677,6.172-25.189,11.629-32.572c8.111,6.925,17.59,17.888,18.676,29.587c1.178,12.687-6.657,25.292-12.382,32.655  C184.968,377.907,175.573,366.892,174.459,354.895z M186.93,417.431c1.774-3.071,3.236-6.001,4.407-8.592  c1.496,0.533,2.994,1.047,4.494,1.54c-2.459,1.533-4.829,3.279-7.054,5.286C188.141,416.241,187.527,416.831,186.93,417.431z   M224.454,453.886c-10.086,9.096-25.754,11.028-35.576,11.256c0.677-9.933,3.381-25.679,13.298-34.627  c9.569-8.637,24.381-10.274,34.235-10.274c0.531,0,1.047,0.005,1.548,0.014C237.125,430.535,233.888,445.372,224.454,453.886z   M374.4,166.172c-10.894-4.402-18.669-16.635-22.972-26.395c8.623-3.1,22.724-6.545,34.539-1.772  c11.163,4.512,19.011,16.663,23.259,25.676C400.509,167.035,386.139,170.918,374.4,166.172z M287.546,453.888  c-9.436-8.515-12.673-23.353-13.507-33.634c9.779-0.179,25.699,1.16,35.783,10.261h0.001c9.911,8.944,12.617,24.68,13.295,34.627  C313.296,464.914,297.629,462.981,287.546,453.888z M323.223,415.667c-2.229-2.012-4.61-3.747-7.076-5.281  c1.509-0.496,3.016-1.013,4.521-1.549c1.173,2.595,2.625,5.516,4.403,8.595C324.474,416.832,323.859,416.242,323.223,415.667z   M337.54,354.893c-1.113,11.999-10.509,23.015-17.923,29.672c-5.725-7.363-13.56-19.968-12.382-32.655l0,0  c1.086-11.7,10.566-22.663,18.678-29.588C331.36,329.693,338.714,342.21,337.54,354.893z M397.723,425.546  c-8.844,3.058-23.14,6.399-34.972,1.691c-11.185-4.455-19.093-16.567-23.387-25.561c8.699-3.397,23.048-7.353,34.813-2.665h0.001  C385.928,403.692,393.678,416.773,397.723,425.546z M355.116,367.698c1.156-3.481,1.983-7.138,2.338-10.96  c1.174-12.689-2.742-24.509-7.66-33.944c7.96,11.698,20.156,19.293,29.588,23.771C371.933,354.406,363.8,361.472,355.116,367.698z   M390.234,329.524c-8.561-3.737-21.513-11.068-26.533-22.694c-4.657-10.781-1.595-24.954,2.2-34.925  c8.312,3.849,20.761,11.3,25.821,23.007C396.496,305.964,393.544,320.125,390.234,329.524z M390.839,263.535  c10.414,5.032,21.691,6.769,30.179,7.272c-1.871,7.455-4.242,14.832-7.16,22.072c-0.338,0.838-0.686,1.669-1.036,2.5  c-0.655-2.818-1.544-5.63-2.74-8.399C405.739,276.931,398.416,269.254,390.839,263.535z M434.138,338.233L434.138,338.233  c12.645,0.173,24.558,9.622,31.472,16.371c-7.164,6.015-19.301,14.256-32.059,14.074c-12.049-0.165-23.771-8.664-30.991-15.53  C409.449,346.861,421.377,338.105,434.138,338.233z M390.758,239.409L390.758,239.409c-8.266-8.357-10.565-22.67-10.652-33.336  c9.141,0.562,23.448,2.976,32.422,12.045c8.467,8.562,10.864,22.827,11.198,32.785C414.393,250.534,399.661,248.414,390.758,239.409  z M394.783,187.856c9.845-1.167,18.632-4.186,24.524-6.658c1.925,6.633,3.438,13.375,4.554,20.185  C415.059,193.795,404.359,189.852,394.783,187.856z M419.005,129.397c-4.6-8.129-10.554-21.769-7.587-34.08l0,0  c2.751-11.42,13.708-20.912,22.729-26.604c4.335,8.07,9.816,21.509,6.834,33.902C438.161,114.319,427.296,123.869,419.005,129.397z   M451.041,173.835L451.041,173.835c6.67-9.667,20.308-14.587,30.773-16.658c1.146,9.088,1.431,23.596-5.808,34.092  c-6.838,9.91-20.409,14.917-30.133,17.097C444.502,199.127,443.848,184.258,451.041,173.835z M470.179,291.627  c-10.285,6.259-24.718,5.295-34.485,3.32c2.516-8.995,7.982-22.838,18.801-29.42h0.001c10.791-6.569,25.907-4.899,35.356-2.858  C486.981,271.572,481.057,285.003,470.179,291.627z"/>
<g>
</g>
<g>
</g>
<g>
</g>
<g>
</g>
<g>
</g>
<g>
</g>
<g>
</g>
<g>
</g>
<g>
</g>
<g>
</g>
<g>
</g>
<g>
</g>
<g>
</g>
<g>
</g>
<g>
</g>
</svg>
