<?xml version="1.0" encoding="iso-8859-1"?>
<!-- Generator: Adobe Illustrator 19.0.0, SVG Export Plug-In . SVG Version: 6.00 Build 0)  -->
<svg xmlns="http://www.w3.org/2000/svg" xmlns:xlink="http://www.w3.org/1999/xlink" version="1.1" id="Layer_1" x="0px" y="0px" viewBox="0 0 512 512" style="enable-background:new 0 0 512 512;" xml:space="preserve">
<rect x="81.538" y="10" style="fill:#E23225;" width="348.92" height="491.997"/>
<rect x="127.967" y="64.008" style="fill:#EFEEEE;" width="256.063" height="383.99"/>
<path style="fill:#E23225;" d="M274.058,190.002h-6.013c-26.505,0-47.992,21.486-47.992,47.993v210H322.05V237.993  C322.05,211.488,300.564,190.002,274.058,190.002z"/>
<g>
	<rect x="169.025" y="256.123" style="fill:#165DB2;" width="25.059" height="102.207"/>
	<circle style="fill:#165DB2;" cx="271.053" cy="169.005" r="20.999"/>
</g>
<rect x="266.053" y="256.003" style="fill:#EFEEEE;" width="55.998" height="102.327"/>
<path d="M430.46,0H81.54c-5.522,0-10,4.477-10,10V502c0,5.523,4.478,10,10,10h348.92c5.522,0,10-4.477,10-10V10  C440.46,4.477,435.982,0,430.46,0z M420.461,492.001H91.54V19.999h328.921V492.001z"/>
<path d="M384.033,149.406c-5.522,0-10,4.477-10,10v0.12c0,5.523,4.478,10,10,10s10-4.477,10-10v-0.12  C394.032,153.883,389.554,149.406,384.033,149.406z"/>
<path d="M128.04,457.994h255.992c5.522,0,10-4.477,10-10V190.79c0-5.523-4.478-10-10-10s-10,4.477-10,10v247.205H332.05V358.33V256  v-18.007c0-23.602-14.181-43.942-34.462-52.985c0.434-0.716,0.834-1.454,1.21-2.206l40.291,17.381  c1.291,0.557,2.634,0.82,3.956,0.82c3.871,0,7.557-2.261,9.187-6.042c2.188-5.071-0.149-10.956-5.221-13.143l-29.713-12.818  l29.713-12.818c5.071-2.188,7.409-8.072,5.221-13.143c-2.186-5.07-8.068-7.407-13.143-5.221l-40.291,17.381  c-5.086-10.184-15.61-17.199-27.746-17.199c-13.595,0-25.164,8.8-29.334,20.999h-18.165c-29.499,0-53.499,23.999-53.499,53.499  v33.626h-1.031c-5.522,0-10,4.477-10,10V358.33c0,5.523,4.478,10,10,10h25.062c5.522,0,10-4.477,10-10V256.127  c0-5.523-4.478-10-10-10h-4.031v-33.626c0-18.471,15.028-33.499,33.499-33.499h18.164c0.722,2.113,1.66,4.127,2.798,6.008  c-20.281,9.043-34.462,29.382-34.462,52.985v200.001H138.04V74.005h235.993v54.141c0,5.523,4.478,10,10,10s10-4.477,10-10v-64.14  c0-5.523-4.478-10-10-10H128.04c-5.522,0-10,4.477-10,10v383.99C118.04,453.518,122.518,457.994,128.04,457.994z M184.085,348.33  h-5.063v-82.205h5.063V348.33z M312.051,348.33h-35.999V266h35.999V348.33z M271.052,158.003c6.065,0,11,4.935,11,11  c0,6.065-4.935,11-11,11c-6.065,0-11-4.935-11-11C260.052,162.938,264.986,158.003,271.052,158.003z M230.053,237.993  c0-20.949,17.044-37.993,37.993-37.993h6.013c20.948,0,37.992,17.044,37.992,37.993v8.006h-45.999c-5.522,0-10,4.477-10,10V358.33  c0,5.523,4.478,10,10,10h45.999v69.665h-81.998L230.053,237.993L230.053,237.993z"/>
<g>
</g>
<g>
</g>
<g>
</g>
<g>
</g>
<g>
</g>
<g>
</g>
<g>
</g>
<g>
</g>
<g>
</g>
<g>
</g>
<g>
</g>
<g>
</g>
<g>
</g>
<g>
</g>
<g>
</g>
</svg>
