<?xml version="1.0" encoding="iso-8859-1"?>
<!-- Generator: Adobe Illustrator 19.0.0, SVG Export Plug-In . SVG Version: 6.00 Build 0)  -->
<svg xmlns="http://www.w3.org/2000/svg" xmlns:xlink="http://www.w3.org/1999/xlink" version="1.1" id="Layer_1" x="0px" y="0px" viewBox="0 0 512 512" style="enable-background:new 0 0 512 512;" xml:space="preserve">
<rect x="81.538" y="10" style="fill:#165DB2;" width="348.92" height="491.997"/>
<rect x="116.547" y="46.837" style="fill:#EFEEEE;" width="278.892" height="418.329"/>
<polygon style="fill:#97CD44;" points="395.448,466.977 329.91,336.539 224.28,466.977 "/>
<path style="fill:#0092E0;" d="M395.448,245V46.837L292.977,165.991c0,0,9.74,16.279,9.881,34.31  c0.141,18.033-24.632,33.37-24.632,33.37l32.815,65.31L395.448,245z"/>
<polygon style="fill:#FC525A;" points="161.003,45.022 248.99,161.647 292.977,165.991 395.448,45.022 "/>
<polygon style="fill:#165DB2;" points="395.45,245 311.041,298.983 395.448,465.163 "/>
<polygon style="fill:#FFB35E;" points="204.996,288.675 163.527,230.142 116.623,256.127 116.623,398.665 "/>
<polygon style="fill:#F277AF;" points="269.152,410.265 223.532,466.977 116.623,466.977 116.623,398.665 179.409,320.521 "/>
<polygon style="fill:#591700;" points="204.996,288.675 163.527,230.142 232.201,192.096 255.522,225.792 "/>
<circle style="fill:#F29C0B;" cx="268.013" cy="192.345" r="35.749"/>
<path d="M430.46,0H81.54c-5.522,0-10,4.477-10,10V502c0,5.523,4.478,10,10,10h348.92c5.522,0,10-4.477,10-10V10  C440.46,4.477,435.982,0,430.46,0z M420.461,492.001H91.54V19.999h328.921V492.001z"/>
<path d="M395.45,139.855c-5.522,0-10,4.477-10,10v0.131c0,5.523,4.478,10,10,10s10-4.477,10-10v-0.131  C405.45,144.332,400.972,139.855,395.45,139.855z"/>
<path d="M106.623,256.243v210.734c0,5.523,4.478,10,10,10h106.892c0.004,0,0.008,0,0.012,0c0.003,0,0.006,0,0.009,0h171.913  c5.522,0,10-4.477,10-10V245.244c0-0.002,0-0.005,0-0.007v-60.895c0-5.523-4.478-10-10-10s-10,4.477-10,10v55.184l-70.452,45.057  l-25.944-51.636c14.663-7.631,24.705-22.96,24.705-40.601c0-9.608-2.983-18.527-8.063-25.897l79.754-94.152v43.207  c0,5.523,4.478,10,10,10s10-4.477,10-10V45.022c0-5.523-4.478-10-10-10H116.623c-5.522,0-10,4.477-10,10v211.161  C106.623,256.203,106.623,256.223,106.623,256.243z M160.542,243.227l31.931,45.069l-20.819,25.911  c-0.002,0.002-0.004,0.005-0.006,0.007l-45.026,56.039V262.019L160.542,243.227z M224.88,207.584  c3.002,8.471,8.429,15.802,15.448,21.153l-34.829,43.349l-27.354-38.609L224.88,207.584z M268.01,146.598  c-5.528,0-10.831,0.986-15.741,2.791l-71.195-94.366h192.798l-82.852,97.809C284.255,148.876,276.396,146.598,268.01,146.598z   M126.623,402.185l53.6-66.709l75.818,75.819l-37.257,45.683h-92.16V402.185z M379.233,456.978H244.591l83.314-102.157  L379.233,456.978z M385.449,263.266v161.537l-46.691-92.926c-0.004-0.008-0.008-0.016-0.012-0.023l-14.724-29.303L385.449,263.266z   M302.105,303.473c0.003,0.005,0.005,0.011,0.008,0.016l15.954,31.751l-49.321,60.476l-75.922-75.923l66.339-82.565  c2.864,0.564,5.821,0.867,8.848,0.867c0.413,0,0.821-0.02,1.231-0.031L302.105,303.473z M268.01,218.095  c-2.924,0-5.732-0.497-8.354-1.399c-0.46-0.209-0.928-0.393-1.406-0.528c-9.372-3.854-15.99-13.078-15.99-23.822  c0-14.199,11.552-25.749,25.749-25.749c14.198,0,25.748,11.551,25.748,25.749C293.758,206.544,282.207,218.095,268.01,218.095z   M156.02,55.021l79.407,105.251c-6.713,6.818-11.303,15.724-12.706,25.643l-64.105,35.515c-0.003,0.002-0.006,0.003-0.009,0.005  l-31.984,17.72V55.021H156.02z"/>
<g>
</g>
<g>
</g>
<g>
</g>
<g>
</g>
<g>
</g>
<g>
</g>
<g>
</g>
<g>
</g>
<g>
</g>
<g>
</g>
<g>
</g>
<g>
</g>
<g>
</g>
<g>
</g>
<g>
</g>
</svg>
