<?xml version="1.0" encoding="iso-8859-1"?>
<!-- Generator: Adobe Illustrator 19.0.0, SVG Export Plug-In . SVG Version: 6.00 Build 0)  -->
<svg xmlns="http://www.w3.org/2000/svg" xmlns:xlink="http://www.w3.org/1999/xlink" version="1.1" id="Layer_1" x="0px" y="0px" viewBox="0 0 512 512" style="enable-background:new 0 0 512 512;" xml:space="preserve">
<circle style="fill:#FC525A;" cx="256" cy="256" r="246.01"/>
<circle style="fill:#EFEEEE;" cx="256" cy="256" r="209"/>
<path style="fill:#165DB2;" d="M186.927,180.564h-45.203c-9.236,0-16.723,7.549-16.723,16.861v134.278  c0,9.312,7.487,16.861,16.723,16.861h228.553c9.236,0,16.723-7.549,16.723-16.861V197.425c0-9.312-7.487-16.861-16.723-16.861  h-45.203H186.927z"/>
<circle style="fill:#0092E0;" cx="256" cy="264.86" r="59"/>
<rect x="169.6" y="152.4" style="fill:#1C237A;" width="47.1" height="28.336"/>
<path d="M260.173,252.492c-0.6,0-1.207-0.054-1.817-0.167c-0.177-0.032-0.354-0.062-0.533-0.087  c-5.469-0.777-9.271-5.84-8.493-11.308s5.831-9.269,11.309-8.493c0.445,0.063,0.889,0.136,1.329,0.216  c5.432,0.997,9.027,6.209,8.03,11.641C269.112,249.117,264.905,252.492,260.173,252.492z"/>
<path d="M256,297.599c-18.056,0-32.744-14.689-32.744-32.745c0-5.523,4.478-10,10-10s10,4.477,10,10  c0,7.027,5.717,12.745,12.744,12.745s12.744-5.717,12.744-12.745c0-5.523,4.478-10,10-10s10,4.477,10,10  C288.744,282.91,274.056,297.599,256,297.599z"/>
<path d="M344.007,235.995c-0.199,0-0.398-0.004-0.599-0.012c-8.337-0.326-14.854-7.374-14.529-15.711  c0.327-8.341,7.393-14.856,15.713-14.531c8.337,0.326,14.854,7.374,14.529,15.711c0,0.001,0,0.002,0,0.003  C358.802,229.591,352.079,235.995,344.007,235.995z M339.137,220.674c-0.104,2.681,1.992,4.947,4.674,5.052  c0.063,0.002,0.128,0.004,0.192,0.004c2.597,0,4.758-2.059,4.86-4.676l0,0L339.137,220.674z M349.129,221.063h0.01H349.129z   M343.997,215.995c-2.596,0-4.758,2.059-4.86,4.676l9.727,0.382c0.104-2.684-1.992-4.95-4.674-5.054  C344.125,215.996,344.062,215.995,343.997,215.995z"/>
<path d="M291.304,509.485c-4.893,0-9.169-3.594-9.886-8.579c-0.786-5.466,3.009-10.535,8.476-11.321  C405.113,473.021,492,372.601,492,256c0-130.131-105.869-236-236-236S20,125.869,20,256c0,116.468,86.773,216.872,201.844,233.548  c5.466,0.792,9.254,5.865,8.462,11.331s-5.871,9.254-11.331,8.462c-60.29-8.737-115.667-38.958-155.928-85.095  C22.391,377.657,0,317.906,0,256c0-68.38,26.629-132.667,74.98-181.019C123.333,26.628,187.62,0,256,0s132.667,26.628,181.02,74.981  C485.371,123.333,512,187.62,512,256c0,61.956-22.423,121.744-63.137,168.35c-40.322,46.157-95.769,76.355-156.124,85.033  C292.257,509.452,291.777,509.485,291.304,509.485z"/>
<path d="M256.135,512c-0.006,0-0.012,0-0.019,0h-0.268c-5.522-0.01-9.991-4.496-9.981-10.018c0.01-5.517,4.485-9.982,10-9.982  c0.006,0,0.012,0,0.019,0h0.268c5.522,0.01,9.991,4.496,9.981,10.018C266.125,507.535,261.649,512,256.135,512z"/>
<path d="M410.856,101.144C369.493,59.78,314.497,37,256,37s-113.493,22.78-154.856,64.144S37,197.503,37,256  s22.78,113.493,64.144,154.856S197.503,475,256,475s113.493-22.78,154.856-64.144S475,314.497,475,256  S452.22,142.507,410.856,101.144z M455,256c0,51.274-19.496,98.078-51.46,133.397l-30.941-30.941  C386.25,357.268,397,345.727,397,331.703V197.425c0-14.811-11.988-26.861-26.724-26.861H226.705v-18.168c0-5.523-4.478-10-10-10  h-47.104c-3.546,0-6.653,1.851-8.429,4.634l-38.57-38.57C157.922,76.496,204.726,57,256,57C365.729,57,455,146.271,455,256z   M204.666,218.808C193.691,231.031,187,247.174,187,264.854c0,38.046,30.953,69,69,69c17.681,0,33.824-6.691,46.046-17.666  l22.376,22.376H141.724c-3.707,0-6.724-3.078-6.724-6.861V197.425c0-3.783,3.017-6.861,6.724-6.861h26.093  c0.58,0.105,1.175,0.168,1.785,0.168h6.988L204.666,218.808z M179.602,165.459v-3.063h27.104v8.168h-21.999L179.602,165.459z   M207,264.854c0-27.019,21.981-49,49-49s49,21.981,49,49s-21.981,49-49,49S207,291.873,207,264.854z M314.9,300.757  c6.403-10.466,10.1-22.76,10.1-35.902c0-38.047-30.953-69-69-69c-13.143,0-25.437,3.697-35.903,10.101l-15.223-15.223h11.831  c0.61,0,1.205-0.063,1.785-0.168h151.787c3.707,0,6.724,3.078,6.724,6.861v134.278c0,3.783-3.017,6.861-6.724,6.861h-17.569  L314.9,300.757z M57,256c0-51.274,19.496-98.078,51.46-133.397l47.961,47.961h-14.698c-14.735,0-26.724,12.05-26.724,26.861v134.278  c0,14.812,11.988,26.861,26.724,26.861h202.698l44.976,44.976C354.078,435.504,307.274,455,256,455C146.271,455,57,365.729,57,256z"/>
<g>
</g>
<g>
</g>
<g>
</g>
<g>
</g>
<g>
</g>
<g>
</g>
<g>
</g>
<g>
</g>
<g>
</g>
<g>
</g>
<g>
</g>
<g>
</g>
<g>
</g>
<g>
</g>
<g>
</g>
</svg>
