<?xml version="1.0" encoding="iso-8859-1"?>
<!-- Generator: Adobe Illustrator 19.0.0, SVG Export Plug-In . SVG Version: 6.00 Build 0)  -->
<svg xmlns="http://www.w3.org/2000/svg" xmlns:xlink="http://www.w3.org/1999/xlink" version="1.1" id="Layer_1" x="0px" y="0px" viewBox="0 0 511.999 511.999" style="enable-background:new 0 0 511.999 511.999;" xml:space="preserve">
<rect x="10" y="10.009" style="fill:#D98325;" width="491.997" height="348.92"/>
<rect x="45.019" y="45.018" style="fill:#1C237A;" width="421.958" height="278.892"/>
<path d="M149.986,55.016h-0.131c-5.523,0-10-4.477-10-10s4.477-10,10-10h0.131c5.523,0,10,4.477,10,10  S155.509,55.016,149.986,55.016z"/>
<g>
	<path style="fill:#FC525A;" d="M205.633,433.212l12.377,5.344c7.34,3.169,12.121,11.783,12.121,20.021v43.416H82.178v-43.416   c0-8.239,4.781-16.853,12.121-20.021l12.41-5.358"/>
</g>
<path style="fill:#0092E0;" d="M370.082,392.329v22.901c0,3.641,2.417,6.925,6.129,8.325l39.756,15  c8.399,3.169,13.87,11.783,13.87,20.021v43.416H260.533v-43.415c0-8.239,5.471-16.853,13.87-20.021l39.756-15  c3.711-1.401,6.129-4.684,6.129-8.325v-22.902"/>
<rect x="314.161" y="386.739" style="fill:#FFB35E;" width="58.588" height="36.814"/>
<path style="fill:#F29C0B;" d="M230.025,356.301c0-52.266-33.063-94.635-73.849-94.635s-73.849,42.37-73.849,94.635  s33.063,106.693,73.849,106.693S230.025,408.566,230.025,356.301z"/>
<path style="fill:#591700;" d="M421.168,211.667c-19.196,16.797-49.443,18.737-64.882,18.507c-3.204-0.324-6.461-0.508-9.774-0.508  c-42.944,0-77.757,6.667-77.757,73.416c0,45.826,34.813,89.247,77.757,89.247c27.051,0,50.872-17.232,64.801-41.438l0.001,0.001  C431.314,319.418,433.168,266.332,421.168,211.667z"/>
<circle style="fill:#FAB617;" cx="375.3" cy="159.905" r="31.906"/>
<circle style="fill:#0092E0;" cx="294.552" cy="106.747" r="16.14"/>
<circle style="fill:#41C0F0;" cx="168.525" cy="161.105" r="75.893"/>
<path d="M352.709,192.536c-2.573,0-5.145-0.987-7.1-2.958c-3.89-3.921-3.894-10.283,0.027-14.172  c3.921-3.89,10.224-3.893,14.112,0.027l0.06,0.061c3.89,3.921,3.864,10.253-0.057,14.142  C357.801,191.57,355.254,192.536,352.709,192.536z"/>
<path d="M376.827,201.815c-5.298,0-9.717-4.161-9.979-9.51c-0.271-5.516,3.982-10.207,9.498-10.478  c5.44-0.267,10.56-2.537,14.415-6.393c8.55-8.55,8.55-22.46,0-31.01c-4.142-4.142-9.648-6.423-15.505-6.423  c-5.857,0-11.364,2.281-15.505,6.423c-3.736,3.735-5.996,8.689-6.365,13.95c-0.387,5.509-5.149,9.657-10.676,9.275  c-5.509-0.387-9.662-5.167-9.275-10.676c0.707-10.068,5.03-19.547,12.174-26.691c16.349-16.348,42.946-16.348,59.294,0  c16.348,16.348,16.348,42.947,0,59.294c-7.374,7.374-17.167,11.716-27.577,12.226C377.158,201.811,376.992,201.815,376.827,201.815z  "/>
<circle style="fill:#FC525A;" cx="427.318" cy="90.007" r="14"/>
<path d="M427.317,114.002c-6.41,0-12.437-2.496-16.97-7.029c-4.534-4.533-7.03-10.56-7.03-16.97s2.497-12.438,7.03-16.97  c4.533-4.533,10.56-7.029,16.969-7.029c0.001,0,0.001,0,0.001,0c6.409,0,12.437,2.496,16.97,7.029s7.029,10.559,7.03,16.97  C451.316,103.237,440.55,114.002,427.317,114.002z M427.318,86.005c-1.442,0-2.391,0.734-2.829,1.171  c-0.438,0.438-1.171,1.387-1.171,2.828s0.734,2.39,1.171,2.828c0.438,0.438,1.387,1.171,2.828,1.171c2.206,0,4-1.794,4-4  c0-1.44-0.734-2.39-1.172-2.827C429.707,86.739,428.759,86.005,427.318,86.005z"/>
<path d="M294.554,132.89c-14.415,0-26.142-11.727-26.142-26.14s11.728-26.14,26.141-26.14c14.414,0,26.14,11.727,26.141,26.14  C320.694,121.163,308.968,132.889,294.554,132.89z M294.554,100.609c-3.387,0-6.142,2.755-6.142,6.141s2.755,6.141,6.142,6.141  c3.386,0,6.142-2.755,6.142-6.142C300.696,103.364,297.94,100.609,294.554,100.609z"/>
<path d="M257.025,163.557c-0.837-1.156-1.725-2.323-2.631-3.487c-0.561-46.883-38.853-84.855-85.866-84.855  c-18.376,0-35.41,5.82-49.393,15.688c-1.604-3.459-5.122-5.832-9.218-5.79c-20.172,0.299-34.835,7.554-41.288,20.425  c-7.137,14.24-3.089,33.101,11.4,53.11c0.846,1.169,1.724,2.336,2.632,3.502c0.563,46.881,38.854,84.85,85.867,84.85  c15.253,0,29.577-4.014,42.007-11.015c1.47,0.205,2.927,0.382,4.368,0.531c3.92,0.406,7.564,0.592,10.955,0.592  c26.524,0,37.427-11.429,41.701-18.83C272.377,209.931,277.417,191.721,257.025,163.557z M168.527,95.215  c36.333,0,65.893,29.559,65.893,65.893c0,22.256-11.103,41.957-28.048,53.893c-36.439-7.193-79.024-31.783-103.463-59.746  C105.882,121.653,134.168,95.215,168.527,95.215z M86.509,114.499c2.329-4.646,8.097-7.696,16.514-8.861  c-6.559,7.733-11.782,16.629-15.295,26.342C84.882,124.875,84.378,118.752,86.509,114.499z M168.527,227  c-26.643,0-49.627-15.904-60-38.709c9.499,7.839,20.169,15.242,31.67,21.881c11.517,6.649,23.279,12.195,34.832,16.504  C172.89,226.887,170.722,227,168.527,227z M250.237,208.279c-2.488,4.309-8.204,7.142-16.179,8.267  c6.552-7.733,11.77-16.628,15.277-26.338C252.321,197.644,252.717,203.984,250.237,208.279z"/>
<path d="M502,0.006H10c-5.523,0-10,4.477-10,10v348.919c0,5.523,4.477,10,10,10h62.933c1.924,21.045,8.55,42.04,18.932,59.788  l-1.531,0.661c-10.69,4.616-18.157,16.625-18.157,29.202v43.416c0,5.523,4.477,10,10,10h147.953c5.523,0,10-4.477,10-10v-43.416  c0-12.579-7.467-24.586-18.156-29.202l-1.496-0.646c10.388-17.752,17.017-38.752,18.941-59.803h42.515  c0.651,0.817,1.296,1.639,1.972,2.435c7.805,9.198,16.734,16.488,26.381,21.68v21.287L270.873,429.2  c-11.976,4.519-20.339,16.6-20.339,29.377v43.416c0,5.523,4.477,10,10,10h169.302c5.523,0,10-4.477,10-10v-43.416  c0-12.779-8.364-24.859-20.339-29.378l-39.415-14.875v-19.92c11.656-5.713,22.267-14.364,31.069-25.477h90.85  c5.523,0,10-4.477,10-10V10.006C512,4.483,507.523,0.006,502,0.006z M198.077,426.662c-0.311,0.359-0.591,0.75-0.853,1.158  c-11.455,15.376-26.064,25.174-41.048,25.174c-14.988,0-29.6-9.804-41.057-25.186c-0.262-0.409-0.543-0.801-0.855-1.161  c-13.158-18.24-21.937-43.908-21.937-70.345c0-46.668,28.642-84.636,63.849-84.636s63.849,37.968,63.849,84.636  C220.025,382.745,211.241,408.421,198.077,426.662z M220.131,491.993h-9.984V477.72c0-5.523-4.477-10-10-10s-10,4.477-10,10v14.273  h-59.498V477.72c0-5.523-4.477-10-10-10c-5.523,0-10,4.477-10,10v14.273H92.177v-33.416c0-4.529,2.73-9.393,6.085-10.842l5.33-2.301  c15.087,17.87,33.41,27.559,52.584,27.559c19.168,0,37.489-9.685,52.573-27.545l5.297,2.287c3.355,1.449,6.085,6.313,6.085,10.842  L220.131,491.993L220.131,491.993z M239.797,348.926c-0.279-5.036-0.841-10.002-1.68-14.872h25.434  c1.582,5.089,3.542,10.065,5.854,14.872H239.797z M383.502,436.995l28.934,10.917c4.632,1.748,7.4,6.796,7.4,10.667v33.416h-12.667  v-14.273c0-5.523-4.477-10-10-10s-10,4.477-10,10v14.273h-81.314v-14.273c0-5.523-4.477-10-10-10s-10,4.477-10,10v14.273h-15.324  v-33.417c0-3.871,2.768-8.918,7.4-10.666l28.934-10.917L383.502,436.995L383.502,436.995z M360.175,416.995h-29.982  c0.056-0.583,0.093-1.17,0.093-1.764v-14.698c5.309,1.183,10.734,1.795,16.227,1.795c4.579,0,9.113-0.426,13.57-1.254v14.156  C360.082,415.825,360.119,416.412,360.175,416.995z M402.874,345.528c-0.079,0.124-0.154,0.249-0.228,0.375  c-13.126,22.809-34.11,36.426-56.134,36.426c-36.095,0-67.757-37.031-67.757-79.247c0-58.867,28.083-63.416,67.757-63.416  c2.818,0,5.768,0.154,8.768,0.458c0.285,0.029,0.571,0.045,0.857,0.05c14.135,0.206,38.078-1.299,58.127-11.821  C422.807,277.455,418.75,320.545,402.874,345.528z M492.001,348.926h-68.07c2.406-4.681,4.518-9.721,6.339-15.084h36.709  c5.523,0,10-4.477,10-10V45.017c0-5.523-4.477-10-10-10H184.342c-5.523,0-10,4.477-10,10s4.477,10,10,10h272.636v258.826h-21.543  c5.475-29.296,4.075-65.262-4.499-104.32c-0.758-3.453-3.283-6.25-6.642-7.355c-3.357-1.105-7.05-0.355-9.711,1.973  c-16.946,14.827-45.71,16.182-57.736,16.041c-3.515-0.341-6.989-0.515-10.335-0.515c-42.458,0-87.757,6.446-87.757,83.416  c0,3.658,0.228,7.321,0.627,10.973h-26.448c-3.985-11.309-9.574-21.748-16.656-30.823c-15.885-20.355-37.229-31.566-60.102-31.566  s-44.218,11.211-60.102,31.566c-7.116,9.119-12.724,19.614-16.713,30.986c-0.855-0.238-1.752-0.375-2.683-0.375H55.021V55.017  h60.482c5.523,0,10-4.477,10-10s-4.477-10-10-10H45.022c-5.523,0-10,4.477-10,10v278.825c0,5.523,4.477,10,10,10h29.25  c-0.859,4.938-1.434,9.975-1.717,15.084H19.999V20.006h472.001V348.926z"/>
<g>
</g>
<g>
</g>
<g>
</g>
<g>
</g>
<g>
</g>
<g>
</g>
<g>
</g>
<g>
</g>
<g>
</g>
<g>
</g>
<g>
</g>
<g>
</g>
<g>
</g>
<g>
</g>
<g>
</g>
</svg>
