<?xml version="1.0" encoding="iso-8859-1"?>
<!-- Generator: Adobe Illustrator 19.0.0, SVG Export Plug-In . SVG Version: 6.00 Build 0)  -->
<svg xmlns="http://www.w3.org/2000/svg" xmlns:xlink="http://www.w3.org/1999/xlink" version="1.1" id="Layer_1" x="0px" y="0px" viewBox="0 0 512 512" style="enable-background:new 0 0 512 512;" xml:space="preserve">
<rect x="96" y="310.04" style="fill:#165DB2;" width="319.99" height="191.96"/>
<rect x="166" y="381" style="fill:#41C0F0;" width="180" height="60"/>
<rect x="96" y="10" style="fill:#FFFFFF;" width="320" height="300.04"/>
<rect x="186" y="256.13" style="fill:#1C237A;" width="140" height="53.915"/>
<path d="M274.106,391h-0.211c-5.523,0-10-4.477-10-10s4.477-10,10-10h0.211c5.523,0,10,4.477,10,10S279.629,391,274.106,391z"/>
<path d="M346.001,451h-180c-5.523,0-10-4.477-10-10v-60c0-5.523,4.477-10,10-10h73c5.523,0,10,4.477,10,10s-4.477,10-10,10h-63v40  h160v-40h-29.492c-5.523,0-10-4.477-10-10s4.477-10,10-10h39.492c5.523,0,10,4.477,10,10v60  C356.001,446.523,351.524,451,346.001,451z"/>
<path d="M416,76.868c-5.523,0-10-4.477-10-10v-0.352c0-5.523,4.477-10,10-10s10,4.477,10,10v0.352  C426,72.391,421.523,76.868,416,76.868z"/>
<path style="fill:#E23225;" d="M200.943,123.462l-56.839-52.263c0,0,81.564-57.532,145.803-17.471  c83.348,51.977,11.095,145.273,36.095,202.4c-18.797-7.901-44.939-35.506-44.939-35.506l-1.257-102.069L200.943,123.462z"/>
<path d="M282.485,92.501c-1.811,0-3.643-0.491-5.291-1.521c-4.684-2.927-6.137-9.115-3.209-13.798  c2.927-4.683,9.068-6.126,13.75-3.198l0.059,0.037c4.684,2.927,6.107,9.097,3.18,13.78  C289.077,90.835,285.818,92.501,282.485,92.501z"/>
<path d="M196.964,87.897c-4.142,0-8.013-2.592-9.447-6.726c-1.81-5.218,0.953-10.915,6.17-12.725  c23.643-8.202,45.69-10.206,65.53-5.957c5.4,1.157,8.84,6.473,7.684,11.873c-1.157,5.4-6.47,8.838-11.873,7.684  c-16.214-3.474-34.646-1.692-54.786,5.295C199.157,87.718,198.051,87.897,196.964,87.897z"/>
<path style="fill:#D1D3D4;" d="M194.522,142.773l35.812-3.35c0,0-5.073,27.481-30.333,34.887l-7,30.691  c0,0,18.735,6.735,29.143-6.299c8.19,24.966,55.13,49.398,55.13,49.398s8.428-61.63,11.589-82.173  c3.161-20.543,1.221-53.729-34.239-63.21C212.008,91.321,198.787,128,198.787,128L194.522,142.773z"/>
<path d="M425.998,97c0-5.523-4.477-10-10-10s-10,4.477-10,10v203.042H336v-43.915c0-0.044-0.006-0.087-0.007-0.132  c-0.003-0.251-0.016-0.502-0.038-0.752c-0.005-0.06-0.007-0.121-0.013-0.181c-0.031-0.288-0.075-0.575-0.132-0.862  c-0.021-0.105-0.047-0.207-0.071-0.31c-0.042-0.181-0.087-0.361-0.139-0.541c-0.036-0.123-0.073-0.246-0.113-0.367  c-0.054-0.163-0.115-0.324-0.177-0.484c-0.045-0.115-0.086-0.231-0.135-0.343c-0.005-0.012-0.009-0.024-0.014-0.036  c-8.308-18.983-4.049-44.2,0.46-70.897c3.967-23.489,8.069-47.779,4.344-71.14c-4.399-27.587-19.042-48.796-44.768-64.839  c-28.866-18.002-65.318-20.526-105.415-7.298c-29.496,9.73-50.561,24.461-51.443,25.083c-2.47,1.743-4.02,4.509-4.215,7.526  c-0.195,3.017,0.985,5.96,3.21,8.007l51.615,47.46L184.914,140c-0.917,3.178-0.205,6.603,1.904,9.151  c2.109,2.547,5.339,3.888,8.634,3.58l19.488-1.823c-3.529,5.547-9.111,11.273-17.753,13.807c-3.477,1.02-6.13,3.84-6.936,7.373  l-7,30.69c-1.125,4.93,1.608,9.923,6.367,11.634c6.807,2.447,18.627,4.081,29.095-0.673c8.864,12.987,23.749,24.483,35.715,32.389  H186c-5.523,0-10,4.477-10,10v43.915h-70V20l299.997,0.001v16.687c0,5.523,4.478,10,10,10c5.523,0,10-4.478,10-10V10.001  c0-5.523-4.477-10-10-10L96,0c-2.652,0-5.196,1.054-7.071,2.929S86,7.348,86,10l0.001,300.042c0,0.02,0.003,0.038,0.003,0.058V502  c0,5.523,4.477,10,10,10h319.994c5.523,0,10-4.477,10-10V310.052c0-0.003,0-0.007,0-0.01V97z M284.615,62.213  c45.98,28.674,38.843,70.935,31.287,115.678c-3.209,19.003-6.492,38.438-5.114,56.541c-7.407-5.98-14.47-12.626-19.145-17.292  c2.533-18.21,5.509-39.327,7.103-49.693c5.855-38.061-9.673-65.871-41.54-74.392c-26.336-7.04-43.446,1.871-53.16,10.587  c-1.746,1.566-3.298,3.175-4.695,4.772L160.61,72.792C183.741,59.751,239.749,34.233,284.615,62.213z M231.646,195.584  c-1.146-3.49-4.112-6.072-7.727-6.724c-0.593-0.107-1.186-0.159-1.776-0.159c-3.008,0-5.896,1.36-7.813,3.761  c-2.396,3.001-5.901,4.047-9.18,4.245l3.387-14.85c25.882-11.062,31.396-39.338,31.632-40.618c0.569-3.082-0.34-6.251-2.455-8.564  c-2.114-2.312-5.189-3.499-8.311-3.208l-21.204,1.983l0.077-0.266c0.191-0.48,0.522-1.257,1.013-2.232  c0.333-0.505,0.615-1.031,0.846-1.575c4.334-7.601,16.191-21.875,41.905-15.001c27.739,7.417,29.96,32.388,26.938,52.029  c-1.759,11.432-5.168,35.727-7.84,54.981c0,0.003-0.001,0.006-0.001,0.009c-0.629,4.534-1.218,8.791-1.734,12.531  C255.079,222.831,235.815,208.293,231.646,195.584z M288.276,241.48c1.68,1.512,3.456,3.072,5.306,4.648h-5.945  C287.809,244.877,288.024,243.313,288.276,241.48z M196.001,266.127h120v33.915h-120V266.127z M106.004,492V320.042h299.994V492  H106.004z"/>
<g>
</g>
<g>
</g>
<g>
</g>
<g>
</g>
<g>
</g>
<g>
</g>
<g>
</g>
<g>
</g>
<g>
</g>
<g>
</g>
<g>
</g>
<g>
</g>
<g>
</g>
<g>
</g>
<g>
</g>
</svg>
