<?xml version="1.0" encoding="iso-8859-1"?>
<!-- Generator: Adobe Illustrator 19.0.0, SVG Export Plug-In . SVG Version: 6.00 Build 0)  -->
<svg xmlns="http://www.w3.org/2000/svg" xmlns:xlink="http://www.w3.org/1999/xlink" version="1.1" id="Layer_1" x="0px" y="0px" viewBox="0 0 512 512" style="enable-background:new 0 0 512 512;" xml:space="preserve">
<rect x="228.154" y="155.332" style="fill:#FFB35E;" width="56.797" height="38.707"/>
<path style="fill:#E23225;" d="M284.252,161.107v32.976l14.145,0.01c22.473,0.016,42.551,13.242,51.674,33.288l32.985-55.135  L331.623,34.741l-61.94-22.353c-8.842-3.191-18.522-3.191-27.365,0l-61.939,22.353l-51.434,137.506l31.478,58.773  c8.249-22.131,29.426-37.003,53.282-36.986l14.443,0.01l0.305-0.194v-32.741H284.252z"/>
<g>
	<path style="fill:#FFB35E;" d="M207.989,70.779v17.313c-5.341,0-9.711,4.37-9.711,9.711v15.399c0,5.341,4.37,9.711,9.711,9.711   c0,0,10.197,43.386,48.013,43.386s48.047-43.386,48.047-43.386c5.322,0,9.677-4.354,9.677-9.677V97.769   c0-5.322-4.354-9.677-9.677-9.677V70.779c0,0-22.794-12.577-48.047-12.577S207.989,70.779,207.989,70.779z"/>
	<path style="fill:#FFB35E;" d="M298.398,194.094l-84.693-0.061c-25.057-0.018-47.171,16.384-54.439,40.379l-30.164,99.584   l253.699,0.182l-30.022-99.627C345.544,210.546,323.455,194.112,298.398,194.094z"/>
</g>
<rect x="108.002" y="333.994" style="fill:#165DB2;" width="296.003" height="168.002"/>
<rect x="145.303" y="365.995" style="fill:#41C0F0;" width="220.733" height="104.721"/>
<path d="M366.038,420.851c-0.001,0-0.001,0-0.001,0c-5.523,0.001-9.999,4.478-9.999,10v0.122c0,5.522,4.476,9.999,9.998,10  c0,0,0.001,0,0.002,0c5.523,0,10-4.477,10-10v-0.122C376.039,425.328,371.561,420.851,366.038,420.851z"/>
<path d="M146.036,480h220.001c5.523,0,10-4.477,10-10v-8.333c0-5.523-4.477-10-10-10l0,0c-4.955,0-9.068,3.604-9.862,8.333H156.036  v-84.001h200v25.966c0,5.523,4.477,10,10,10l0,0c5.523,0,10-4.477,10-10v-35.966c0-5.523-4.477-10-10-10H146.036  c-5.523,0-10,4.477-10,10V470C136.036,475.523,140.513,480,146.036,480z"/>
<path d="M283.552,293.833h-0.1c-5.523,0-10,4.477-10,10s4.477,10,10,10h0.1c5.523,0,10-4.477,10-10S289.076,293.833,283.552,293.833  z"/>
<path d="M404.003,323.998h-13.826l-27.823-92.332c-0.349-1.159-0.738-2.297-1.143-3.425l30.428-50.861  c1.562-2.61,1.85-5.789,0.785-8.637L340.989,31.238c-1.028-2.749-3.211-4.907-5.972-5.903L273.078,2.981  c-11.013-3.975-23.142-3.975-34.154,0l-61.94,22.353c-2.76,0.996-4.944,3.154-5.972,5.903l-51.434,137.506  c-1.007,2.693-0.807,5.69,0.551,8.225l29.438,54.965l-27.887,92.065h-13.682c-5.523,0-10,4.477-10,10V502c0,5.523,4.477,10,10,10  h296.004c5.523,0,10-4.477,10-10V333.998C414.003,328.475,409.526,323.998,404.003,323.998z M139.897,171.512l48.229-128.936  l57.589-20.783c6.634-2.395,13.94-2.395,20.575,0l57.588,20.783l48.127,128.666l-22.136,37.001  c-11.532-13.995-28.481-22.862-47.337-24.01c-1.374-0.086-2.75-0.139-4.126-0.141l-4.82-0.003v-22.982  c0-0.09-0.011-0.177-0.013-0.266c9.306-9.019,15.294-20.397,18.457-29.619c6.884-3.067,11.696-9.975,11.696-17.985V97.769  c0-7.202-3.889-13.512-9.677-16.941V70.779c0-3.642-1.98-6.996-5.169-8.756c-1.023-0.564-25.366-13.821-52.878-13.821  c-27.514,0-51.828,13.26-52.849,13.825c-3.186,1.76-5.164,5.113-5.164,8.752v10.043c-5.808,3.433-9.711,9.759-9.711,16.981v15.398  c0,8.028,4.825,14.951,11.727,18.021c3.16,9.23,9.148,20.619,18.461,29.641c-0.002,0.081-0.012,0.16-0.012,0.242v22.928  l-3.233-0.002c-2.035-0.001-4.066,0.021-6.097,0.161c-19.573,1.297-37.067,10.919-48.533,25.957L139.897,171.512z M303.724,98.087  v14.831c-4.501,0.144-8.37,3.29-9.41,7.699c-0.084,0.357-8.756,35.68-38.313,35.68c-29.3,0-37.932-34.247-38.277-35.673  c-1.04-4.424-4.927-7.579-9.446-7.708V98.088c5.389-0.153,9.711-4.57,9.711-9.996V77.058c7.56-3.337,22.42-8.856,38.012-8.856  c15.6,0,30.483,5.524,38.046,8.859v11.031C294.048,93.507,298.351,97.917,303.724,98.087z M238.454,173.389  c5.279,1.839,11.111,2.91,17.547,2.91c6.449,0,12.294-1.076,17.583-2.922v10.699l-35.13-0.025L238.454,173.389L238.454,173.389z   M228.141,204.044c0.002,0,0.005,0,0.007,0c0.001,0,0.003,0,0.005,0l70.237,0.051c1.167,0.001,2.335,0.049,3.499,0.136  c11.59,0.881,22.327,6.069,30.219,14.267H179.885c8.265-8.594,19.677-13.94,31.941-14.427c0.602-0.023,1.207-0.036,1.814-0.036  c0.008,0,0.015,0,0.023,0c0.01,0,0.023,0,0.033,0L228.141,204.044z M168.478,238.497h175.045l5.324,17.667h-185.72L168.478,238.497z   M145.67,313.793c0.262,0.021,0.525,0.04,0.793,0.04h112.48c5.523,0,10-4.477,10-10s-4.477-10-10-10H151.717l5.352-17.668h197.805  l5.324,17.668h-51.691c-5.523,0-10,4.477-10,10s4.477,10,10,10h57.718l3.063,10.165h-226.71L145.67,313.793z M394.003,492H118  V343.998h276.003V492z"/>
<g>
</g>
<g>
</g>
<g>
</g>
<g>
</g>
<g>
</g>
<g>
</g>
<g>
</g>
<g>
</g>
<g>
</g>
<g>
</g>
<g>
</g>
<g>
</g>
<g>
</g>
<g>
</g>
<g>
</g>
</svg>
