<?xml version="1.0" encoding="iso-8859-1"?>
<!-- Generator: Adobe Illustrator 19.0.0, SVG Export Plug-In . SVG Version: 6.00 Build 0)  -->
<svg xmlns="http://www.w3.org/2000/svg" xmlns:xlink="http://www.w3.org/1999/xlink" version="1.1" id="Layer_1" x="0px" y="0px" viewBox="0 0 512 512" style="enable-background:new 0 0 512 512;" xml:space="preserve">
<g>
	<path style="fill:#64C5F2;" d="M20.011,373.667c0,40.483,8.359,100.98,22,128.33c13.641-27.351,22-87.847,22-128.33L20.011,373.667   L20.011,373.667z"/>
	<path style="fill:#64C5F2;" d="M448.001,373.667c0,40.483,8.359,100.98,22,128.33c13.641-27.351,22-87.847,22-128.33   L448.001,373.667L448.001,373.667z"/>
</g>
<g>
	<path style="fill:#E23225;" d="M224.044,373.667H75.676c-6.443,0-11.667-5.223-11.667-11.667l0,0   c0-27.613,22.386-49.999,49.999-49.999h116.997c10.632,0,19.713,6.638,23.326,15.995c0.588,1.524,2.753,1.524,3.341,0   c3.614-9.357,12.695-15.995,23.326-15.995h116.997c27.613,0,49.999,22.385,49.999,49.999l0,0c0,6.443-5.223,11.667-11.667,11.667   H291.005"/>
	<path style="fill:#E23225;" d="M448.001,373.667L448.001,373.667c0,54.296-44.015,98.311-98.31,98.311H162.321   c-54.295,0-98.31-44.015-98.31-98.31l0,0"/>
</g>
<polygon style="fill:#F29C0B;" points="113.997,312.003 58.9,198.439 142.805,226.489 146.06,120.445 209.007,207.807   256.005,66.268 303.004,207.807 366.294,119.183 369.191,226.489 453.724,200.261 397.998,312.003 "/>
<g>
	<circle style="fill:#165DB2;" cx="255.365" cy="373.671" r="31.988"/>
	<circle style="fill:#165DB2;" cx="42.009" cy="373.671" r="22"/>
	<circle style="fill:#165DB2;" cx="470" cy="373.671" r="22"/>
</g>
<path d="M256.878,415.656c-0.026,0-0.052,0-0.079,0l-0.19-0.001c-5.522-0.042-9.965-4.554-9.922-10.077  c0.042-5.496,4.511-9.923,9.998-9.923c0.026,0,0.052,0,0.079,0l0.19,0.001c5.522,0.042,9.965,4.554,9.922,10.077  C266.834,411.23,262.365,415.656,256.878,415.656z"/>
<g>
	<circle style="fill:#FFB35E;" cx="256.005" cy="37.999" r="27.999"/>
	<circle style="fill:#FFB35E;" cx="255.365" cy="256.944" r="27.999"/>
	<circle style="fill:#FFB35E;" cx="373.052" cy="92.007" r="27.999"/>
	<circle style="fill:#FFB35E;" cx="139.037" cy="93.337" r="27.999"/>
	<circle style="fill:#FFB35E;" cx="37.999" cy="179.806" r="27.999"/>
	<circle style="fill:#FFB35E;" cx="474" cy="180.006" r="27.999"/>
</g>
<path d="M470.001,341.668c-5.191,0-10.092,1.25-14.432,3.453c-5.902-20.093-22.052-35.843-42.383-41.166l44.664-89.56  c4.905,2.313,10.378,3.613,16.151,3.613c20.953,0,37.999-17.047,37.999-37.999s-17.047-37.999-37.999-37.999  c-20.953,0-37.999,17.047-37.999,37.999c0,5.095,1.015,9.956,2.842,14.4l-60.013,18.62l-2.245-83.192  c19.3-1.791,34.462-18.07,34.462-37.829c0-20.953-17.047-37.999-37.999-37.999c-20.953,0-37.999,17.047-37.999,37.999  c0,12.834,6.402,24.193,16.173,31.076l-44.924,62.907L269.012,73.706c14.567-5.323,24.992-19.319,24.992-35.705  c0-20.953-17.047-37.999-37.999-37.999s-37.999,17.047-37.999,37.999c0,16.387,10.427,30.382,24.993,35.705l-37.317,112.382  l-44.567-61.854c9.632-6.9,15.926-18.176,15.926-30.901c0-20.953-17.047-37.999-37.999-37.999s-37.999,17.047-37.999,37.999  c0,19.835,15.279,36.159,34.683,37.845l-2.504,81.563l-59.528-19.9c1.49-4.067,2.304-8.457,2.304-13.034  c0-20.953-17.047-37.999-37.999-37.999S0,158.855,0,179.808s17.047,37.999,37.999,37.999c6.182,0,12.018-1.493,17.182-4.123  l43.777,90.232c-20.396,5.288-36.604,21.066-42.52,41.204c-4.339-2.202-9.239-3.451-14.428-3.451  c-17.645,0-31.999,14.355-31.999,31.999c0,42.556,8.622,103.862,23.051,132.793c1.692,3.393,5.157,5.537,8.949,5.537  c3.792,0,7.257-2.144,8.949-5.537c8.669-17.382,15.237-46.448,19.104-76.113c19.087,30.952,53.301,51.63,92.258,51.63h187.371  c38.958,0,73.174-20.679,92.26-51.634c3.864,29.666,10.432,58.734,19.102,76.117c1.692,3.393,5.157,5.537,8.949,5.537  c3.792,0,7.257-2.144,8.949-5.537c14.429-28.931,23.051-90.238,23.051-132.793C502,356.023,487.646,341.668,470.001,341.668z   M474.001,162.009c9.925,0,18,8.075,18,18s-8.075,18-18,18s-18-8.075-18-18S464.076,162.009,474.001,162.009z M37.999,197.807  c-9.925,0-18-8.075-18-18s8.075-18,18-18s18,8.075,18,18S47.924,197.807,37.999,197.807z M437.998,362.002  c0,0.919-0.748,1.667-1.667,1.667H296.864c-1.782-7.237-5.508-14.072-11.125-19.689c-5.547-5.547-12.275-9.209-19.382-10.998  c0.24-0.443,0.459-0.902,0.645-1.382c2.217-5.741,7.843-9.598,13.999-9.598h116.997  C420.054,322.003,437.998,339.945,437.998,362.002z M255.362,294.947c17.425,0,32.136-11.793,36.601-27.813  c36.71,2.303,73.152,8.165,108.527,17.468l-8.678,17.401H281.001c-9.532,0-18.52,3.966-24.997,10.549  c-6.479-6.584-15.466-10.549-24.997-10.549H120.259l-8.476-17.47c34.881-9.155,70.813-14.967,106.999-17.317  C223.275,283.194,237.967,294.947,255.362,294.947z M237.362,256.948c0-9.925,8.075-18,18-18c9.925,0,18,8.075,18,18  c0,9.925-8.075,18-18,18S237.362,266.873,237.362,256.948z M373.048,74.008c9.925,0,18,8.075,18,18s-8.075,18-18,18s-18-8.075-18-18  S363.123,74.008,373.048,74.008z M238.006,38.001c0-9.925,8.075-18,18-18c9.925,0,18,8.075,18,18s-8.075,18-18,18  C246.081,56,238.006,47.925,238.006,38.001z M121.042,93.333c0-9.925,8.075-18,18-18s18,8.075,18,18s-8.075,18-18,18  S121.042,103.258,121.042,93.333z M78.271,215.459l61.363,20.514c2.997,1.001,6.294,0.527,8.889-1.28  c2.594-1.808,4.18-4.736,4.277-7.896l2.353-76.626l45.741,63.484c2.196,3.047,5.911,4.608,9.626,4.039  c3.712-0.568,6.793-3.169,7.978-6.733l37.508-112.959l37.509,112.959c1.186,3.572,4.277,6.175,7.998,6.737  c3.727,0.561,7.443-1.015,9.63-4.077l45.96-64.358l2.092,77.498c0.084,3.129,1.629,6.038,4.174,7.86  c2.545,1.822,5.795,2.348,8.786,1.42l62.174-19.291l-24.733,49.595c-38.256-10.355-77.747-16.82-117.534-19.238  c-4.348-16.197-19.15-28.158-36.699-28.158c-17.58,0-32.403,12.002-36.723,28.24c-39.17,2.467-78.063,8.861-115.742,19.026  L78.271,215.459z M113.98,322.003c0.008,0,0.016,0.002,0.024,0.002c0.015,0,0.029-0.002,0.044-0.002h116.958  c6.156,0,11.782,3.857,14,9.601c0.188,0.486,0.411,0.95,0.654,1.398c-7.081,1.795-13.784,5.45-19.314,10.98  c-5.564,5.564-9.257,12.418-11.024,19.688H75.676c-0.919,0-1.667-0.748-1.667-1.667C74.009,339.955,91.937,322.019,113.98,322.003z   M42.01,361.668c6.617,0,12,5.383,12,12c0,6.617-5.383,12-12,12s-12-5.383-12-12C30.01,367.051,35.394,361.668,42.01,361.668z   M42.01,471.641c-5.078-19.829-8.822-44.729-10.682-67.815c3.343,1.188,6.937,1.84,10.682,1.84s7.339-0.653,10.682-1.84  C50.832,426.911,47.088,451.813,42.01,471.641z M349.691,461.979H162.321c-45.323,0-82.775-34.322-87.744-78.338  c0.365,0.018,0.731,0.028,1.1,0.028h139.609c1.281,5.32,3.61,10.445,7.022,15.036c1.962,2.641,4.979,4.035,8.034,4.035  c2.074,0,4.166-0.643,5.958-1.975c4.433-3.294,5.355-9.559,2.061-13.991c-6.447-8.674-5.532-20.991,2.128-28.649  c8.577-8.577,22.533-8.578,31.11-0.001c7.626,7.627,8.631,19.524,2.389,28.288c-3.204,4.499-2.154,10.743,2.345,13.946  c4.498,3.204,10.743,2.155,13.946-2.345c3.167-4.448,5.349-9.318,6.588-14.344h139.467c0.373,0,0.739-0.029,1.107-0.05  C432.479,427.644,395.023,461.979,349.691,461.979z M470.001,471.641c-5.078-19.829-8.822-44.729-10.682-67.815  c3.343,1.188,6.937,1.84,10.682,1.84c3.745,0,7.339-0.653,10.682-1.84C478.823,426.911,475.079,451.813,470.001,471.641z   M470.001,385.667c-6.617,0-12-5.383-12-12c0-6.617,5.383-12,12-12c6.617,0,12,5.383,12,12  C482.001,380.284,476.618,385.667,470.001,385.667z"/>
<g>
</g>
<g>
</g>
<g>
</g>
<g>
</g>
<g>
</g>
<g>
</g>
<g>
</g>
<g>
</g>
<g>
</g>
<g>
</g>
<g>
</g>
<g>
</g>
<g>
</g>
<g>
</g>
<g>
</g>
</svg>
