<?xml version="1.0" encoding="iso-8859-1"?>
<!-- Generator: Adobe Illustrator 19.0.0, SVG Export Plug-In . SVG Version: 6.00 Build 0)  -->
<svg xmlns="http://www.w3.org/2000/svg" xmlns:xlink="http://www.w3.org/1999/xlink" version="1.1" id="Layer_1" x="0px" y="0px" viewBox="0 0 512 512" style="enable-background:new 0 0 512 512;" xml:space="preserve">
<rect x="182" y="206" style="fill:#165DB2;" width="148" height="212"/>
<rect x="216" y="254.7" style="fill:#FFFFFF;" width="80" height="114.6"/>
<rect x="166" y="418" style="fill:#1C237A;" width="180" height="84"/>
<path style="fill:#FFB35E;" d="M232.522,10v17.05c0,22.341-49.119,30.013-49.119,73.792S227.92,206,227.92,206h56.161  c0,0,44.517-61.38,44.517-105.159S279.479,49.39,279.479,27.05V10.02L232.522,10z"/>
<path style="fill:#41C0F0;" d="M183.403,100.841c0,9.8,2.234,20.481,5.697,31.159h133.801c3.463-10.678,5.697-21.359,5.697-31.159  c0-6.316-1.027-11.876-2.776-16.841H186.179C184.43,88.965,183.403,94.526,183.403,100.841z"/>
<path d="M166,467.986c-5.522,0-10-4.477-10-10s4.478-10.049,10-10.049s10,4.428,10,9.951v0.099  C176,463.509,171.523,467.986,166,467.986z"/>
<path d="M330,287.896c-5.522,0-10-4.477-10-10v-0.249c0-5.523,4.478-10,10-10s10,4.477,10,10v0.249  C340,283.418,335.523,287.896,330,287.896z"/>
<path d="M296,382h-80.001c-5.522,0-10-4.477-10-10V252c0-5.523,4.478-10,10-10H296c5.522,0,10,4.477,10,10v120  C306,377.523,301.523,382,296,382z M225.999,362H286V262h-60.001V362z"/>
<path d="M346,408h-6.001V307.334c0-5.523-4.478-10-10-10s-10,4.477-10,10V408H192V216h127.999v31c0,5.523,4.478,10,10,10  s10-4.477,10-10v-41c0-5.523-4.478-10-10-10h-27.26c13.721-21.925,35.859-62.379,35.859-95.16c0-30.37-19.898-46.147-34.428-57.667  c-7.556-5.991-14.691-11.649-14.691-16.125V10.021c0-5.521-4.475-9.998-9.996-10L232.526,0c-0.001,0-0.002,0-0.002,0  c-2.653,0-5.196,1.053-7.071,2.927c-1.877,1.875-2.931,4.42-2.931,7.073v17.049c0,4.476-7.136,10.134-14.691,16.125  c-14.529,11.52-34.428,27.297-34.428,57.667c0,32.78,22.138,73.234,35.858,95.159H182c-2.652,0-5.195,1.054-7.071,2.929  C173.054,200.805,172,203.348,172,206v202h-5.999c-5.522,0-10,4.477-10,10v11.336c0,5.523,4.478,10,10,10s10-4.477,10-10V428H336v64  H176.001v-4.75c0-5.523-4.478-10-10-10s-10,4.477-10,10V502c0,5.523,4.478,10,10,10H346c5.522,0,10-4.477,10-10v-84  C356,412.478,351.523,408,346,408z M220.256,58.846c10.946-8.679,22.266-17.654,22.266-31.796v-7.045l26.957,0.012v7.033  c0,14.142,11.319,23.117,22.266,31.796c5.919,4.693,11.924,9.461,16.753,15.155H203.503  C208.332,68.306,214.337,63.539,220.256,58.846z M193.403,100.841c0-2.411,0.192-4.683,0.54-6.841h124.115  c0.348,2.158,0.54,4.43,0.54,6.841c0,6.652-1.179,13.825-3.127,21.159H196.523C194.579,114.67,193.403,107.498,193.403,100.841z   M203.405,142h105.176c-9.687,23.372-23.75,45.174-29.732,54h-45.7C227.16,187.175,213.09,165.382,203.405,142z"/>
<path d="M211,118.5c-5.79,0-10.5-4.71-10.5-10.5s4.71-10.5,10.5-10.5s10.5,4.71,10.5,10.5S216.79,118.5,211,118.5z"/>
<path d="M241,118.5c-5.79,0-10.5-4.71-10.5-10.5s4.71-10.5,10.5-10.5s10.5,4.71,10.5,10.5S246.79,118.5,241,118.5z"/>
<path d="M271,118.5c-5.79,0-10.5-4.71-10.5-10.5s4.71-10.5,10.5-10.5s10.5,4.71,10.5,10.5S276.79,118.5,271,118.5z"/>
<path d="M301,118.5c-5.79,0-10.5-4.71-10.5-10.5s4.71-10.5,10.5-10.5s10.5,4.71,10.5,10.5S306.79,118.5,301,118.5z"/>
<g>
</g>
<g>
</g>
<g>
</g>
<g>
</g>
<g>
</g>
<g>
</g>
<g>
</g>
<g>
</g>
<g>
</g>
<g>
</g>
<g>
</g>
<g>
</g>
<g>
</g>
<g>
</g>
<g>
</g>
</svg>
