<?xml version="1.0" encoding="iso-8859-1"?>
<!-- Generator: Adobe Illustrator 19.0.0, SVG Export Plug-In . SVG Version: 6.00 Build 0)  -->
<svg xmlns="http://www.w3.org/2000/svg" xmlns:xlink="http://www.w3.org/1999/xlink" version="1.1" id="Layer_1" x="0px" y="0px" viewBox="0 0 512.001 512.001" style="enable-background:new 0 0 512.001 512.001;" xml:space="preserve">
<path style="fill:#AB6322;" d="M283,456.333V37.001c0-14.912-12.089-27-27-27l0,0c-14.912,0-27,12.089-27,27v419.333h54V456.333z"/>
<g>
	<polygon style="fill:#FFB35E;" points="472.635,64 283,64 283,144 472.635,144 502,104  "/>
	<polygon style="fill:#FFB35E;" points="472.635,304 283,304 283,384 472.635,384 502,344  "/>
	<polygon style="fill:#FFB35E;" points="39.366,264 229,264 229,184 39.366,184 10,224  "/>
</g>
<polygon style="fill:#AB6322;" points="169.78,447.999 152.554,502 359.446,502 342.221,447.999 "/>
<path d="M282.928,457.998h-0.219c-5.523,0-10-4.477-10-10s4.477-10,10-10h0.219c5.523,0,10,4.477,10,10  S288.451,457.998,282.928,457.998z"/>
<path d="M480.695,298.082c-1.884-2.566-4.877-4.082-8.061-4.082H293.001V154h179.634c3.184,0,6.177-1.516,8.061-4.082l29.366-40  c2.585-3.522,2.585-8.314,0-11.836l-29.366-40c-1.884-2.566-4.877-4.082-8.061-4.082H293.001V37c0-20.402-16.598-37-37-37  s-37,16.598-37,37v137H39.366c-3.184,0-6.177,1.516-8.061,4.082l-29.366,40c-2.585,3.522-2.585,8.314,0,11.836l29.366,40  c1.884,2.566,4.877,4.082,8.061,4.082H219v163.999h-49.22c-4.352,0-8.205,2.815-9.527,6.961l-17.226,54.001  c-0.97,3.041-0.43,6.362,1.453,8.938c1.883,2.577,4.883,4.101,8.074,4.101h206.893c3.191,0,6.191-1.523,8.074-4.101  c1.883-2.577,2.423-5.898,1.453-8.938l-17.226-54.001c-1.322-4.146-5.175-6.961-9.527-6.961h-23.887c-5.523,0-10,4.477-10,10  s4.477,10,10,10h16.58L345.76,492H166.24l10.846-34.001h72.581c5.523,0,10-4.477,10-10s-4.477-10-10-10H239V37.001  c0-9.374,7.626-17,17-17s17,7.626,17,17v374.333c0,5.523,4.477,10,10,10s10-4.477,10-10V394h179.634  c3.184,0,6.177-1.516,8.061-4.082l29.366-40c2.585-3.522,2.585-8.314,0-11.836L480.695,298.082z M44.43,254l-22.024-30l22.024-30  H219v60H44.43z M467.57,74l22.024,30l-22.024,30H293V74H467.57z M467.57,374H293v-60h174.57l22.024,30L467.57,374z"/>
<g>
</g>
<g>
</g>
<g>
</g>
<g>
</g>
<g>
</g>
<g>
</g>
<g>
</g>
<g>
</g>
<g>
</g>
<g>
</g>
<g>
</g>
<g>
</g>
<g>
</g>
<g>
</g>
<g>
</g>
</svg>
