<?xml version="1.0" encoding="iso-8859-1"?>
<!-- Generator: Adobe Illustrator 19.0.0, SVG Export Plug-In . SVG Version: 6.00 Build 0)  -->
<svg xmlns="http://www.w3.org/2000/svg" xmlns:xlink="http://www.w3.org/1999/xlink" version="1.1" id="Layer_1" x="0px" y="0px" viewBox="0 0 512 512" style="enable-background:new 0 0 512 512;" xml:space="preserve">
<rect x="96" y="10" style="fill:#FFFFFF;" width="320" height="300.04"/>
<rect x="186" y="256.13" style="fill:#1C237A;" width="140" height="53.915"/>
<rect x="96" y="310.04" style="fill:#165DB2;" width="319.99" height="191.96"/>
<rect x="166" y="381" style="fill:#41C0F0;" width="180" height="60"/>
<path d="M416,76.868c-5.522,0-10-4.477-10-10v-0.352c0-5.523,4.478-10,10-10s10,4.477,10,10v0.352  C426,72.391,421.523,76.868,416,76.868z"/>
<polygon style="fill:#884024;" points="359.87,97 386.021,97 386.021,256 125.979,256 125.979,97 151.95,97 "/>
<g>
	<path style="fill:#FFB35E;" d="M256,244.445c0-7.978-6.484-14.445-14.483-14.445h-86.533V81.98h86.533   c7.999,0,14.483,6.467,14.483,14.445V244.445z"/>
	<path style="fill:#FFB35E;" d="M256,244.445c0-7.978,6.484-14.445,14.483-14.445h86.533V81.98h-86.533   c-7.999,0-14.483,6.467-14.483,14.445V244.445z"/>
</g>
<path d="M327.591,132h-42.166c-5.522,0-10-4.477-10-10s4.478-10,10-10h42.166c5.522,0,10,4.477,10,10S333.114,132,327.591,132z"/>
<path d="M327.591,166h-42.166c-5.522,0-10-4.477-10-10s4.478-10,10-10h42.166c5.522,0,10,4.477,10,10S333.114,166,327.591,166z"/>
<path d="M327.591,201.032h-42.166c-5.522,0-10-4.477-10-10s4.478-10,10-10h42.166c5.522,0,10,4.477,10,10  S333.114,201.032,327.591,201.032z"/>
<path d="M226.575,132h-42.166c-5.522,0-10-4.477-10-10s4.478-10,10-10h42.166c5.522,0,10,4.477,10,10S232.098,132,226.575,132z"/>
<path d="M226.575,166h-42.166c-5.522,0-10-4.477-10-10s4.478-10,10-10h42.166c5.522,0,10,4.477,10,10S232.098,166,226.575,166z"/>
<path d="M226.575,201.032h-42.166c-5.522,0-10-4.477-10-10s4.478-10,10-10h42.166c5.522,0,10,4.477,10,10  S232.098,201.032,226.575,201.032z"/>
<path d="M274.106,391h-0.211c-5.522,0-10-4.477-10-10s4.478-10,10-10h0.211c5.522,0,10,4.477,10,10S279.628,391,274.106,391z"/>
<path d="M346,451H166c-5.522,0-10-4.477-10-10v-60c0-5.523,4.478-10,10-10h73c5.522,0,10,4.477,10,10s-4.478,10-10,10h-63v40h160  v-40h-29.492c-5.522,0-10-4.477-10-10s4.478-10,10-10H346c5.522,0,10,4.477,10,10v60C356,446.523,351.523,451,346,451z"/>
<path d="M415.997,46.688c5.522,0,10-4.477,10-10V10.001c0-5.523-4.478-10-10-10L96,0c-2.652,0-5.195,1.054-7.071,2.929  C87.054,4.804,86,7.348,86,10l0.003,492c0,5.523,4.478,10,10,10h319.994c5.522,0,10-4.477,10-10V97c0-5.523-4.478-10-10-10  s-10,4.477-10,10l0.001,203.042H336V266h50.021c5.522,0,10-4.477,10-10V97c0-5.523-4.478-10-10-10h-19.005v-5.021  c0-5.523-4.478-10-10-10h-86.533c-5.416,0-10.424,1.768-14.482,4.751c-4.059-2.984-9.067-4.751-14.482-4.751h-86.533  c-5.522,0-10,4.477-10,10V87H125.98c-5.522,0-10,4.477-10,10v159c0,5.523,4.478,10,10,10H176v34.042h-69.999L106,20l299.997,0.001  v16.687C405.997,42.211,410.475,46.688,415.997,46.688z M376.021,107v139H265.867c0.08-0.508,0.133-1.025,0.133-1.555  c0-2.451,2.011-4.445,4.482-4.445h86.533c5.522,0,10-4.477,10-10V107H376.021z M316,266.127v33.915H196v-33.915H316z   M270.483,91.979h76.533V220h-76.533c-1.531,0-3.028,0.141-4.482,0.411V96.424C266,93.974,268.011,91.979,270.483,91.979z   M164.985,91.979h76.533c2.472,0,4.482,1.994,4.482,4.445v123.987c-1.454-0.27-2.951-0.411-4.482-0.411h-76.533L164.985,91.979  L164.985,91.979z M135.98,246V107h9.005v123c0,5.523,4.478,10,10,10h86.533c2.472,0,4.482,1.994,4.482,4.445  c0,0.53,0.053,1.047,0.133,1.555H135.98z M106.003,320.042h299.994V492H106.003V320.042z"/>
<g>
</g>
<g>
</g>
<g>
</g>
<g>
</g>
<g>
</g>
<g>
</g>
<g>
</g>
<g>
</g>
<g>
</g>
<g>
</g>
<g>
</g>
<g>
</g>
<g>
</g>
<g>
</g>
<g>
</g>
</svg>
