<?xml version="1.0" encoding="iso-8859-1"?>
<!-- Generator: Adobe Illustrator 19.0.0, SVG Export Plug-In . SVG Version: 6.00 Build 0)  -->
<svg xmlns="http://www.w3.org/2000/svg" xmlns:xlink="http://www.w3.org/1999/xlink" version="1.1" id="Layer_1" x="0px" y="0px" viewBox="0 0 512 512" style="enable-background:new 0 0 512 512;" xml:space="preserve">
<rect x="120" y="10" style="fill:#FFFFFF;" width="272" height="300.04"/>
<rect x="120" y="310.04" style="fill:#165DB2;" width="272" height="191.96"/>
<rect x="186" y="359" style="fill:#41C0F0;" width="140" height="104"/>
<rect x="186" y="256.13" style="fill:#1C237A;" width="140" height="53.915"/>
<path d="M326,431.461c-5.522,0-10-4.477-10-10v-0.122c0-5.523,4.478-10,10-10s10,4.477,10,10v0.122  C336,426.984,331.523,431.461,326,431.461z"/>
<path d="M325.999,473H186c-5.522,0-10-4.477-10-10V359c0-5.523,4.478-10,10-10h139.999c5.522,0,10,4.477,10,10v32  c0,5.523-4.478,10-10,10s-10-4.477-10-10v-22H196v84h119.999v-1.5c0-5.523,4.478-10,10-10s10,4.477,10,10V463  C335.999,468.523,331.522,473,325.999,473z"/>
<path d="M392,97.857c-5.522,0-10-4.477-10-10v-0.352c0-5.523,4.478-10,10-10s10,4.477,10,10v0.352  C402,93.38,397.523,97.857,392,97.857z"/>
<g>
	<polygon style="fill:#F277AF;" points="167,155.505 256,256 345,155.505  "/>
	<polygon style="fill:#F277AF;" points="196.8,110 167.005,155.505 345,155.505 315.319,110  "/>
</g>
<path d="M401.998,117.99c0-5.523-4.478-10-10-10s-10,4.477-10,10v182.052H336v-43.915c0-5.523-4.478-10-10-10h-47.898l74.385-83.993  c2.608-2.945,3.247-7.147,1.632-10.735c-0.215-0.477-0.478-0.921-0.76-1.349c0.006-0.003,0.012-0.006,0.018-0.01l-29.622-45.412  l-0.058-0.089l-0.002-0.003c-1.847-2.83-4.997-4.537-8.376-4.537H196.8c-3.373,0-6.519,1.7-8.366,4.522l-0.012,0.018l0,0  l-0.046,0.07l-29.738,45.417c0.001,0.001,0.002,0.001,0.003,0.002c-0.286,0.432-0.542,0.888-0.76,1.371  c-1.615,3.588-0.977,7.79,1.632,10.735l74.385,83.993H186c-5.522,0-10,4.477-10,10v43.915h-45.999L130,20l251.997,0.001v37.676  c0,5.523,4.478,10,10,10s10-4.477,10-10V10.001c0-5.523-4.478-10-10-10L120,0c-2.652,0-5.195,1.054-7.071,2.929  C111.054,4.804,110,7.348,110,10l0.003,492c0,5.523,4.478,10,10,10h271.994c5.522,0,10-4.477,10-10L401.998,117.99z   M278.118,215.943l15-50.438h29.668L278.118,215.943z M315.319,128.314l11.205,17.191h-22.41L315.319,128.314z M296.864,120  l-11.204,17.19L274.455,120H296.864z M256,128.314l11.205,17.191h-22.41L256,128.314z M272.252,165.505L256,220.154l-16.252-54.649  H272.252z M196.8,128.314l11.205,17.191h-22.41L196.8,128.314z M189.214,165.505h29.668l15,50.438L189.214,165.505z M226.4,137.099  L215.255,120h22.29L226.4,137.099z M196,266.127h120v33.915H196V266.127z M130.003,492V320.042h251.994V492H130.003z"/>
<g>
</g>
<g>
</g>
<g>
</g>
<g>
</g>
<g>
</g>
<g>
</g>
<g>
</g>
<g>
</g>
<g>
</g>
<g>
</g>
<g>
</g>
<g>
</g>
<g>
</g>
<g>
</g>
<g>
</g>
</svg>
