<?xml version="1.0" encoding="iso-8859-1"?>
<!-- Generator: Adobe Illustrator 19.0.0, SVG Export Plug-In . SVG Version: 6.00 Build 0)  -->
<svg xmlns="http://www.w3.org/2000/svg" xmlns:xlink="http://www.w3.org/1999/xlink" version="1.1" id="Layer_1" x="0px" y="0px" viewBox="0 0 512 512" style="enable-background:new 0 0 512 512;" xml:space="preserve">
<path style="fill:#F45034;" d="M432.959,186.959C432.959,89.238,353.721,10,256,10S79.041,89.238,79.041,186.959  c0,1.72,0.031,3.432,0.08,5.14C82.484,363.7,252.722,502,256,502c2.18,0,173.479-138.288,176.879-309.877  C432.928,190.407,432.959,188.687,432.959,186.959z"/>
<path d="M256,512c-3.716,0-6.063-1.362-14.778-8.573c-4.297-3.556-11.369-9.646-20.656-18.467  c-14.929-14.18-37.608-37.39-60.879-67.437c-40.321-52.063-88.764-133.4-90.564-225.228c-0.054-1.868-0.081-3.643-0.081-5.336  C69.041,83.87,152.91,0,256,0s186.959,83.87,186.959,186.959c0,1.677-0.027,3.459-0.084,5.448  c-0.801,40.434-10.771,82.385-29.631,124.602c-15.029,33.642-35.675,67.466-61.365,100.534  c-23.182,29.839-45.914,53.127-60.901,67.408c-9.089,8.661-16.142,14.802-20.458,18.428C261.94,510.587,259.918,512,256,512z   M256,20C163.938,20,89.041,94.897,89.041,186.959c0,1.501,0.024,3.089,0.075,4.855c1.656,84.447,45.934,160.133,82.788,208.771  c35.615,47.003,71.094,78.588,83.969,88.996c13.083-10.755,48.442-42.551,83.521-88.608  c37.163-48.796,81.815-124.674,83.487-209.047c0.054-1.884,0.078-3.48,0.078-4.965C422.959,94.897,348.062,20,256,20z"/>
<circle style="fill:#FFFFFF;" cx="256.16" cy="184.02" r="140.06"/>
<path d="M296.411,328.093c-4.303,0-8.276-2.798-9.575-7.132c-1.585-5.291,1.418-10.864,6.709-12.45  c54.532-16.342,92.618-67.558,92.618-124.548c0-71.683-58.317-130-130-130s-130,58.318-130,130  c0,56.988,38.086,108.204,92.617,124.547c5.29,1.585,8.294,7.16,6.708,12.45s-7.152,8.296-12.45,6.708  c-30.263-9.07-57.473-28.016-76.617-53.35c-19.795-26.194-30.258-57.438-30.258-90.355c0-82.71,67.29-150,150-150s150,67.29,150,150  c0,32.918-10.463,64.163-30.258,90.356c-19.145,25.333-46.355,44.28-76.619,53.35C298.328,327.956,297.361,328.093,296.411,328.093z  "/>
<path d="M256.159,334.078c-5.522,0-10-4.477-10-10v-0.128c0-5.523,4.478-10,10-10s10,4.477,10,10v0.128  C266.159,329.601,261.682,334.078,256.159,334.078z"/>
<rect x="191.28" y="150.27" style="fill:#FFD0A3;" width="129.44" height="89.4"/>
<polygon style="fill:#FAB617;" points="256,98.948 256,98.948 160.928,150.269 351.072,150.269 "/>
<path d="M323,276.5H188.874c-5.522,0-10-4.477-10-10s4.478-10,10-10H323c5.522,0,10,4.477,10,10S328.522,276.5,323,276.5z"/>
<path d="M355.822,141.469L260.75,90.148c-2.965-1.601-6.535-1.601-9.5,0l-95.072,51.321c-4.03,2.175-6.067,6.81-4.945,11.25  s5.116,7.55,9.695,7.55h20.351v69.397h-16.026c-5.522,0-10,4.477-10,10s4.478,10,10,10h181.37c5.522,0,10-4.477,10-10  s-4.478-10-10-10h-15.9v-69.397h20.351c4.579,0,8.573-3.11,9.695-7.55S359.853,143.645,355.822,141.469z M256,110.312l55.495,29.957  h-110.99L256,110.312z M201.278,160.269H246v69.397h-44.722V160.269z M310.721,229.667H266V160.27h44.722V229.667z"/>
<g>
</g>
<g>
</g>
<g>
</g>
<g>
</g>
<g>
</g>
<g>
</g>
<g>
</g>
<g>
</g>
<g>
</g>
<g>
</g>
<g>
</g>
<g>
</g>
<g>
</g>
<g>
</g>
<g>
</g>
</svg>
