<?xml version="1.0" encoding="iso-8859-1"?>
<!-- Generator: Adobe Illustrator 19.0.0, SVG Export Plug-In . SVG Version: 6.00 Build 0)  -->
<svg xmlns="http://www.w3.org/2000/svg" xmlns:xlink="http://www.w3.org/1999/xlink" version="1.1" id="Layer_1" x="0px" y="0px" viewBox="0 0 512 512" style="enable-background:new 0 0 512 512;" xml:space="preserve">
<polygon style="fill:#E23225;" points="92.182,86.001 10,86.001 10,426 502,426 502,86.001 172.447,86.001 "/>
<path style="fill:#EFEEEE;" d="M284.957,377h136.53c0-25.687,20.824-46.511,46.511-46.511V181.511  c-25.687,0-46.511-20.824-46.511-46.511H90.513c0,25.687-20.824,46.511-46.511,46.511v148.978c25.687,0,46.511,20.824,46.511,46.511  h121.48H284.957z"/>
<path d="M132.388,96h-0.153c-5.523,0-10-4.477-10-10s4.477-10,10-10h0.153c5.523,0,10,4.477,10,10S137.911,96,132.388,96z"/>
<path d="M502,436H10c-5.523,0-10-4.477-10-10V86.001c0-5.523,4.477-10,10-10h82.182c5.523,0,10,4.477,10,10s-4.477,10-10,10H20V416  h472V96.001H172.447c-5.523,0-10-4.477-10-10s4.477-10,10-10H502c5.523,0,10,4.477,10,10V426C512,431.523,507.523,436,502,436z"/>
<path d="M421.487,387h-136.53c-5.523,0-10-4.477-10-10s4.477-10,10-10h127.416c4.153-23.16,22.466-41.472,45.625-45.625v-130.75  c-23.16-4.153-41.472-22.466-45.625-45.625H99.627c-4.153,23.16-22.466,41.472-45.625,45.625v130.749  c23.16,4.153,41.472,22.466,45.625,45.625h112.365c5.523,0,10,4.477,10,10s-4.477,10-10,10H90.513c-5.523,0-10-4.477-10-10  c0-20.132-16.379-36.511-36.511-36.511c-5.523,0-10-4.477-10-10V181.511c0-5.523,4.477-10,10-10  c20.132,0,36.511-16.379,36.511-36.511c0-5.523,4.477-10,10-10h330.974c5.523,0,10,4.477,10,10  c0,20.132,16.379,36.511,36.511,36.511c5.523,0,10,4.477,10,10v148.978c0,5.523-4.477,10-10,10  c-20.132,0-36.511,16.379-36.511,36.511C431.487,382.523,427.01,387,421.487,387z"/>
<path d="M249.2,387c-2.63,0-5.21-1.07-7.07-2.93s-2.93-4.44-2.93-7.07s1.07-5.21,2.93-7.07c1.86-1.86,4.44-2.93,7.07-2.93  s5.21,1.07,7.07,2.93s2.93,4.44,2.93,7.07s-1.07,5.21-2.93,7.07C254.41,385.93,251.83,387,249.2,387z"/>
<path d="M263.701,212.711c-4.348-3.407-10.633-2.644-14.039,1.703l-20.209,25.789l-20.209-25.789  c-3.407-4.347-9.692-5.11-14.039-1.703c-4.347,3.406-5.11,9.692-1.703,14.039l23.247,29.666l-23.247,29.666  c-3.407,4.347-2.644,10.633,1.703,14.039c1.83,1.434,4.003,2.129,6.161,2.129c2.968,0,5.906-1.315,7.878-3.833l20.209-25.789  l20.209,25.789c1.973,2.517,4.91,3.833,7.878,3.833c2.158,0,4.332-0.695,6.161-2.129c4.347-3.406,5.11-9.692,1.703-14.039  l-23.247-29.666l23.247-29.666C268.811,222.403,268.048,216.117,263.701,212.711z"/>
<path d="M167.792,230.582c5.523,0,10-4.477,10-10s-4.477-10-10-10h-25.556c-5.523,0-10,4.477-10,10v71.667c0,5.523,4.477,10,10,10  h25.556c5.523,0,10-4.477,10-10s-4.477-10-10-10h-15.556v-15.833h15.556c5.523,0,10-4.477,10-10s-4.477-10-10-10h-15.556v-15.833  L167.792,230.582L167.792,230.582z"/>
<path d="M289.649,209.751c-5.523,0-10,4.477-10,10v71.667c0,5.523,4.477,10,10,10s10-4.477,10-10v-71.667  C299.649,214.228,295.172,209.751,289.649,209.751z"/>
<path d="M369.764,209.751h-55c-5.523,0-10,4.477-10,10s4.477,10,10,10h16.667v61.667c0,5.523,4.477,10,10,10s10-4.477,10-10v-61.667  h18.333c5.523,0,10-4.477,10-10S375.287,209.751,369.764,209.751z"/>
<g>
</g>
<g>
</g>
<g>
</g>
<g>
</g>
<g>
</g>
<g>
</g>
<g>
</g>
<g>
</g>
<g>
</g>
<g>
</g>
<g>
</g>
<g>
</g>
<g>
</g>
<g>
</g>
<g>
</g>
</svg>
