<?xml version="1.0" encoding="iso-8859-1"?>
<!-- Generator: Adobe Illustrator 19.0.0, SVG Export Plug-In . SVG Version: 6.00 Build 0)  -->
<svg xmlns="http://www.w3.org/2000/svg" xmlns:xlink="http://www.w3.org/1999/xlink" version="1.1" id="Layer_1" x="0px" y="0px" viewBox="0 0 512 512" style="enable-background:new 0 0 512 512;" xml:space="preserve">
<polygon style="fill:#E23225;" points="92.182,86.001 10,86.001 10,426 502,426 502,86.001 172.447,86.001 "/>
<path d="M132.388,96h-0.153c-5.523,0-10-4.477-10-10s4.477-10,10-10h0.153c5.523,0,10,4.477,10,10S137.911,96,132.388,96z"/>
<path d="M502,436H10c-5.523,0-10-4.477-10-10V86.001c0-5.523,4.477-10,10-10h82.182c5.523,0,10,4.477,10,10s-4.477,10-10,10H20V416  h472V96.001H172.447c-5.523,0-10-4.477-10-10s4.477-10,10-10H502c5.523,0,10,4.477,10,10V426C512,431.523,507.523,436,502,436z"/>
<path style="fill:#EFEEEE;" d="M284.957,377h136.53c0-25.687,20.824-46.511,46.511-46.511V181.511  c-25.687,0-46.511-20.824-46.511-46.511H90.513c0,25.687-20.824,46.511-46.511,46.511v148.978c25.687,0,46.511,20.824,46.511,46.511  h121.48H284.957z"/>
<path d="M421.487,387h-136.53c-5.523,0-10-4.477-10-10s4.477-10,10-10h127.416c4.153-23.16,22.466-41.472,45.625-45.625v-130.75  c-23.16-4.153-41.472-22.466-45.625-45.625H99.627c-4.153,23.16-22.466,41.472-45.625,45.625v130.749  c23.16,4.153,41.472,22.466,45.625,45.625h112.365c5.523,0,10,4.477,10,10s-4.477,10-10,10H90.513c-5.523,0-10-4.477-10-10  c0-20.132-16.379-36.511-36.511-36.511c-5.523,0-10-4.477-10-10V181.511c0-5.523,4.477-10,10-10  c20.132,0,36.511-16.379,36.511-36.511c0-5.523,4.477-10,10-10h330.974c5.523,0,10,4.477,10,10  c0,20.132,16.379,36.511,36.511,36.511c5.523,0,10,4.477,10,10v148.978c0,5.523-4.477,10-10,10  c-20.132,0-36.511,16.379-36.511,36.511C431.487,382.523,427.01,387,421.487,387z"/>
<path d="M249.2,387c-2.63,0-5.21-1.07-7.07-2.93s-2.93-4.44-2.93-7.07s1.07-5.21,2.93-7.07c1.86-1.86,4.44-2.93,7.07-2.93  s5.21,1.07,7.07,2.93s2.93,4.44,2.93,7.07s-1.07,5.21-2.93,7.07C254.41,385.93,251.83,387,249.2,387z"/>
<path d="M413.385,210.998c-5.523,0-10,4.477-10,10v42.694l-38.29-48.862c-2.63-3.356-7.1-4.676-11.134-3.285  c-4.032,1.392-6.737,5.188-6.737,9.453v71.667c0,5.523,4.477,10,10,10s10-4.477,10-10v-42.694l38.29,48.862  c1.933,2.466,4.858,3.833,7.873,3.833c1.089,0,2.19-0.178,3.261-0.548c4.032-1.392,6.737-5.188,6.737-9.453v-71.667  C423.385,215.475,418.908,210.998,413.385,210.998z"/>
<path d="M323.643,230.998c5.523,0,10-4.477,10-10s-4.477-10-10-10h-25.556c-5.523,0-10,4.477-10,10v71.667c0,5.523,4.477,10,10,10  h25.556c5.523,0,10-4.477,10-10s-4.477-10-10-10h-15.556v-15.833h15.556c5.523,0,10-4.477,10-10s-4.477-10-10-10h-15.556v-15.833  L323.643,230.998L323.643,230.998z"/>
<path d="M138.615,206c-27.57,0-50,22.43-50,50s22.43,50,50,50s50-22.43,50-50S166.186,206,138.615,206z M138.615,286  c-16.542,0-30-13.458-30-30s13.458-30,30-30s30,13.458,30,30S155.157,286,138.615,286z"/>
<path d="M246.618,210.167h-32.506c-5.523,0-10,4.477-10,10v71.667c0,5.523,4.477,10,10,10s10-4.477,10-10v-25.889h22.506  c15.378,0,27.889-12.511,27.889-27.889S261.996,210.167,246.618,210.167z M246.618,245.945h-22.506v-15.778h22.506  c4.35,0,7.889,3.539,7.889,7.889S250.967,245.945,246.618,245.945z"/>
<g>
</g>
<g>
</g>
<g>
</g>
<g>
</g>
<g>
</g>
<g>
</g>
<g>
</g>
<g>
</g>
<g>
</g>
<g>
</g>
<g>
</g>
<g>
</g>
<g>
</g>
<g>
</g>
<g>
</g>
</svg>
