<?xml version="1.0" encoding="iso-8859-1"?>
<!-- Generator: Adobe Illustrator 19.0.0, SVG Export Plug-In . SVG Version: 6.00 Build 0)  -->
<svg xmlns="http://www.w3.org/2000/svg" xmlns:xlink="http://www.w3.org/1999/xlink" version="1.1" id="Layer_1" x="0px" y="0px" viewBox="0 0 512 512" style="enable-background:new 0 0 512 512;" xml:space="preserve">
<rect x="64" y="128" style="fill:#41C0F0;" width="384" height="238"/>
<circle style="fill:#F29C0B;" cx="256" cy="51" r="41"/>
<g>
	<rect x="238" y="88.33" style="fill:#D98325;" width="36" height="39.667"/>
	<rect x="238" y="366" style="fill:#D98325;" width="36" height="81.998"/>
</g>
<polygon style="fill:#165DB2;" points="169.78,447.999 152.554,502 359.446,502 342.221,447.999 331.78,447.999 "/>
<path d="M256,0c-28.122,0-51,22.878-51,51s22.878,51,51,51s51-22.878,51-51S284.122,0,256,0z M256,82c-17.093,0-31-13.907-31-31  s13.907-31,31-31s31,13.907,31,31S273.094,82,256,82z"/>
<rect x="274" y="181.03" style="fill:#165DB2;" width="138" height="38"/>
<path d="M412,229.031H274c-5.523,0-10-4.477-10-10v-38c0-5.523,4.477-10,10-10h138c5.523,0,10,4.477,10,10v38  C422,224.554,417.523,229.031,412,229.031z M284,209.031h118v-18H284V209.031z"/>
<path d="M411.825,266H304.659c-5.523,0-10-4.477-10-10s4.477-10,10-10h107.167c5.523,0,10,4.477,10,10  C421.826,261.523,417.348,266,411.825,266z"/>
<path d="M274.131,266H274c-5.523,0-10-4.477-10-10s4.477-10,10-10h0.13c5.523,0,10,4.477,10,10  C284.13,261.523,279.654,266,274.131,266z"/>
<path d="M411.825,309.979H304.659c-5.523,0-10-4.477-10-10s4.477-10,10-10h107.167c5.523,0,10,4.477,10,10  S417.348,309.979,411.825,309.979z"/>
<path d="M274.131,309.979H274c-5.523,0-10-4.477-10-10s4.477-10,10-10h0.13c5.523,0,10,4.477,10,10S279.654,309.979,274.131,309.979  z"/>
<rect x="99.04" y="173.17" style="fill:#FFFFFF;" width="140" height="140"/>
<polygon style="fill:#44AD00;" points="106.172,313.167 133.331,270.481 149.557,288.413 177.032,249.382 210.417,313.167 "/>
<path d="M186.503,183.167h-0.164c-5.523,0-10-4.477-10-10s4.477-10,10-10h0.164c5.523,0,10,4.477,10,10  S192.026,183.167,186.503,183.167z"/>
<circle style="fill:#F29C0B;" cx="200.73" cy="214.14" r="14"/>
<path d="M239.037,163.167h-20.5c-5.523,0-10,4.477-10,10s4.477,10,10,10h10.5v119.999H216.47l-30.577-58.422  c-1.617-3.089-4.726-5.113-8.205-5.341c-3.479-0.23-6.826,1.371-8.833,4.222l-20.275,28.803l-7.833-8.657  c-2.094-2.314-5.143-3.519-8.258-3.255c-3.11,0.263-5.918,1.963-7.594,4.596l-15.857,24.923V183.167h44.089c5.523,0,10-4.477,10-10  s-4.477-10-10-10h-54.09c-5.523,0-10,4.477-10,10v139.999c0,5.523,4.477,10,10,10h140c5.523,0,10-4.477,10-10V173.167  C249.037,167.645,244.56,163.167,239.037,163.167z M134.722,286.923l7.419,8.2c2.039,2.253,4.987,3.457,8.025,3.272  c3.033-0.186,5.817-1.74,7.567-4.225l18.04-25.627l18.122,34.625h-69.509L134.722,286.923z"/>
<path d="M200.732,238.136c-13.233,0-24-10.767-24-24s10.767-24,24-24s24,10.767,24,24S213.966,238.136,200.732,238.136z   M200.732,210.136c-2.206,0-4,1.794-4,4s1.794,4,4,4s4-1.794,4-4S202.938,210.136,200.732,210.136z"/>
<path d="M64,244.387c-5.523,0-10-4.477-10-10v-0.102c0-5.523,4.477-10,10-10s10,4.477,10,10v0.102  C74,239.91,69.523,244.387,64,244.387z"/>
<path d="M448,118H284V88.333c0-5.523-4.477-10-10-10s-10,4.477-10,10V118h-16V88.333c0-5.523-4.477-10-10-10s-10,4.477-10,10V118  H64.001c-5.523,0-10,4.477-10,10v81.925c0,5.523,4.477,10,10,10s10-4.477,10-10V138H438v218H74.001v-96.481c0-5.523-4.477-10-10-10  s-10,4.477-10,10V366c0,5.523,4.477,10,10,10H228v61.999h-58.22c-4.352,0-8.205,2.815-9.527,6.961l-17.226,54.001  c-0.97,3.041-0.43,6.362,1.453,8.938c1.883,2.577,4.883,4.101,8.074,4.101h206.893c3.191,0,6.191-1.523,8.074-4.101  c1.883-2.577,2.423-5.898,1.453-8.938l-17.226-54.001c-1.322-4.146-5.175-6.961-9.527-6.961H284V376h164c5.523,0,10-4.477,10-10V128  C458,122.477,453.523,118,448,118z M345.76,492H166.24l10.846-34.001h157.827L345.76,492z M264,437.999h-16V376h16V437.999z"/>
<g>
</g>
<g>
</g>
<g>
</g>
<g>
</g>
<g>
</g>
<g>
</g>
<g>
</g>
<g>
</g>
<g>
</g>
<g>
</g>
<g>
</g>
<g>
</g>
<g>
</g>
<g>
</g>
<g>
</g>
</svg>
