<?xml version="1.0" encoding="iso-8859-1"?>
<!-- Generator: Adobe Illustrator 19.0.0, SVG Export Plug-In . SVG Version: 6.00 Build 0)  -->
<svg xmlns="http://www.w3.org/2000/svg" xmlns:xlink="http://www.w3.org/1999/xlink" version="1.1" id="Layer_1" x="0px" y="0px" viewBox="0 0 512 512" style="enable-background:new 0 0 512 512;" xml:space="preserve">
<g>
	<rect x="174.001" y="414" style="fill:#F1F2F2;" width="62" height="34"/>
	<rect x="174.001" y="179.971" style="fill:#F1F2F2;" width="62" height="34"/>
	<rect x="186.001" y="213.971" style="fill:#F1F2F2;" width="38" height="200.03"/>
	<rect x="276.001" y="414" style="fill:#F1F2F2;" width="62" height="34"/>
	<rect x="276.001" y="179.971" style="fill:#F1F2F2;" width="62" height="34"/>
	<rect x="288.001" y="213.971" style="fill:#F1F2F2;" width="38" height="200.03"/>
</g>
<rect x="32.001" y="128.001" style="fill:#BCBEC0;" width="448" height="51.969"/>
<rect x="32.001" y="448" style="fill:#EFEEEE;" width="448" height="54"/>
<g>
	<polygon style="fill:#BCBEC0;" points="256.001,10 256.001,10 21.001,128.001 491.001,128.001  "/>
	<polygon style="fill:#BCBEC0;" points="374.002,367.84 374.002,448 448.001,448 448.001,179.956 374.002,179.956 374.002,304  "/>
	<polygon style="fill:#BCBEC0;" points="63.97,367.84 63.97,448 137.969,448 137.969,179.956 63.97,179.956 63.97,304  "/>
</g>
<path d="M374.001,345.488c-5.523,0-10-4.477-10-10v-0.131c0-5.523,4.477-10,10-10s10,4.477,10,10v0.131  C384.001,341.011,379.523,345.488,374.001,345.488z"/>
<path d="M137.97,302.599c-5.523,0-10-4.477-10-10v-0.131c0-5.523,4.477-10,10-10s10,4.477,10,10v0.131  C147.97,298.122,143.493,302.599,137.97,302.599z"/>
<path d="M495.488,119.063l-235-118c-2.823-1.418-6.151-1.418-8.975,0l-235,118c-4.142,2.08-6.312,6.732-5.243,11.242  c1.069,4.51,5.096,7.695,9.731,7.695h1v41.969c0,5.523,4.477,10,10,10H53.97V438H32.001c-5.523,0-10,4.477-10,10v54  c0,5.523,4.477,10,10,10h448c5.523,0,10-4.477,10-10v-54c0-5.523-4.477-10-10-10h-22V189.969h22c5.523,0,10-4.477,10-10v-41.969h1  c4.635,0,8.662-3.185,9.73-7.694C501.8,125.796,499.63,121.143,495.488,119.063z M256.001,21.19l192.8,96.81h-385.6L256.001,21.19z   M470.001,458v34h-428v-34H470.001z M137.969,270.116c5.523,0,10-4.477,10-10v-70.147h16.032v24c0,5.523,4.477,10,10,10h2V404h-2  c-5.523,0-10,4.477-10,10v24h-16.032V323.955c0-5.523-4.477-10-10-10s-10,4.477-10,10V438H73.97V189.969h53.999v70.147  C127.969,265.639,132.446,270.116,137.969,270.116z M184.001,203.969v-14h42v14h-2h-38H184.001z M276.001,223.969h2V404h-2  c-5.523,0-10,4.477-10,10v24h-20v-24c0-5.523-4.477-10-10-10h-2V223.969h2c5.523,0,10-4.477,10-10v-24h20v24  C266.001,219.493,270.478,223.969,276.001,223.969z M286.001,203.969v-14h42v14h-2h-38H286.001z M374.001,314  c5.523,0,10-4.477,10-10V189.969h54V438h-54v-70.161c0-5.523-4.477-10-10-10s-10,4.477-10,10V438h-16v-24c0-5.523-4.477-10-10-10h-2  V223.969h2c5.523,0,10-4.477,10-10v-24h16V304C364.001,309.523,368.479,314,374.001,314z M328.001,424v14h-42v-14H328.001z   M298.001,223.969h18V404h-18V223.969z M226.001,424v14h-42v-14H226.001z M196.001,223.969h18V404h-18V223.969z M470.001,169.969  h-428v-31.969h428V169.969z"/>
<g>
</g>
<g>
</g>
<g>
</g>
<g>
</g>
<g>
</g>
<g>
</g>
<g>
</g>
<g>
</g>
<g>
</g>
<g>
</g>
<g>
</g>
<g>
</g>
<g>
</g>
<g>
</g>
<g>
</g>
</svg>
