<?xml version="1.0" encoding="iso-8859-1"?>
<!-- Generator: Adobe Illustrator 19.0.0, SVG Export Plug-In . SVG Version: 6.00 Build 0)  -->
<svg xmlns="http://www.w3.org/2000/svg" xmlns:xlink="http://www.w3.org/1999/xlink" version="1.1" id="Layer_1" x="0px" y="0px" viewBox="0 0 512 512" style="enable-background:new 0 0 512 512;" xml:space="preserve">
<rect x="109.51" y="90.16" style="fill:#F1F2F2;" width="292.99" height="356.84"/>
<g>
	<rect x="320.75" y="147" style="fill:#BCBEC0;" width="37.999" height="256.19"/>
	<rect x="236.99" y="147" style="fill:#BCBEC0;" width="37.999" height="256.19"/>
	<rect x="153.22" y="147" style="fill:#BCBEC0;" width="37.999" height="256.19"/>
	<rect x="75" y="448" style="fill:#BCBEC0;" width="362" height="54"/>
</g>
<path style="fill:#F1F2F2;" d="M432.898,10H79.102C40.938,10,10,40.938,10,79.102c0,30.531,24.75,55.281,55.281,55.281  c15.215,0,28.632-7.685,36.59-19.383h308.257c7.958,11.698,21.375,19.383,36.59,19.383c30.531,0,55.281-24.75,55.281-55.281  C502,40.938,471.062,10,432.898,10z"/>
<path d="M280.082,100.157h-0.196c-5.522,0-10-4.477-10-10s4.478-10,10-10h0.196c5.522,0,10,4.477,10,10  S285.604,100.157,280.082,100.157z"/>
<path d="M446.719,144.383c35.996,0,65.281-29.285,65.281-65.281C512,35.485,476.516,0,432.898,0H79.102C35.484,0,0,35.485,0,79.102  c0,35.996,29.285,65.281,65.281,65.281c12.969,0,24.884-4.581,34.226-12.203V438H75c-5.522,0-10,4.477-10,10v54  c0,5.523,4.478,10,10,10h362c5.522,0,10-4.477,10-10v-54c0-5.523-4.478-10-10-10h-24.507V132.179  C421.834,139.802,433.75,144.383,446.719,144.383z M427,492H85v-34h342V492z M119.507,438V100.159h125.98c5.522,0,10-4.477,10-10  s-4.478-10-10-10H118.383c-4.568-20.226-22.67-35.381-44.257-35.381c-21.121,0-38.304,17.183-38.304,38.304  c0,18,14.644,32.643,32.644,32.643c15.502,0,28.114-12.612,28.114-28.115c0-5.523-4.478-10-10-10s-10,4.477-10,10  c0,4.475-3.64,8.115-8.114,8.115c-6.972,0-12.644-5.672-12.644-12.643c0-10.093,8.211-18.304,18.304-18.304  c13.995,0,25.381,11.385,25.381,25.38c0,18.872-15.354,34.225-34.226,34.225C40.313,124.383,20,104.07,20,79.102  C20,46.513,46.513,20,79.102,20h353.797C465.487,20,492,46.513,492,79.102c0,24.968-20.313,45.281-45.281,45.281  c-18.872,0-34.226-15.354-34.226-34.225c0-13.995,11.386-25.38,25.381-25.38c10.093,0,18.304,8.211,18.304,18.304  c0,6.971-5.672,12.643-12.644,12.643c-4.475,0-8.114-3.64-8.114-8.115c0-5.523-4.478-10-10-10s-10,4.477-10,10  c0,15.502,12.612,28.115,28.114,28.115c18,0,32.644-14.644,32.644-32.643c0-21.121-17.183-38.304-38.304-38.304  c-21.587,0-39.689,15.155-44.257,35.381h-78.629c-5.522,0-10,4.477-10,10s4.478,10,10,10h77.506V438H119.507z"/>
<path d="M189.751,349.371c-5.522,0-10-4.477-10-10v-0.131c0-5.523,4.478-10,10-10s10,4.477,10,10v0.131  C199.751,344.894,195.273,349.371,189.751,349.371z"/>
<path d="M189.75,413.188h-35.999c-5.522,0-10-4.477-10-10V147c0-5.523,4.478-10,10-10h35.999c5.522,0,10,4.477,10,10v159.914  c0,5.523-4.478,10-10,10s-10-4.477-10-10V157h-15.999v236.188h15.999v-22.486c0-5.523,4.478-10,10-10s10,4.477,10,10v32.486  C199.75,408.711,195.272,413.188,189.75,413.188z"/>
<path d="M273.987,316.452c-5.522,0-10-4.477-10-10v-0.131c0-5.523,4.478-10,10-10s10,4.477,10,10v0.131  C283.987,311.975,279.51,316.452,273.987,316.452z"/>
<path d="M273.987,413.188h-36c-5.522,0-10-4.477-10-10V147c0-5.523,4.478-10,10-10h36c5.522,0,10,4.477,10,10v126.996  c0,5.523-4.478,10-10,10s-10-4.477-10-10V157h-16v236.188h16v-55.404c0-5.523,4.478-10,10-10s10,4.477,10,10v65.404  C283.987,408.711,279.51,413.188,273.987,413.188z"/>
<path d="M358.75,244.556c-5.522,0-10-4.477-10-10v-0.131c0-5.523,4.478-10,10-10s10,4.477,10,10v0.131  C368.75,240.079,364.272,244.556,358.75,244.556z"/>
<path d="M358.749,413.188H320.75c-5.522,0-10-4.477-10-10V147c0-5.523,4.478-10,10-10h37.999c5.522,0,10,4.477,10,10v55.1  c0,5.523-4.478,10-10,10s-10-4.477-10-10V157H330.75v236.188h17.999v-127.3c0-5.523,4.478-10,10-10s10,4.477,10,10v137.3  C368.749,408.711,364.271,413.188,358.749,413.188z"/>
<g>
</g>
<g>
</g>
<g>
</g>
<g>
</g>
<g>
</g>
<g>
</g>
<g>
</g>
<g>
</g>
<g>
</g>
<g>
</g>
<g>
</g>
<g>
</g>
<g>
</g>
<g>
</g>
<g>
</g>
</svg>
